<?xml version="1.0" standalone="no"?><!DOCTYPE svg PUBLIC "-//W3C//DTD SVG 1.1//EN" "http://www.w3.org/Graphics/SVG/1.1/DTD/svg11.dtd" ><svg version="1.1" xmlns="http://www.w3.org/2000/svg"><defs><font horiz-adv-x="0" id="font"><font-face ascent="790" bbox="-231 -207 1116 888" cap-height="693" descent="-210" font-family="Guardian EgypTT" font-stretch="normal" font-style="italic" font-weight="300" units-per-em="1000" x-height="511" /><missing-glyph horiz-adv-x="500" /><glyph glyph-name=".notdef#1" horiz-adv-x="0" /><glyph glyph-name=".null" horiz-adv-x="0" /><glyph d="M-57 32 13 46 411 693H469L505 46L569 32L561 0H341L349 32L433 46L425 227H178L67 46L144 32L136 0H-65ZM423 266 409 601H406L201 266Z" glyph-name="A" horiz-adv-x="619" unicode="A" /><glyph d="M-52 32 12 46 508 654 433 662 441 693H942L925 530H889L878 651H631L561 377H711L751 472H784L735 242H701L705 337H552L477 42H766L835 186H870L819 0H311L318 32L409 46L454 221H208L67 46L143 32L135 0H-60ZM463 260 561 643H549L240 260Z" glyph-name="AE" horiz-adv-x="911" unicode="&#198;" /><glyph d="M-57 32 13 46 411 693H469L505 46L569 32L561 0H341L349 32L433 46L425 227H178L67 46L144 32L136 0H-65ZM423 266 409 601H406L201 266ZM359 756 553 847 570 793 368 728Z" glyph-name="Aacute" horiz-adv-x="619" unicode="&#193;" /><glyph d="M-57 32 13 46 411 693H469L505 46L569 32L561 0H341L349 32L433 46L425 227H178L67 46L144 32L136 0H-65ZM423 266 409 601H406L201 266ZM316 751 444 841H478L572 749L554 728L455 786L329 728Z" glyph-name="Acircumflex" horiz-adv-x="619" unicode="&#194;" /><glyph d="M-57 32 13 46 411 693H469L505 46L569 32L561 0H341L349 32L433 46L425 227H178L67 46L144 32L136 0H-65ZM423 266 409 601H406L201 266ZM372 741Q355 741 343.5 753Q332 765 332 779Q332 798 345 811Q358 824 375 824Q393 824 404 812.5Q415 801 415 786Q415 767 402.5 754Q390 741 372 741ZM526 741Q509 741 497.5 753Q486 765 486 779Q486 798 499 811Q512 824 529 824Q547 824 558 812.5Q569 801 569 786Q569 767 556.5 754Q544 741 526 741Z" glyph-name="Adieresis" horiz-adv-x="619" unicode="&#196;" /><glyph d="M-57 32 13 46 411 693H469L505 46L569 32L561 0H341L349 32L433 46L425 227H178L67 46L144 32L136 0H-65ZM423 266 409 601H406L201 266ZM346 799 374 851 536 756 523 729Z" glyph-name="Agrave" horiz-adv-x="619" unicode="&#192;" /><glyph d="M-57 32 13 46 411 693H469L505 46L569 32L561 0H341L349 32L433 46L425 227H178L67 46L144 32L136 0H-65ZM423 266 409 601H406L201 266ZM448 753Q471 753 486.5 767.5Q502 782 502 808Q502 828 490 842.5Q478 857 455 857Q432 857 416.5 841.5Q401 826 401 800Q401 781 413 767Q425 753 448 753ZM447 722Q428 722 413 728.5Q398 735 387.5 746Q377 757 371.5 770.5Q366 784 366 799Q366 839 392.5 863.5Q419 888 457 888Q494 888 516 864Q538 840 538 810Q538 771 511 746.5Q484 722 447 722Z" glyph-name="Aring" horiz-adv-x="619" unicode="&#197;" /><glyph d="M-57 32 13 46 411 693H469L505 46L569 32L561 0H341L349 32L433 46L425 227H178L67 46L144 32L136 0H-65ZM423 266 409 601H406L201 266ZM310 753Q331 791 352 811.5Q373 832 402 832Q417 832 431.5 826.5Q446 821 459.5 814.5Q473 808 485.5 802.5Q498 797 509 797Q525 797 538 807Q551 817 567 840L596 826Q575 787 553.5 766.5Q532 746 504 746Q489 746 474.5 751.5Q460 757 446.5 763.5Q433 770 420.5 775.5Q408 781 397 781Q381 781 367 771.5Q353 762 338 739Z" glyph-name="Atilde" horiz-adv-x="619" unicode="&#195;" /><glyph d="M-29 32 63 46 214 649 130 662 137 693H369Q471 693 522.5 654.5Q574 616 574 547Q574 473 529.5 425.5Q485 378 410 364V360Q472 351 508.5 316.5Q545 282 545 223Q545 184 529.5 144Q514 104 482 72Q450 40 399.5 20Q349 0 279 0H-36ZM275 43Q370 43 421 91.5Q472 140 472 225Q472 284 435 312Q398 340 327 340H207L132 43ZM320 379Q358 379 391 388.5Q424 398 449 418.5Q474 439 488 471Q502 503 502 547Q502 604 467.5 627.5Q433 651 362 651H285L217 379Z" glyph-name="B" horiz-adv-x="576" unicode="B" /><glyph d="M318 -12Q258 -12 207.5 3Q157 18 120.5 48.5Q84 79 64 125Q44 171 44 234Q44 295 58 352Q72 409 96 458.5Q120 508 151.5 548.5Q183 589 217 616Q271 660 331.5 682.5Q392 705 455 705Q525 705 565 694.5Q605 684 632 673L611 516H577L569 635Q551 643 524 652.5Q497 662 448 662Q392 662 342.5 639.5Q293 617 253 578Q222 547 197 507.5Q172 468 154.5 423Q137 378 127.5 329.5Q118 281 118 233Q118 133 168 82.5Q218 32 321 32Q360 32 391 40Q422 48 450 60L508 180H544L500 21Q461 7 414 -2.5Q367 -12 318 -12Z" glyph-name="C" horiz-adv-x="597" unicode="C" /><glyph d="M178 -178Q240 -170 268.5 -157Q297 -144 297 -119Q297 -105 280.5 -96Q264 -87 219 -86L239 -4Q150 13 97 71.5Q44 130 44 234Q44 295 58 352Q72 409 96 458.5Q120 508 151.5 548.5Q183 589 217 616Q271 660 331.5 682.5Q392 705 455 705Q525 705 565 694.5Q605 684 632 673L611 516H577L569 635Q551 643 524 652.5Q497 662 448 662Q392 662 342.5 639.5Q293 617 253 578Q222 547 197 507.5Q172 468 154.5 423Q137 378 127.5 329.5Q118 281 118 233Q118 133 168 82.5Q218 32 321 32Q360 32 391 40Q422 48 450 60L508 180H544L500 21Q461 7 414 -2.5Q367 -12 318 -12Q295 -12 274 -9L264 -50Q355 -56 355 -111Q355 -153 310 -176.5Q265 -200 171 -207Z" glyph-name="Ccedilla" horiz-adv-x="597" unicode="&#199;" /><glyph d="M-30 32 63 46 214 648 129 662 137 693H388Q532 693 601.5 629.5Q671 566 671 451Q671 363 644 281.5Q617 200 564.5 137.5Q512 75 434 37.5Q356 0 255 0H-38ZM256 42Q319 42 370 59.5Q421 77 464 112Q497 139 522 176Q547 213 564 258Q581 303 589.5 354Q598 405 598 459Q598 563 544 607Q490 651 380 651H285L132 42Z" glyph-name="D" horiz-adv-x="666" unicode="D" /><glyph d="M-29 32 63 46 214 648 130 662 137 693H602L586 530H550L539 651H285L215 377H371L411 472H445L395 242H362L365 337H206L132 42H427L495 186H531L480 0H-36Z" glyph-name="E" horiz-adv-x="572" unicode="E" /><glyph d="M318 756 512 847 529 793 327 728ZM-29 32 63 46 214 648 130 662 137 693H602L586 530H550L539 651H285L215 377H371L411 472H445L395 242H362L365 337H206L132 42H427L495 186H531L480 0H-36Z" glyph-name="Eacute" horiz-adv-x="572" unicode="&#201;" /><glyph d="M275 751 403 841H437L531 749L513 728L414 786L288 728ZM-29 32 63 46 214 648 130 662 137 693H602L586 530H550L539 651H285L215 377H371L411 472H445L395 242H362L365 337H206L132 42H427L495 186H531L480 0H-36Z" glyph-name="Ecircumflex" horiz-adv-x="572" unicode="&#202;" /><glyph d="M-29 32 63 46 214 648 130 662 137 693H602L586 530H550L539 651H285L215 377H371L411 472H445L395 242H362L365 337H206L132 42H427L495 186H531L480 0H-36ZM335 741Q318 741 306.5 753Q295 765 295 779Q295 798 308 811Q321 824 338 824Q356 824 367 812.5Q378 801 378 786Q378 767 365.5 754Q353 741 335 741ZM489 741Q472 741 460.5 753Q449 765 449 779Q449 798 462 811Q475 824 492 824Q510 824 521 812.5Q532 801 532 786Q532 767 519.5 754Q507 741 489 741Z" glyph-name="Edieresis" horiz-adv-x="572" unicode="&#203;" /><glyph d="M305 799 333 851 495 756 482 729ZM-29 32 63 46 214 648 130 662 137 693H602L586 530H550L539 651H285L215 377H371L411 472H445L395 242H362L365 337H206L132 42H427L495 186H531L480 0H-36Z" glyph-name="Egrave" horiz-adv-x="572" unicode="&#200;" /><glyph d="M59 371H144L214 648L129 662L137 693H388Q532 693 601.5 629.5Q671 566 671 451Q671 363 644 281.5Q617 200 564.5 137.5Q512 75 434 37.5Q356 0 255 0H-38L-30 32L63 46L133 326H48ZM256 42Q319 42 370 59.5Q421 77 464 112Q497 139 522 176Q547 213 564 258Q581 303 589.5 354Q598 405 598 459Q598 563 544 607Q490 651 380 651H285L214 371H396L385 326H203L132 42Z" glyph-name="Eth" horiz-adv-x="666" unicode="&#208;" /><glyph d="M67 420H143Q168 483 207 535.5Q246 588 293.5 625Q341 662 395 682.5Q449 703 505 703Q572 703 608 681Q644 659 644 625Q644 603 633 582.5Q622 562 609 547H563L579 626Q571 642 550 652Q529 662 497 662Q412 662 341 605Q302 573 269.5 525Q237 477 214 420H449L439 381H200Q194 361 189 340.5Q184 320 180 299H418L409 260H175Q174 247 173.5 235Q173 223 173 211Q173 120 216.5 79Q260 38 342 38Q367 38 391.5 42Q416 46 437.5 51.5Q459 57 477.5 63.5Q496 70 509 76L500 40Q472 23 426.5 6.5Q381 -10 321 -10Q272 -10 232 3.5Q192 17 163.5 44.5Q135 72 119.5 113.5Q104 155 104 211Q104 223 104 235.5Q104 248 106 260H27L37 299H110Q117 340 130 381H57Z" glyph-name="Euro" horiz-adv-x="593" unicode="&#8364;" /><glyph d="M-29 32 63 45 214 648 130 662 137 693H603L587 526H551L538 651H285L213 365H367L407 460H440L390 230H357L361 326H203L132 46L229 32L222 0H-36Z" glyph-name="F" horiz-adv-x="537" unicode="F" /><glyph d="M316 -12Q260 -12 210.5 2.5Q161 17 124.5 47Q88 77 66.5 123Q45 169 45 232Q45 293 58.5 348Q72 403 95.5 451Q119 499 149 538Q179 577 212 606Q266 654 329.5 679.5Q393 705 462 705Q528 705 568.5 695.5Q609 686 639 673L618 521H583L573 634Q556 646 528.5 654.5Q501 663 452 663Q397 663 345.5 639Q294 615 250 570Q222 542 198 505.5Q174 469 156.5 425.5Q139 382 129 333.5Q119 285 119 234Q119 131 169.5 81.5Q220 32 316 32Q356 32 386 39Q416 46 440 57L491 260L402 272L410 304H647L639 272L561 260L501 21Q463 7 414.5 -2.5Q366 -12 316 -12Z" glyph-name="G" horiz-adv-x="644" unicode="G" /><glyph d="M-30 32 62 45 214 648 129 662 137 693H386L378 662L284 648L215 376H557L625 648L537 662L545 693H794L786 662L695 648L544 45L628 32L620 0H374L382 32L474 45L547 337H205L132 45L220 32L212 0H-38Z" glyph-name="H" horiz-adv-x="704" unicode="H" /><glyph d="M-30 32 64 45 216 649 129 662 137 693H386L378 662L285 649L134 45L220 32L212 0H-38Z" glyph-name="I" horiz-adv-x="296" unicode="I" /><glyph d="M-30 32 64 45 216 649 129 662 137 693H386L378 662L285 649L134 45L220 32L212 0H-38ZM186 756 380 847 397 793 195 728Z" glyph-name="Iacute" horiz-adv-x="296" unicode="&#205;" /><glyph d="M-30 32 64 45 216 649 129 662 137 693H386L378 662L285 649L134 45L220 32L212 0H-38ZM143 751 271 841H305L399 749L381 728L282 786L156 728Z" glyph-name="Icircumflex" horiz-adv-x="296" unicode="&#206;" /><glyph d="M-30 32 64 45 216 649 129 662 137 693H386L378 662L285 649L134 45L220 32L212 0H-38ZM203 741Q186 741 174.5 753Q163 765 163 779Q163 798 176 811Q189 824 206 824Q224 824 235 812.5Q246 801 246 786Q246 767 233.5 754Q221 741 203 741ZM357 741Q340 741 328.5 753Q317 765 317 779Q317 798 330 811Q343 824 360 824Q378 824 389 812.5Q400 801 400 786Q400 767 387.5 754Q375 741 357 741Z" glyph-name="Idieresis" horiz-adv-x="296" unicode="&#207;" /><glyph d="M-30 32 64 45 216 649 129 662 137 693H386L378 662L285 649L134 45L220 32L212 0H-38ZM173 799 201 851 363 756 350 729Z" glyph-name="Igrave" horiz-adv-x="296" unicode="&#204;" /><glyph d="M31 45Q53 35 87 35Q135 35 168 66Q201 97 219 168L340 648L253 662L261 693H509L501 662L409 648L285 153Q266 81 219.5 36Q173 -9 90 -9Q39 -9 4.5 10Q-30 29 -30 63Q-30 83 -19.5 101.5Q-9 120 1 128H45Z" glyph-name="J" horiz-adv-x="409" unicode="J" /><glyph d="M252 332 256 350 572 649 505 662 513 693H705L698 662L636 649L317 352L481 46L556 32L549 0H429ZM-31 32 61 45 213 649 129 662 136 693H387L380 662L283 649L131 45L221 32L213 0H-38Z" glyph-name="K" horiz-adv-x="626" unicode="K" /><glyph d="M287 335 182 249 131 45 221 32 213 0H-38L-31 32L61 45L213 649L129 662L136 693H387L380 662L283 649L196 303L572 649L506 662L513 693H704L697 662L635 649L340 380L493 46L568 32L561 0H441Z" glyph-name="K.alt" horiz-adv-x="632" /><glyph d="M-30 32 61 45 212 649 128 662 135 693H390L382 662L282 649L129 42H395L463 197H500L449 0H-38Z" glyph-name="L" horiz-adv-x="539" unicode="L" /><glyph d="M35 273 127 309 212 649 128 662 135 693H390L382 662L282 649L203 338L435 430L424 382L191 291L129 42H395L463 197H500L449 0H-38L-30 32L61 45L115 262L23 226Z" glyph-name="Lslash" horiz-adv-x="539" unicode="&#321;" /><glyph d="M-30 31 63 45 215 649 130 662 138 693H327L380 132H383L720 693H920L912 662L816 649L664 46L753 32L746 0H505L512 32L596 46L746 640H743L369 24H326L267 640H265L115 46L196 32L189 0H-38Z" glyph-name="M" horiz-adv-x="830" unicode="M" /><glyph d="M-30 31 63 45 214 648 129 662 137 693H319L510 120H513L646 647L558 662L566 693H789L781 662L697 648L534 0H479L266 638H263L114 46L204 31L197 0H-38Z" glyph-name="N" horiz-adv-x="691" unicode="N" /><glyph d="M344 753Q365 791 386 811.5Q407 832 436 832Q451 832 465.5 826.5Q480 821 493.5 814.5Q507 808 519.5 802.5Q532 797 543 797Q559 797 572 807Q585 817 601 840L630 826Q609 787 587.5 766.5Q566 746 538 746Q523 746 508.5 751.5Q494 757 480.5 763.5Q467 770 454.5 775.5Q442 781 431 781Q415 781 401 771.5Q387 762 372 739ZM-30 31 63 45 214 648 129 662 137 693H319L510 120H513L646 647L558 662L566 693H789L781 662L697 648L534 0H479L266 638H263L114 46L204 31L197 0H-38Z" glyph-name="Ntilde" horiz-adv-x="691" unicode="&#209;" /><glyph d="M285 32Q346 32 393.5 56Q441 80 479 123Q507 154 529.5 194.5Q552 235 567.5 280.5Q583 326 591 374Q599 422 599 469Q599 566 553.5 614Q508 662 430 662Q372 662 327 639.5Q282 617 244 576Q214 544 190.5 503Q167 462 150.5 416Q134 370 125 321Q116 272 116 224Q116 130 158.5 81Q201 32 285 32ZM281 -11Q231 -11 187.5 5.5Q144 22 112.5 54Q81 86 63 131.5Q45 177 45 236Q45 333 77 418.5Q109 504 163 567.5Q217 631 286.5 667.5Q356 704 431 704Q485 704 529.5 686.5Q574 669 605 637Q636 605 653 559.5Q670 514 670 458Q670 360 640 275Q610 190 557.5 126Q505 62 434 25.5Q363 -11 281 -11Z" glyph-name="O" horiz-adv-x="664" unicode="O" /><glyph d="M930 530H894L883 651H637L567 377H716L756 472H789L740 242H706L710 337H559L484 42H771L840 186H875L824 0H331Q186 0 116.5 64Q47 128 47 243Q47 331 73.5 412.5Q100 494 152 556.5Q204 619 281.5 656Q359 693 460 693H947ZM459 651Q396 651 346 633.5Q296 616 253 581Q220 554 195 517Q170 480 153 435.5Q136 391 127.5 340Q119 289 119 235Q119 131 174 86.5Q229 42 339 42H414L568 651Z" glyph-name="OE" horiz-adv-x="918" unicode="&#338;" /><glyph d="M363 756 557 847 574 793 372 728ZM285 32Q346 32 393.5 56Q441 80 479 123Q507 154 529.5 194.5Q552 235 567.5 280.5Q583 326 591 374Q599 422 599 469Q599 566 553.5 614Q508 662 430 662Q372 662 327 639.5Q282 617 244 576Q214 544 190.5 503Q167 462 150.5 416Q134 370 125 321Q116 272 116 224Q116 130 158.5 81Q201 32 285 32ZM281 -11Q231 -11 187.5 5.5Q144 22 112.5 54Q81 86 63 131.5Q45 177 45 236Q45 333 77 418.5Q109 504 163 567.5Q217 631 286.5 667.5Q356 704 431 704Q485 704 529.5 686.5Q574 669 605 637Q636 605 653 559.5Q670 514 670 458Q670 360 640 275Q610 190 557.5 126Q505 62 434 25.5Q363 -11 281 -11Z" glyph-name="Oacute" horiz-adv-x="664" unicode="&#211;" /><glyph d="M320 751 448 841H482L576 749L558 728L459 786L333 728ZM285 32Q346 32 393.5 56Q441 80 479 123Q507 154 529.5 194.5Q552 235 567.5 280.5Q583 326 591 374Q599 422 599 469Q599 566 553.5 614Q508 662 430 662Q372 662 327 639.5Q282 617 244 576Q214 544 190.5 503Q167 462 150.5 416Q134 370 125 321Q116 272 116 224Q116 130 158.5 81Q201 32 285 32ZM281 -11Q231 -11 187.5 5.5Q144 22 112.5 54Q81 86 63 131.5Q45 177 45 236Q45 333 77 418.5Q109 504 163 567.5Q217 631 286.5 667.5Q356 704 431 704Q485 704 529.5 686.5Q574 669 605 637Q636 605 653 559.5Q670 514 670 458Q670 360 640 275Q610 190 557.5 126Q505 62 434 25.5Q363 -11 281 -11Z" glyph-name="Ocircumflex" horiz-adv-x="664" unicode="&#212;" /><glyph d="M372 741Q355 741 343.5 753Q332 765 332 779Q332 798 345 811Q358 824 375 824Q393 824 404 812.5Q415 801 415 786Q415 767 402.5 754Q390 741 372 741ZM526 741Q509 741 497.5 753Q486 765 486 779Q486 798 499 811Q512 824 529 824Q547 824 558 812.5Q569 801 569 786Q569 767 556.5 754Q544 741 526 741ZM285 32Q346 32 393.5 56Q441 80 479 123Q507 154 529.5 194.5Q552 235 567.5 280.5Q583 326 591 374Q599 422 599 469Q599 566 553.5 614Q508 662 430 662Q372 662 327 639.5Q282 617 244 576Q214 544 190.5 503Q167 462 150.5 416Q134 370 125 321Q116 272 116 224Q116 130 158.5 81Q201 32 285 32ZM281 -11Q231 -11 187.5 5.5Q144 22 112.5 54Q81 86 63 131.5Q45 177 45 236Q45 333 77 418.5Q109 504 163 567.5Q217 631 286.5 667.5Q356 704 431 704Q485 704 529.5 686.5Q574 669 605 637Q636 605 653 559.5Q670 514 670 458Q670 360 640 275Q610 190 557.5 126Q505 62 434 25.5Q363 -11 281 -11Z" glyph-name="Odieresis" horiz-adv-x="664" unicode="&#214;" /><glyph d="M350 799 378 851 540 756 527 729ZM285 32Q346 32 393.5 56Q441 80 479 123Q507 154 529.5 194.5Q552 235 567.5 280.5Q583 326 591 374Q599 422 599 469Q599 566 553.5 614Q508 662 430 662Q372 662 327 639.5Q282 617 244 576Q214 544 190.5 503Q167 462 150.5 416Q134 370 125 321Q116 272 116 224Q116 130 158.5 81Q201 32 285 32ZM281 -11Q231 -11 187.5 5.5Q144 22 112.5 54Q81 86 63 131.5Q45 177 45 236Q45 333 77 418.5Q109 504 163 567.5Q217 631 286.5 667.5Q356 704 431 704Q485 704 529.5 686.5Q574 669 605 637Q636 605 653 559.5Q670 514 670 458Q670 360 640 275Q610 190 557.5 126Q505 62 434 25.5Q363 -11 281 -11Z" glyph-name="Ograve" horiz-adv-x="664" unicode="&#210;" /><glyph d="M6 1 86 87Q66 116 55.5 153.5Q45 191 45 236Q45 333 77 418.5Q109 504 163 567.5Q217 631 286.5 667.5Q356 704 431 704Q483 704 525 688Q567 672 599 643L664 713L693 688L624 614Q670 551 670 458Q670 360 640 275Q610 190 557.5 126Q505 62 434 25.5Q363 -11 281 -11Q230 -11 186 6.5Q142 24 110 56L35 -25ZM285 32Q346 32 393.5 56Q441 80 479 123Q507 154 529.5 194.5Q552 235 567.5 280.5Q583 326 591.5 374Q600 422 600 469Q600 527 583 569L146 95Q186 32 285 32ZM115 224Q115 171 127 132L564 605Q520 662 430 662Q372 662 327 639.5Q282 617 244 576Q214 544 190.5 503Q167 462 150 416Q133 370 124 321Q115 272 115 224Z" glyph-name="Oslash" horiz-adv-x="664" unicode="&#216;" /><glyph d="M318 753Q339 791 360 811.5Q381 832 410 832Q425 832 439.5 826.5Q454 821 467.5 814.5Q481 808 493.5 802.5Q506 797 517 797Q533 797 546 807Q559 817 575 840L604 826Q583 787 561.5 766.5Q540 746 512 746Q497 746 482.5 751.5Q468 757 454.5 763.5Q441 770 428.5 775.5Q416 781 405 781Q389 781 375 771.5Q361 762 346 739ZM285 32Q346 32 393.5 56Q441 80 479 123Q507 154 529.5 194.5Q552 235 567.5 280.5Q583 326 591 374Q599 422 599 469Q599 566 553.5 614Q508 662 430 662Q372 662 327 639.5Q282 617 244 576Q214 544 190.5 503Q167 462 150.5 416Q134 370 125 321Q116 272 116 224Q116 130 158.5 81Q201 32 285 32ZM281 -11Q231 -11 187.5 5.5Q144 22 112.5 54Q81 86 63 131.5Q45 177 45 236Q45 333 77 418.5Q109 504 163 567.5Q217 631 286.5 667.5Q356 704 431 704Q485 704 529.5 686.5Q574 669 605 637Q636 605 653 559.5Q670 514 670 458Q670 360 640 275Q610 190 557.5 126Q505 62 434 25.5Q363 -11 281 -11Z" glyph-name="Otilde" horiz-adv-x="664" unicode="&#213;" /><glyph d="M-29 32 62 46 214 649 129 662 137 693H383Q490 693 541.5 648Q593 603 593 531Q593 470 572 427Q551 384 515.5 357Q480 330 433.5 317.5Q387 305 336 305Q307 305 286.5 308.5Q266 312 253 316L262 349Q273 346 288.5 344Q304 342 332 342Q420 342 470.5 388.5Q521 435 521 526Q521 583 489 616Q457 649 386 649H284L132 46L232 32L224 0H-37Z" glyph-name="P" horiz-adv-x="551" unicode="P" /><glyph d="M-29 32 62 46 214 649 129 662 137 693H383Q489 693 541 648Q593 603 593 531Q593 470 572 426.5Q551 383 515 355Q479 327 431.5 313.5Q384 300 330 300Q294 300 259.5 306.5Q225 313 201 321L132 46L232 32L224 0H-37ZM211 360Q233 352 263 347Q293 342 328 342Q421 342 471 388Q521 434 521 525Q521 582 489 615.5Q457 649 386 649H284Z" glyph-name="P.alt" horiz-adv-x="551" /><glyph d="M229 -9Q195 0 162 17.5Q129 35 103 64Q77 93 61 135Q45 177 45 236Q45 333 77 418.5Q109 504 163 567.5Q217 631 286.5 667.5Q356 704 431 704Q485 704 529.5 686.5Q574 669 605 637Q636 605 653 559.5Q670 514 670 458Q670 360 642 280Q614 200 568.5 141Q523 82 466 47Q409 12 351 5V4L616 -51L595 -110ZM285 32Q346 32 393.5 56Q441 80 479 123Q507 154 529.5 194.5Q552 235 567.5 280.5Q583 326 591 374Q599 422 599 469Q599 566 553.5 614Q508 662 430 662Q372 662 327 639.5Q282 617 244 576Q214 544 190.5 503Q167 462 150.5 416Q134 370 125 321Q116 272 116 224Q116 130 158.5 81Q201 32 285 32Z" glyph-name="Q" horiz-adv-x="664" unicode="Q" /><glyph d="M-31 32 63 46 215 648 131 662 138 693H389Q493 693 542.5 650.5Q592 608 592 541Q592 450 538.5 399Q485 348 394 331V328L493 45L561 31L554 0H433L327 319H202L132 46L217 32L209 0H-38ZM328 358Q376 358 412 372Q448 386 471.5 410.5Q495 435 506.5 467Q518 499 518 535Q518 560 511.5 581Q505 602 489 617Q473 632 446.5 640.5Q420 649 380 649H284L211 358Z" glyph-name="R" horiz-adv-x="613" unicode="R" /><glyph d="M185 -10Q120 -10 73 4Q26 18 -6 35L19 173H55L57 73Q80 57 111 45.5Q142 34 195 34Q238 34 270 46Q302 58 323 78.5Q344 99 354.5 126.5Q365 154 365 185Q365 208 359.5 225.5Q354 243 342 259Q330 275 311 290Q292 305 264 322L213 352Q167 380 140 417.5Q113 455 113 513Q113 552 127.5 586.5Q142 621 170 647.5Q198 674 239.5 689.5Q281 705 336 705Q398 705 435 693Q472 681 498 670L484 541H449L440 632Q434 636 425.5 641.5Q417 647 404 651.5Q391 656 373 659Q355 662 330 662Q261 662 219 626Q177 590 177 529Q177 489 195 459.5Q213 430 260 402L312 372Q340 355 362.5 338Q385 321 401 301Q417 281 425.5 257Q434 233 434 203Q434 164 419.5 126Q405 88 374.5 57.5Q344 27 297 8.5Q250 -10 185 -10Z" glyph-name="S" horiz-adv-x="489" unicode="S" /><glyph d="M497 823 369 733H335L241 825L259 846L358 789L484 846ZM185 -10Q120 -10 73 4Q26 18 -6 35L19 173H55L57 73Q80 57 111 45.5Q142 34 195 34Q238 34 270 46Q302 58 323 78.5Q344 99 354.5 126.5Q365 154 365 185Q365 208 359.5 225.5Q354 243 342 259Q330 275 311 290Q292 305 264 322L213 352Q167 380 140 417.5Q113 455 113 513Q113 552 127.5 586.5Q142 621 170 647.5Q198 674 239.5 689.5Q281 705 336 705Q398 705 435 693Q472 681 498 670L484 541H449L440 632Q434 636 425.5 641.5Q417 647 404 651.5Q391 656 373 659Q355 662 330 662Q261 662 219 626Q177 590 177 529Q177 489 195 459.5Q213 430 260 402L312 372Q340 355 362.5 338Q385 321 401 301Q417 281 425.5 257Q434 233 434 203Q434 164 419.5 126Q405 88 374.5 57.5Q344 27 297 8.5Q250 -10 185 -10Z" glyph-name="Scaron" horiz-adv-x="489" unicode="&#352;" /><glyph d="M104 32 202 45 354 651H180L117 512H81L135 693H656L626 512H590L594 651H424L272 45L362 32L354 0H96Z" glyph-name="T" horiz-adv-x="565" unicode="T" /><glyph d="M-30 32 62 46 214 648 129 662 137 693H386L378 662L284 648L259 551H349Q456 551 507 509Q558 467 558 399Q558 341 537 300Q516 259 480.5 233Q445 207 399 195Q353 183 303 183Q274 183 254 187Q234 191 220 195L229 228Q240 225 255 222Q270 219 298 219Q386 219 435.5 262Q485 305 485 393Q485 447 454 476.5Q423 506 353 506H248L132 46L232 32L224 0H-37Z" glyph-name="Thorn" horiz-adv-x="548" unicode="&#222;" /><glyph d="M-30 32 62 46 214 648 129 662 137 693H386L378 662L284 648L259 551H349Q456 551 507 509Q558 467 558 399Q558 341 537 300Q516 259 481 232.5Q446 206 399.5 194Q353 182 301 182Q261 182 226.5 188Q192 194 171 201L132 46L232 32L224 0H-37ZM181 241Q202 233 231.5 228Q261 223 297 223Q388 223 436.5 264Q485 305 485 393Q485 447 454 476.5Q423 506 353 506H248Z" glyph-name="Thorn.alt" horiz-adv-x="548" /><glyph d="M308 -11Q199 -11 142 35.5Q85 82 85 162Q85 192 94 227L200 649L118 662L126 693H373L365 662L270 649L164 229Q155 193 155 163Q155 36 321 36Q408 36 456.5 79.5Q505 123 528 218L635 648L550 661L558 693H776L768 662L686 649L576 206Q550 99 486 44Q422 -11 308 -11Z" glyph-name="U" horiz-adv-x="678" unicode="U" /><glyph d="M383 756 577 847 594 793 392 728ZM308 -11Q199 -11 142 35.5Q85 82 85 162Q85 192 94 227L200 649L118 662L126 693H373L365 662L270 649L164 229Q155 193 155 163Q155 36 321 36Q408 36 456.5 79.5Q505 123 528 218L635 648L550 661L558 693H776L768 662L686 649L576 206Q550 99 486 44Q422 -11 308 -11Z" glyph-name="Uacute" horiz-adv-x="678" unicode="&#218;" /><glyph d="M337 751 465 841H499L593 749L575 728L476 786L350 728ZM308 -11Q199 -11 142 35.5Q85 82 85 162Q85 192 94 227L200 649L118 662L126 693H373L365 662L270 649L164 229Q155 193 155 163Q155 36 321 36Q408 36 456.5 79.5Q505 123 528 218L635 648L550 661L558 693H776L768 662L686 649L576 206Q550 99 486 44Q422 -11 308 -11Z" glyph-name="Ucircumflex" horiz-adv-x="678" unicode="&#219;" /><glyph d="M308 -11Q199 -11 142 35.5Q85 82 85 162Q85 192 94 227L200 649L118 662L126 693H373L365 662L270 649L164 229Q155 193 155 163Q155 36 321 36Q408 36 456.5 79.5Q505 123 528 218L635 648L550 661L558 693H776L768 662L686 649L576 206Q550 99 486 44Q422 -11 308 -11ZM395 741Q378 741 366.5 753Q355 765 355 779Q355 798 368 811Q381 824 398 824Q416 824 427 812.5Q438 801 438 786Q438 767 425.5 754Q413 741 395 741ZM549 741Q532 741 520.5 753Q509 765 509 779Q509 798 522 811Q535 824 552 824Q570 824 581 812.5Q592 801 592 786Q592 767 579.5 754Q567 741 549 741Z" glyph-name="Udieresis" horiz-adv-x="678" unicode="&#220;" /><glyph d="M370 799 398 851 560 756 547 729ZM308 -11Q199 -11 142 35.5Q85 82 85 162Q85 192 94 227L200 649L118 662L126 693H373L365 662L270 649L164 229Q155 193 155 163Q155 36 321 36Q408 36 456.5 79.5Q505 123 528 218L635 648L550 661L558 693H776L768 662L686 649L576 206Q550 99 486 44Q422 -11 308 -11Z" glyph-name="Ugrave" horiz-adv-x="678" unicode="&#217;" /><glyph d="M168 648 108 662 116 693H333L325 662L238 648L272 97H276L602 648L525 662L533 693H731L723 662L657 648L269 0H215Z" glyph-name="V" horiz-adv-x="625" unicode="V" /><glyph d="M169 648 111 662 118 693H326L319 662L236 648L242 111H246L550 693H593L609 109H612L892 648L818 662L825 693H1027L1019 662L948 648L607 0H549L535 565H533L236 0H179Z" glyph-name="W" horiz-adv-x="921" unicode="W" /><glyph d="M-31 32 44 46 317 358 214 649 143 662 151 693H377L369 662L288 649L372 397L580 649L506 662L514 693H724L716 662L639 649L390 355L502 45L572 32L565 0H341L348 32L431 45L335 317L103 46L179 31L171 0H-39Z" glyph-name="X" horiz-adv-x="648" unicode="X" /><glyph d="M127 32 218 46 286 314 171 648 114 662 122 693H330L322 662L243 648L339 356H342L573 648L498 662L506 693H698L690 662L627 648L354 308L288 46L372 32L364 0H119Z" glyph-name="Y" horiz-adv-x="595" unicode="Y" /><glyph d="M127 32 218 46 286 314 171 648 114 662 122 693H330L322 662L243 648L339 356H342L573 648L498 662L506 693H698L690 662L627 648L354 308L288 46L372 32L364 0H119ZM340 756 534 847 551 793 349 728Z" glyph-name="Yacute" horiz-adv-x="595" unicode="&#221;" /><glyph d="M127 32 218 46 286 314 171 648 114 662 122 693H330L322 662L243 648L339 356H342L573 648L498 662L506 693H698L690 662L627 648L354 308L288 46L372 32L364 0H119ZM357 741Q340 741 328.5 753Q317 765 317 779Q317 798 330 811Q343 824 360 824Q378 824 389 812.5Q400 801 400 786Q400 767 387.5 754Q375 741 357 741ZM511 741Q494 741 482.5 753Q471 765 471 779Q471 798 484 811Q497 824 514 824Q532 824 543 812.5Q554 801 554 786Q554 767 541.5 754Q529 741 511 741Z" glyph-name="Ydieresis" horiz-adv-x="595" unicode="&#376;" /><glyph d="M-24 35 510 647V650H198L141 516H104L150 693H607L599 658L65 47V43H399L458 178H494L450 0H-32Z" glyph-name="Z" horiz-adv-x="537" unicode="Z" /><glyph d="M524 823 396 733H362L268 825L286 846L385 789L511 846ZM-24 35 510 647V650H198L141 516H104L150 693H607L599 658L65 47V43H399L458 178H494L450 0H-32Z" glyph-name="Zcaron" horiz-adv-x="537" unicode="&#142;" /><glyph d="M100 -9Q56 -9 31 22Q6 53 6 107Q6 156 20 205Q34 254 58 299Q82 344 114.5 382.5Q147 421 184.5 449.5Q222 478 262.5 494Q303 510 344 510Q370 510 393.5 502Q417 494 431 483H435L456 514H503L352 41L444 43L436 16Q425 13 410.5 8.5Q396 4 379.5 0.5Q363 -3 347 -5.5Q331 -8 318 -8Q299 -8 289.5 2.5Q280 13 288 39L320 137H317Q296 108 270.5 82Q245 56 217 35.5Q189 15 159.5 3Q130 -9 100 -9ZM121 43Q145 43 173 56.5Q201 70 229.5 92.5Q258 115 286 144.5Q314 174 339 206L412 435Q401 451 380 460.5Q359 470 336 470Q288 470 240.5 437.5Q193 405 156 354Q119 303 95.5 241Q72 179 72 121Q72 43 121 43Z" glyph-name="a" horiz-adv-x="507" unicode="a" /><glyph d="M100 -9Q56 -9 31 22Q6 53 6 107Q6 156 20 205Q34 254 58 299Q82 344 114.5 382.5Q147 421 184.5 449.5Q222 478 262.5 494Q303 510 344 510Q370 510 393.5 502Q417 494 431 483H435L456 514H503L352 41L444 43L436 16Q425 13 410.5 8.5Q396 4 379.5 0.5Q363 -3 347 -5.5Q331 -8 318 -8Q299 -8 289.5 2.5Q280 13 288 39L320 137H317Q296 108 270.5 82Q245 56 217 35.5Q189 15 159.5 3Q130 -9 100 -9ZM121 43Q145 43 173 56.5Q201 70 229.5 92.5Q258 115 286 144.5Q314 174 339 206L412 435Q401 451 380 460.5Q359 470 336 470Q288 470 240.5 437.5Q193 405 156 354Q119 303 95.5 241Q72 179 72 121Q72 43 121 43ZM276 607 453 724 477 672 288 581Z" glyph-name="aacute" horiz-adv-x="507" unicode="&#225;" /><glyph d="M100 -9Q56 -9 31 22Q6 53 6 107Q6 156 20 205Q34 254 58 299Q82 344 114.5 382.5Q147 421 184.5 449.5Q222 478 262.5 494Q303 510 344 510Q370 510 393.5 502Q417 494 431 483H435L456 514H503L352 41L444 43L436 16Q425 13 410.5 8.5Q396 4 379.5 0.5Q363 -3 347 -5.5Q331 -8 318 -8Q299 -8 289.5 2.5Q280 13 288 39L320 137H317Q296 108 270.5 82Q245 56 217 35.5Q189 15 159.5 3Q130 -9 100 -9ZM121 43Q145 43 173 56.5Q201 70 229.5 92.5Q258 115 286 144.5Q314 174 339 206L412 435Q401 451 380 460.5Q359 470 336 470Q288 470 240.5 437.5Q193 405 156 354Q119 303 95.5 241Q72 179 72 121Q72 43 121 43ZM224 610 356 722H390L476 608L456 587L366 666L238 587Z" glyph-name="acircumflex" horiz-adv-x="507" unicode="&#226;" /><glyph d="M243 607 420 724 444 672 255 581Z" glyph-name="acute" horiz-adv-x="492" unicode="&#180;" /><glyph d="M331 595 435 752 484 719 359 579Z" glyph-name="acute.pl" horiz-adv-x="489" /><glyph d="M257 756 451 847 468 793 266 728Z" glyph-name="acute.uc" horiz-adv-x="492" /><glyph d="M334 746 431 880 477 843 362 728Z" glyph-name="acute.ucpl" horiz-adv-x="489" /><glyph d="M100 -9Q56 -9 31 22Q6 53 6 107Q6 156 20 205Q34 254 58 299Q82 344 114.5 382.5Q147 421 184.5 449.5Q222 478 262.5 494Q303 510 344 510Q370 510 393.5 502Q417 494 431 483H435L456 514H503L352 41L444 43L436 16Q425 13 410.5 8.5Q396 4 379.5 0.5Q363 -3 347 -5.5Q331 -8 318 -8Q299 -8 289.5 2.5Q280 13 288 39L320 137H317Q296 108 270.5 82Q245 56 217 35.5Q189 15 159.5 3Q130 -9 100 -9ZM121 43Q145 43 173 56.5Q201 70 229.5 92.5Q258 115 286 144.5Q314 174 339 206L412 435Q401 451 380 460.5Q359 470 336 470Q288 470 240.5 437.5Q193 405 156 354Q119 303 95.5 241Q72 179 72 121Q72 43 121 43ZM289 629Q272 629 260.5 641Q249 653 249 667Q249 687 262 699.5Q275 712 292 712Q310 712 321 700.5Q332 689 332 675Q332 656 319.5 642.5Q307 629 289 629ZM440 629Q423 629 411.5 641Q400 653 400 667Q400 687 413 699.5Q426 712 443 712Q461 712 472 700.5Q483 689 483 675Q483 656 470.5 642.5Q458 629 440 629Z" glyph-name="adieresis" horiz-adv-x="507" unicode="&#228;" /><glyph d="M464 38Q515 38 561 59Q607 80 640 107L634 68Q621 56 602 42.5Q583 29 558.5 17.5Q534 6 505.5 -1.5Q477 -9 445 -9Q388 -9 352.5 16.5Q317 42 302 84Q270 48 225.5 19Q181 -10 124 -10Q64 -10 29 23.5Q-6 57 -6 109Q-6 179 38 217Q82 255 167 263L314 278L331 342Q334 356 336 368.5Q338 381 338 393Q338 431 316.5 455Q295 479 243 479Q200 479 174 466.5Q148 454 143 434Q143 432 142 425Q141 418 140.5 410Q140 402 139.5 395Q139 388 140 386H97Q80 403 80 426Q80 444 91.5 460.5Q103 477 125 490.5Q147 504 179 512Q211 520 253 520Q326 520 359.5 486.5Q393 453 393 400Q435 457 490 488.5Q545 520 602 520Q652 520 683.5 497Q715 474 715 425Q715 374 686.5 341.5Q658 309 610 288.5Q562 268 499 257Q436 246 367 239Q358 200 358 158Q358 101 382.5 69.5Q407 38 464 38ZM292 150Q292 195 301 237L180 231Q114 227 84.5 199Q55 171 55 121Q56 85 75.5 60.5Q95 36 141 36Q185 36 223 58Q261 80 294 118Q293 126 292.5 134Q292 142 292 150ZM595 479Q562 479 529.5 464Q497 449 468 422Q439 395 415.5 358Q392 321 377 277Q431 282 481 290.5Q531 299 568.5 315Q606 331 628.5 356.5Q651 382 651 422Q651 448 637 463.5Q623 479 595 479Z" glyph-name="ae" horiz-adv-x="702" unicode="&#230;" /><glyph d="M100 -9Q56 -9 31 22Q6 53 6 107Q6 156 20 205Q34 254 58 299Q82 344 114.5 382.5Q147 421 184.5 449.5Q222 478 262.5 494Q303 510 344 510Q370 510 393.5 502Q417 494 431 483H435L456 514H503L352 41L444 43L436 16Q425 13 410.5 8.5Q396 4 379.5 0.5Q363 -3 347 -5.5Q331 -8 318 -8Q299 -8 289.5 2.5Q280 13 288 39L320 137H317Q296 108 270.5 82Q245 56 217 35.5Q189 15 159.5 3Q130 -9 100 -9ZM121 43Q145 43 173 56.5Q201 70 229.5 92.5Q258 115 286 144.5Q314 174 339 206L412 435Q401 451 380 460.5Q359 470 336 470Q288 470 240.5 437.5Q193 405 156 354Q119 303 95.5 241Q72 179 72 121Q72 43 121 43ZM249 674 284 722 435 607 417 581Z" glyph-name="agrave" horiz-adv-x="507" unicode="&#224;" /><glyph d="M196 -11Q152 -11 118 1Q84 13 60.5 34Q37 55 25 83.5Q13 112 13 144Q13 222 63.5 281.5Q114 341 215 386Q200 414 189.5 445.5Q179 477 179 512Q179 555 195 590.5Q211 626 237 651Q263 676 297 689.5Q331 703 367 703Q426 703 462.5 671Q499 639 499 584Q499 547 483.5 517Q468 487 440.5 462.5Q413 438 375.5 417.5Q338 397 295 379L430 156Q459 194 480.5 236.5Q502 279 518 317L449 332L457 363H645L638 332L569 318Q548 272 519 220Q490 168 451 121L497 46L580 32L573 0H448L404 72Q362 35 311 12Q260 -11 196 -11ZM215 35Q266 35 307.5 54.5Q349 74 384 106L233 355Q155 317 120 267Q85 217 85 155Q85 104 117 69.5Q149 35 215 35ZM244 519Q245 487 254 460.5Q263 434 277 409Q353 441 394 481.5Q435 522 435 584Q435 620 415.5 641Q396 662 361 662Q336 662 314.5 651Q293 640 277.5 621Q262 602 253 575.5Q244 549 244 519Z" glyph-name="ampersand" horiz-adv-x="648" unicode="&amp;" /><glyph d="M100 -9Q56 -9 31 22Q6 53 6 107Q6 156 20 205Q34 254 58 299Q82 344 114.5 382.5Q147 421 184.5 449.5Q222 478 262.5 494Q303 510 344 510Q370 510 393.5 502Q417 494 431 483H435L456 514H503L352 41L444 43L436 16Q425 13 410.5 8.5Q396 4 379.5 0.5Q363 -3 347 -5.5Q331 -8 318 -8Q299 -8 289.5 2.5Q280 13 288 39L320 137H317Q296 108 270.5 82Q245 56 217 35.5Q189 15 159.5 3Q130 -9 100 -9ZM121 43Q145 43 173 56.5Q201 70 229.5 92.5Q258 115 286 144.5Q314 174 339 206L412 435Q401 451 380 460.5Q359 470 336 470Q288 470 240.5 437.5Q193 405 156 354Q119 303 95.5 241Q72 179 72 121Q72 43 121 43ZM365 613Q388 613 403.5 627.5Q419 642 419 668Q419 688 407 702.5Q395 717 372 717Q349 717 333.5 701.5Q318 686 318 660Q318 641 330 627Q342 613 365 613ZM364 582Q345 582 330 588.5Q315 595 304.5 606Q294 617 288.5 630.5Q283 644 283 659Q283 699 309.5 723.5Q336 748 374 748Q411 748 433 724Q455 700 455 670Q455 631 428 606.5Q401 582 364 582Z" glyph-name="aring" horiz-adv-x="507" unicode="&#229;" /><glyph d="M281 693H323L409 463H370L291 632L124 463H82Z" glyph-name="asciicircum" horiz-adv-x="382" unicode="^" /><glyph d="M36 260Q63 308 88.5 330Q114 352 148 352Q166 352 183 345Q200 338 216 330Q232 322 247 315Q262 308 274 308Q294 308 312.5 320.5Q331 333 351 362L380 346Q354 298 328.5 276Q303 254 269 254Q251 254 233.5 261Q216 268 200 276Q184 284 169 291Q154 298 142 298Q123 298 104.5 285.5Q86 273 66 244Z" glyph-name="asciitilde" horiz-adv-x="384" unicode="~" /><glyph d="M228 523 116 465 101 510 221 550 126 609 160 649 240 574 256 693H312L268 571L381 631L396 586L275 544L370 486L336 445L256 521L240 403H185Z" glyph-name="asterisk" horiz-adv-x="343" unicode="*" /><glyph d="M410 -149Q228 -149 135.5 -63.5Q43 22 43 179Q43 276 77 366Q111 456 172.5 525Q234 594 319.5 635Q405 676 508 676Q583 676 643 655Q703 634 745.5 594.5Q788 555 811 498Q834 441 834 368Q834 292 814.5 230Q795 168 760.5 124Q726 80 679.5 56Q633 32 579 32Q533 32 512 50.5Q491 69 489 97H484Q417 37 350 37Q302 37 271 69.5Q240 102 240 168Q240 228 260.5 284.5Q281 341 315.5 385Q350 429 395.5 455.5Q441 482 491 482Q533 482 555.5 470.5Q578 459 598 444L621 473H654L556 135Q551 117 551 106Q551 71 590 71Q632 71 668 92Q704 113 730 152Q756 191 771 245.5Q786 300 786 368Q786 496 714 567.5Q642 639 505 639Q409 639 332.5 601Q256 563 202.5 499Q149 435 120.5 351.5Q92 268 92 177Q92 -110 412 -110Q477 -110 535 -99Q593 -88 641 -70L635 -105Q590 -125 533.5 -137Q477 -149 410 -149ZM377 81Q407 81 436 95Q465 109 493 132L569 399Q557 418 538.5 430.5Q520 443 486 443Q448 443 415 419Q382 395 357.5 356Q333 317 319 267.5Q305 218 305 167Q305 81 377 81Z" glyph-name="at" horiz-adv-x="871" unicode="@" /><glyph d="M100 -9Q56 -9 31 22Q6 53 6 107Q6 156 20 205Q34 254 58 299Q82 344 114.5 382.5Q147 421 184.5 449.5Q222 478 262.5 494Q303 510 344 510Q370 510 393.5 502Q417 494 431 483H435L456 514H503L352 41L444 43L436 16Q425 13 410.5 8.5Q396 4 379.5 0.5Q363 -3 347 -5.5Q331 -8 318 -8Q299 -8 289.5 2.5Q280 13 288 39L320 137H317Q296 108 270.5 82Q245 56 217 35.5Q189 15 159.5 3Q130 -9 100 -9ZM121 43Q145 43 173 56.5Q201 70 229.5 92.5Q258 115 286 144.5Q314 174 339 206L412 435Q401 451 380 460.5Q359 470 336 470Q288 470 240.5 437.5Q193 405 156 354Q119 303 95.5 241Q72 179 72 121Q72 43 121 43ZM222 622Q243 661 264 681Q285 701 314 701Q329 701 343.5 695.5Q358 690 371.5 684Q385 678 397.5 672.5Q410 667 421 667Q437 667 450 676.5Q463 686 479 709L508 695Q487 657 465.5 636.5Q444 616 416 616Q401 616 386.5 621.5Q372 627 358.5 633Q345 639 332.5 644.5Q320 650 309 650Q293 650 279 640.5Q265 631 250 608Z" glyph-name="atilde" horiz-adv-x="507" unicode="&#227;" /><glyph d="M180 -10Q130 -10 84.5 2.5Q39 15 7 36L200 689L111 693L119 725L272 748L280 742L170 368H173Q224 436 279.5 478Q335 520 392 520Q440 520 468.5 486Q497 452 497 389Q497 314 472 242Q447 170 404 114Q361 58 303.5 24Q246 -10 180 -10ZM185 31Q237 31 282 62Q327 93 360 141.5Q393 190 412 250.5Q431 311 431 371Q431 417 416 443Q401 469 368 469Q345 469 318.5 456Q292 443 263.5 420Q235 397 205.5 364.5Q176 332 148 293L80 60Q100 47 126 39Q152 31 185 31Z" glyph-name="b" horiz-adv-x="506" unicode="b" /><glyph d="M129 733H174L243 -120H198Z" glyph-name="backslash" horiz-adv-x="320" unicode="\" /><glyph d="M114 733H159V-120H114Z" glyph-name="bar" horiz-adv-x="233" unicode="|" /><glyph d="M231 -120Q136 -115 98.5 -88.5Q61 -62 61 -21Q61 5 74.5 39.5Q88 74 104.5 109.5Q121 145 134.5 177Q148 209 148 231Q148 251 127 267Q106 283 44 293L55 341Q98 344 124 350.5Q150 357 165 367Q180 377 187 389Q194 401 197 416Q201 434 203 459.5Q205 485 206.5 512.5Q208 540 210 566.5Q212 593 217 614Q224 641 238.5 662.5Q253 684 279 699Q305 714 345.5 722.5Q386 731 444 733L436 702Q397 697 370.5 690.5Q344 684 327 674.5Q310 665 300 650Q290 635 285 614Q280 596 277.5 571.5Q275 547 272.5 520.5Q270 494 267.5 468.5Q265 443 260 423Q255 405 247.5 388.5Q240 372 223.5 358.5Q207 345 178.5 334Q150 323 104 316V312Q135 304 155.5 294Q176 284 187 273Q198 262 202.5 250Q207 238 207 225Q207 202 194.5 168.5Q182 135 167.5 100.5Q153 66 140.5 33.5Q128 1 128 -21Q128 -51 153 -65.5Q178 -80 239 -89Z" glyph-name="braceleft" horiz-adv-x="359" unicode="{" /><glyph d="M159 733Q207 730 239.5 722Q272 714 292 701Q312 688 320.5 671Q329 654 329 634Q329 608 315.5 573.5Q302 539 285.5 503.5Q269 468 255.5 436Q242 404 242 382Q242 362 263 346Q284 330 346 320L335 272Q292 269 266 262.5Q240 256 225 246.5Q210 237 203 224.5Q196 212 193 198Q188 179 186.5 153.5Q185 128 183.5 100.5Q182 73 180 46.5Q178 20 173 -1Q166 -28 151.5 -49.5Q137 -71 111 -86Q85 -101 44.5 -109.5Q4 -118 -54 -120L-46 -89Q-7 -84 19.5 -77.5Q46 -71 63 -61.5Q80 -52 90 -37Q100 -22 105 -1Q110 17 112.5 42Q115 67 117.5 93Q120 119 122.5 145Q125 171 130 191Q134 209 142 225Q150 241 166.5 254.5Q183 268 211.5 279Q240 290 286 297V301Q254 309 234 319Q214 329 203 340.5Q192 352 187.5 364Q183 376 183 388Q183 412 195.5 445Q208 478 222.5 513Q237 548 249.5 580Q262 612 262 634Q262 664 237 678.5Q212 693 151 702Z" glyph-name="braceright" horiz-adv-x="359" unicode="}" /><glyph d="M194 734H384L377 702L247 689L55 -76L179 -89L171 -120H-19Z" glyph-name="bracketleft" horiz-adv-x="298" unicode="[" /><glyph d="M-46 -89 84 -76 275 689 152 702 159 734H349L136 -120H-54Z" glyph-name="bracketright" horiz-adv-x="298" unicode="]" /><glyph d="M351 593Q301 593 269.5 624.5Q238 656 241 708H282Q284 675 304 657.5Q324 640 356 640Q388 640 412.5 657.5Q437 675 449 708H490Q478 656 440 624.5Q402 593 351 593Z" glyph-name="breve" horiz-adv-x="492" unicode="&#728;" /><glyph d="M363 735Q313 735 282 764.5Q251 794 252 840H294Q298 811 317 797Q336 783 368 783Q431 783 456 840H499Q486 792 450 763.5Q414 735 363 735Z" glyph-name="breve.uc" horiz-adv-x="492" /><glyph d="M115 279H161V-120H115ZM115 733H161V371H115Z" glyph-name="brokenbar" horiz-adv-x="235" unicode="&#166;" /><glyph d="M183 207Q159 207 138 215Q117 223 101.5 237Q86 251 77 271.5Q68 292 68 316Q68 346 79 371.5Q90 397 108.5 415.5Q127 434 151.5 444.5Q176 455 204 455Q252 455 285.5 425.5Q319 396 319 347Q319 317 308 291.5Q297 266 278.5 247Q260 228 235.5 217.5Q211 207 183 207Z" glyph-name="bullet" horiz-adv-x="360" unicode="&#8226;" /><glyph d="M361 391 374 466Q366 471 354 475Q342 479 325 479Q281 479 238 453Q195 427 160 383Q125 339 103.5 280Q82 221 82 154Q82 100 106.5 69Q131 38 187 38Q234 38 272.5 56.5Q311 75 347 100L340 62Q326 51 308.5 38.5Q291 26 269.5 15.5Q248 5 222.5 -2Q197 -9 168 -9Q130 -9 101.5 3Q73 15 54 36.5Q35 58 25.5 87Q16 116 16 150Q16 230 45 297.5Q74 365 120 414.5Q166 464 223 492Q280 520 336 520Q384 520 410 504.5Q436 489 436 462Q436 442 426 423.5Q416 405 405 391Z" glyph-name="c" horiz-adv-x="405" unicode="c" /><glyph d="M229 700 249 721 339 643 467 721 480 699 349 586H315Z" glyph-name="caron" horiz-adv-x="492" unicode="&#711;" /><glyph d="M292 592 346 746 406 729 324 583Z" glyph-name="caron.alt" horiz-adv-x="489" /><glyph d="M487 823 359 733H325L231 825L249 846L348 789L474 846Z" glyph-name="caron.uc" horiz-adv-x="492" /><glyph d="M54 -177Q116 -169 144.5 -156Q173 -143 173 -118Q173 -104 156.5 -95Q140 -86 95 -85L115 -2Q64 12 40 53Q16 94 16 150Q16 230 45 297.5Q74 365 120 414.5Q166 464 223 492Q280 520 336 520Q384 520 410 504.5Q436 489 436 462Q436 442 426 423.5Q416 405 405 391H361L374 466Q366 471 354 475Q342 479 325 479Q281 479 238 453Q195 427 160 383Q125 339 103.5 280Q82 221 82 154Q82 100 106.5 69Q131 38 187 38Q234 38 272.5 56.5Q311 75 347 100L340 62Q326 51 308.5 38.5Q291 26 269.5 15.5Q248 5 222.5 -2Q197 -9 168 -9Q163 -9 159.5 -9Q156 -9 150 -8L140 -49Q231 -55 231 -110Q231 -152 186 -175.5Q141 -199 47 -206Z" glyph-name="ccedilla" horiz-adv-x="405" unicode="&#231;" /><glyph d="M108 -177Q170 -169 198.5 -156Q227 -143 227 -118Q227 -104 210.5 -95Q194 -86 149 -85L170 0H206L194 -49Q285 -55 285 -110Q285 -152 240 -175.5Q195 -199 101 -206Z" glyph-name="cedilla" horiz-adv-x="492" unicode="&#184;" /><glyph d="M137 -5Q79 7 48 49Q17 91 17 150Q17 247 59.5 323.5Q102 400 166 449Q240 506 324 517L351 594H395L368 520Q413 518 437 503Q461 488 461 462Q461 442 451 423.5Q441 405 429 391H389L403 463Q396 468 384 473.5Q372 479 354 480L196 37H199Q249 37 292 56Q335 75 372 100L365 63Q352 52 332.5 39Q313 26 289 15.5Q265 5 237.5 -2Q210 -9 180 -9H179L140 -119H97ZM84 154Q84 112 100.5 82.5Q117 53 154 42L309 475Q265 466 224.5 437.5Q184 409 152.5 367Q121 325 102.5 270.5Q84 216 84 154Z" glyph-name="cent" horiz-adv-x="429" unicode="&#162;" /><glyph d="M208 610 340 722H374L460 608L440 587L350 666L222 587Z" glyph-name="circumflex" horiz-adv-x="492" unicode="&#710;" /><glyph d="M223 751 351 841H385L479 749L461 728L362 786L236 728Z" glyph-name="circumflex.uc" horiz-adv-x="492" /><glyph d="M43 -12Q23 -12 10 1Q-3 14 -3 31Q-3 54 13 68.5Q29 83 49 83Q69 83 81.5 70Q94 57 94 39Q94 17 78.5 2.5Q63 -12 43 -12ZM120 296Q100 296 87.5 308.5Q75 321 75 338Q75 361 90.5 375.5Q106 390 126 390Q146 390 158.5 377Q171 364 171 346Q171 324 155.5 310Q140 296 120 296Z" glyph-name="colon" horiz-adv-x="194" unicode=":" /><glyph d="M-45 -108Q-25 -65 -10.5 -20.5Q4 24 15 77H88Q60 -29 -1 -108Z" glyph-name="comma" horiz-adv-x="183" unicode="," /><glyph d="M429 158Q389 158 355.5 169.5Q322 181 298 203.5Q274 226 260.5 260.5Q247 295 247 342Q247 393 262 430Q277 467 302.5 491Q328 515 362.5 526Q397 537 435 537Q468 537 495 532Q522 527 541 521L546 428H518L498 492Q486 497 470 501Q454 505 431 505Q371 505 340.5 464.5Q310 424 310 349Q310 272 339 230.5Q368 189 433 189Q477 189 499 200L520 274H550L543 177Q522 169 493.5 163.5Q465 158 429 158ZM419 20Q488 20 545.5 45.5Q603 71 644.5 115Q686 159 709.5 218Q733 277 733 345Q733 412 709.5 471Q686 530 644.5 574Q603 618 545.5 643.5Q488 669 419 669Q350 669 292.5 643.5Q235 618 193.5 574Q152 530 129 471Q106 412 106 345Q106 277 129 218Q152 159 193.5 115Q235 71 292.5 45.5Q350 20 419 20ZM419 -13Q344 -13 279 15Q214 43 167 92Q120 141 93 206Q66 271 66 345Q66 419 93 484Q120 549 167 597Q214 645 279 673Q344 701 419 701Q494 701 559 673Q624 645 672 597Q720 549 747.5 484Q775 419 775 345Q775 271 747.5 206Q720 141 672 92Q624 43 559 15Q494 -13 419 -13Z" glyph-name="copyright" horiz-adv-x="790" unicode="&#169;" /><glyph d="M115 -9Q68 -9 40 24Q12 57 12 119Q12 192 40 263.5Q68 335 114 392Q160 449 219.5 484.5Q279 520 342 520Q375 520 398.5 512Q422 504 439 495L495 689L406 693L414 725L567 748L575 742L374 41L465 43L457 16Q446 13 431.5 8.5Q417 4 401 0.5Q385 -3 369 -5.5Q353 -8 340 -8Q321 -8 311.5 2.5Q302 13 310 39L342 144H338Q317 116 290.5 88.5Q264 61 235.5 39.5Q207 18 176 4.5Q145 -9 115 -9ZM138 42Q162 42 190 56Q218 70 246.5 93Q275 116 303 146Q331 176 356 208L424 444Q411 457 389.5 468.5Q368 480 339 480Q286 480 238.5 448Q191 416 155.5 365.5Q120 315 99 254.5Q78 194 78 137Q78 93 91.5 67.5Q105 42 138 42Z" glyph-name="d" horiz-adv-x="521" unicode="d" /><glyph d="M97 518 242 501 277 693H339L278 502L431 518L415 454L270 469L251 339L240 292L151 0H122L178 297L189 344L233 469L82 454Z" glyph-name="dagger" horiz-adv-x="391" unicode="&#8224;" /><glyph d="M96 518 241 502 276 693H339L277 501L430 518L414 454L269 469L257 361L249 327L209 224L360 239L344 176L200 191L166 0H103L164 191L11 176L27 239L171 223L184 332L192 366L232 469L81 454Z" glyph-name="daggerdbl" horiz-adv-x="390" unicode="&#8225;" /><glyph d="M268 461Q316 461 347.5 495.5Q379 530 379 585Q379 604 373 621.5Q367 639 355.5 652.5Q344 666 326.5 674Q309 682 286 682Q238 682 206.5 648Q175 614 175 559Q175 541 180.5 523Q186 505 197.5 491.5Q209 478 226.5 469.5Q244 461 268 461ZM267 425Q235 425 209.5 436Q184 447 166 465.5Q148 484 138.5 508Q129 532 129 558Q129 592 141.5 621.5Q154 651 176 672.5Q198 694 227 706Q256 718 288 718Q320 718 345.5 707Q371 696 389 677.5Q407 659 416.5 635Q426 611 426 586Q426 552 413.5 522.5Q401 493 379 471.5Q357 450 328.5 437.5Q300 425 267 425Z" glyph-name="degree" horiz-adv-x="396" unicode="&#176;" /><glyph d="M275 629Q258 629 246.5 641Q235 653 235 667Q235 687 248 699.5Q261 712 278 712Q296 712 307 700.5Q318 689 318 675Q318 656 305.5 642.5Q293 629 275 629ZM426 629Q409 629 397.5 641Q386 653 386 667Q386 687 399 699.5Q412 712 429 712Q447 712 458 700.5Q469 689 469 675Q469 656 456.5 642.5Q444 629 426 629Z" glyph-name="dieresis" horiz-adv-x="492" unicode="&#168;" /><glyph d="M282 741Q265 741 253.5 753Q242 765 242 779Q242 798 255 811Q268 824 285 824Q303 824 314 812.5Q325 801 325 786Q325 767 312.5 754Q300 741 282 741ZM436 741Q419 741 407.5 753Q396 765 396 779Q396 798 409 811Q422 824 439 824Q457 824 468 812.5Q479 801 479 786Q479 767 466.5 754Q454 741 436 741Z" glyph-name="dieresis.uc" horiz-adv-x="492" /><glyph d="M275 149Q255 149 241.5 163Q228 177 228 195Q228 215 241.5 228.5Q255 242 275 242Q295 242 308.5 228.5Q322 215 322 195Q322 177 308.5 163Q295 149 275 149ZM80 368H471V322H80ZM275 449Q255 449 241.5 462.5Q228 476 228 495Q228 515 241.5 528Q255 541 275 541Q295 541 308.5 528Q322 515 322 495Q322 476 308.5 462.5Q295 449 275 449Z" glyph-name="divide" horiz-adv-x="511" unicode="&#247;" /><glyph d="M116 -5Q76 0 45 11Q14 22 -9 33L16 172H52L54 69Q68 59 87 51.5Q106 44 132 39L240 340L216 355Q193 369 173.5 384.5Q154 400 139.5 418.5Q125 437 117 459.5Q109 482 109 511Q109 550 124 585Q139 620 168 646.5Q197 673 239.5 688.5Q282 704 337 704Q345 704 353 703.5Q361 703 369 703L392 765H435L411 698Q442 693 464 685Q486 677 502 669L487 544H452L445 634Q437 639 425 644.5Q413 650 395 654L297 381L316 370Q343 354 365 337.5Q387 321 403 301.5Q419 282 428 258Q437 234 437 203Q437 163 422 125Q407 87 376.5 57Q346 27 298.5 8.5Q251 -10 187 -10Q179 -10 172 -9.5Q165 -9 157 -9L119 -117H76ZM372 189Q372 210 366.5 227Q361 244 349.5 258.5Q338 273 319.5 287Q301 301 275 318L173 34H194Q240 34 273.5 47Q307 60 329 81.5Q351 103 361.5 131Q372 159 372 189ZM172 527Q172 486 193 459Q214 432 258 405L262 402L354 660Q349 661 342.5 661Q336 661 330 661Q257 661 214.5 624Q172 587 172 527Z" glyph-name="dollar" horiz-adv-x="486" unicode="$" /><glyph d="M345 631Q327 631 316.5 642Q306 653 306 668Q306 688 319 700.5Q332 713 349 713Q367 713 377.5 702Q388 691 388 676Q388 656 375 643.5Q362 631 345 631Z" glyph-name="dotaccent" horiz-adv-x="492" unicode="&#729;" /><glyph d="M359 741Q341 741 330.5 752.5Q320 764 320 779Q320 798 333 811Q346 824 364 824Q382 824 392.5 812.5Q403 801 403 786Q403 767 390 754Q377 741 359 741Z" glyph-name="dotaccent.uc" horiz-adv-x="492" /><glyph d="M62 -8Q43 -8 33.5 2.5Q24 13 32 39L157 467L70 466L78 498L230 521L237 514L96 41L188 43L180 16Q169 13 154.5 8.5Q140 4 123.5 0.5Q107 -3 91 -5.5Q75 -8 62 -8Z" glyph-name="dotlessi" horiz-adv-x="249" unicode="&#305;" /><glyph d="M167 -9Q130 -9 101.5 3Q73 15 54 36.5Q35 58 25.5 87Q16 116 16 150Q16 229 45 296.5Q74 364 118.5 413.5Q163 463 217 491.5Q271 520 322 520Q371 520 402.5 497Q434 474 434 425Q434 374 405 340Q376 306 328 283.5Q280 261 217.5 248.5Q155 236 88 228Q82 193 82 158Q82 101 106 69.5Q130 38 187 38Q238 38 282 58.5Q326 79 359 106L353 67Q340 55 321.5 41.5Q303 28 279 17Q255 6 226.5 -1.5Q198 -9 167 -9ZM315 479Q282 479 249 463Q216 447 187 418.5Q158 390 134.5 350.5Q111 311 97 265Q152 272 201.5 282.5Q251 293 288.5 311Q326 329 348 355.5Q370 382 370 422Q370 448 355.5 463.5Q341 479 315 479Z" glyph-name="e" horiz-adv-x="427" unicode="e" /><glyph d="M249 607 426 724 450 672 261 581ZM167 -9Q130 -9 101.5 3Q73 15 54 36.5Q35 58 25.5 87Q16 116 16 150Q16 229 45 296.5Q74 364 118.5 413.5Q163 463 217 491.5Q271 520 322 520Q371 520 402.5 497Q434 474 434 425Q434 374 405 340Q376 306 328 283.5Q280 261 217.5 248.5Q155 236 88 228Q82 193 82 158Q82 101 106 69.5Q130 38 187 38Q238 38 282 58.5Q326 79 359 106L353 67Q340 55 321.5 41.5Q303 28 279 17Q255 6 226.5 -1.5Q198 -9 167 -9ZM315 479Q282 479 249 463Q216 447 187 418.5Q158 390 134.5 350.5Q111 311 97 265Q152 272 201.5 282.5Q251 293 288.5 311Q326 329 348 355.5Q370 382 370 422Q370 448 355.5 463.5Q341 479 315 479Z" glyph-name="eacute" horiz-adv-x="427" unicode="&#233;" /><glyph d="M196 610 328 722H362L448 608L428 587L338 666L210 587ZM167 -9Q130 -9 101.5 3Q73 15 54 36.5Q35 58 25.5 87Q16 116 16 150Q16 229 45 296.5Q74 364 118.5 413.5Q163 463 217 491.5Q271 520 322 520Q371 520 402.5 497Q434 474 434 425Q434 374 405 340Q376 306 328 283.5Q280 261 217.5 248.5Q155 236 88 228Q82 193 82 158Q82 101 106 69.5Q130 38 187 38Q238 38 282 58.5Q326 79 359 106L353 67Q340 55 321.5 41.5Q303 28 279 17Q255 6 226.5 -1.5Q198 -9 167 -9ZM315 479Q282 479 249 463Q216 447 187 418.5Q158 390 134.5 350.5Q111 311 97 265Q152 272 201.5 282.5Q251 293 288.5 311Q326 329 348 355.5Q370 382 370 422Q370 448 355.5 463.5Q341 479 315 479Z" glyph-name="ecircumflex" horiz-adv-x="427" unicode="&#234;" /><glyph d="M256 629Q239 629 227.5 641Q216 653 216 667Q216 687 229 699.5Q242 712 259 712Q277 712 288 700.5Q299 689 299 675Q299 656 286.5 642.5Q274 629 256 629ZM407 629Q390 629 378.5 641Q367 653 367 667Q367 687 380 699.5Q393 712 410 712Q428 712 439 700.5Q450 689 450 675Q450 656 437.5 642.5Q425 629 407 629ZM167 -9Q130 -9 101.5 3Q73 15 54 36.5Q35 58 25.5 87Q16 116 16 150Q16 229 45 296.5Q74 364 118.5 413.5Q163 463 217 491.5Q271 520 322 520Q371 520 402.5 497Q434 474 434 425Q434 374 405 340Q376 306 328 283.5Q280 261 217.5 248.5Q155 236 88 228Q82 193 82 158Q82 101 106 69.5Q130 38 187 38Q238 38 282 58.5Q326 79 359 106L353 67Q340 55 321.5 41.5Q303 28 279 17Q255 6 226.5 -1.5Q198 -9 167 -9ZM315 479Q282 479 249 463Q216 447 187 418.5Q158 390 134.5 350.5Q111 311 97 265Q152 272 201.5 282.5Q251 293 288.5 311Q326 329 348 355.5Q370 382 370 422Q370 448 355.5 463.5Q341 479 315 479Z" glyph-name="edieresis" horiz-adv-x="427" unicode="&#235;" /><glyph d="M167 -9Q130 -9 101.5 3Q73 15 54 36.5Q35 58 25.5 87Q16 116 16 150Q16 229 45 296.5Q74 364 118.5 413.5Q163 463 217 491.5Q271 520 322 520Q371 520 402.5 497Q434 474 434 425Q434 374 405 340Q376 306 328 283.5Q280 261 217.5 248.5Q155 236 88 228Q82 193 82 158Q82 101 106 69.5Q130 38 187 38Q238 38 282 58.5Q326 79 359 106L353 67Q340 55 321.5 41.5Q303 28 279 17Q255 6 226.5 -1.5Q198 -9 167 -9ZM315 479Q282 479 249 463Q216 447 187 418.5Q158 390 134.5 350.5Q111 311 97 265Q152 272 201.5 282.5Q251 293 288.5 311Q326 329 348 355.5Q370 382 370 422Q370 448 355.5 463.5Q341 479 315 479ZM222 674 257 722 408 607 390 581Z" glyph-name="egrave" horiz-adv-x="427" unicode="&#232;" /><glyph d="M239 -12Q187 -12 146 1Q105 14 77 36.5Q49 59 34 89Q19 119 19 152Q19 200 41 235Q63 270 96 295Q129 320 167.5 336Q206 352 239 362Q188 390 161 426.5Q134 463 134 513Q134 554 151 589Q168 624 198.5 649.5Q229 675 271 689.5Q313 704 363 704Q408 704 443 692.5Q478 681 502 661Q526 641 538.5 614Q551 587 551 556Q551 515 534.5 484Q518 453 491 429.5Q464 406 430 390.5Q396 375 362 365Q427 333 460.5 293.5Q494 254 494 197Q494 152 476.5 113.5Q459 75 426 47.5Q393 20 346 4Q299 -12 239 -12ZM244 30Q289 30 322.5 42Q356 54 378.5 75.5Q401 97 412.5 125.5Q424 154 424 187Q424 212 416 232.5Q408 253 390 271Q372 289 344 305.5Q316 322 277 340Q242 329 207.5 313.5Q173 298 145.5 276.5Q118 255 101 224.5Q84 194 84 153Q84 102 122.5 66Q161 30 244 30ZM323 388Q357 398 387 412.5Q417 427 439 447.5Q461 468 473.5 495Q486 522 486 557Q486 607 451.5 635Q417 663 360 663Q285 663 243 623.5Q201 584 201 521Q201 476 229.5 446Q258 416 323 388Z" glyph-name="eight" horiz-adv-x="548" unicode="8" /><glyph d="M38 -12Q18 -12 5 1Q-8 14 -8 31Q-8 54 8 68.5Q24 83 44 83Q64 83 76.5 70Q89 57 89 39Q89 17 73.5 2.5Q58 -12 38 -12ZM234 -12Q214 -12 201.5 1Q189 14 189 31Q189 54 204.5 68.5Q220 83 240 83Q260 83 272.5 70Q285 57 285 39Q285 17 269.5 2.5Q254 -12 234 -12ZM431 -12Q411 -12 398.5 1Q386 14 386 31Q386 54 401.5 68.5Q417 83 437 83Q457 83 469.5 70Q482 57 482 39Q482 17 466.5 2.5Q451 -12 431 -12Z" glyph-name="ellipsis" horiz-adv-x="578" unicode="&#8230;" /><glyph d="M50 306H633L624 267H41Z" glyph-name="emdash" horiz-adv-x="653" unicode="&#8212;" /><glyph d="M50 306H367L357 267H41Z" glyph-name="endash" horiz-adv-x="387" unicode="&#8211;" /><glyph d="M78 258H447V212H78ZM78 415H447V369H78Z" glyph-name="equal" horiz-adv-x="493" unicode="=" /><glyph d="M302 658Q283 676 261.5 692.5Q240 709 215 726L236 757Q269 741 298.5 722Q328 703 354 680L457 725L470 693L381 654Q427 604 453 539.5Q479 475 479 390Q479 307 456 234.5Q433 162 392.5 108Q352 54 297.5 22.5Q243 -9 180 -9Q142 -9 112 4Q82 17 61 40Q40 63 29 95Q18 127 18 165Q18 242 45 307Q72 372 114 419.5Q156 467 207.5 493.5Q259 520 308 520Q338 520 360.5 513.5Q383 507 400 494H404Q380 570 328 631L185 569L172 601ZM185 32Q228 32 269.5 58Q311 84 343 131.5Q375 179 394.5 245.5Q414 312 414 393Q414 405 413.5 413.5Q413 422 411 433Q397 453 369.5 466Q342 479 307 479Q265 479 224.5 452.5Q184 426 152.5 381Q121 336 102 277Q83 218 83 152Q83 95 109 63.5Q135 32 185 32Z" glyph-name="eth" horiz-adv-x="496" unicode="&#240;" /><glyph d="M59 -11Q39 -11 28 2Q17 15 17 31Q17 52 31.5 65.5Q46 79 65 79Q85 79 96 66.5Q107 54 107 38Q107 17 92.5 3Q78 -11 59 -11ZM184 693H258L115 178H75Z" glyph-name="exclam" horiz-adv-x="223" unicode="!" /><glyph d="M62 -120H-12L132 395H171ZM188 584Q207 584 218.5 571Q230 558 230 543Q230 522 215.5 508.5Q201 495 181 495Q162 495 150.5 507Q139 519 139 536Q139 556 153.5 570Q168 584 188 584Z" glyph-name="exclamdown" horiz-adv-x="223" unicode="&#161;" /><glyph d="M80 496 152 512Q168 578 194 622.5Q220 667 251 694Q282 721 315.5 733Q349 745 382 745Q426 745 451 731Q476 717 476 688Q476 673 467.5 656Q459 639 451 630H408L419 692Q404 704 376 704Q320 704 281 657.5Q242 611 217 511H348L337 466H206L98 9Q74 -93 31 -146Q-12 -199 -81 -199Q-112 -199 -134.5 -186Q-157 -173 -157 -149Q-157 -131 -148.5 -117Q-140 -103 -129 -95H-95L-104 -155Q-95 -158 -82 -158Q-64 -158 -47.5 -151.5Q-31 -145 -16 -128.5Q-1 -112 11.5 -83.5Q24 -55 34 -11L141 466H73Z" glyph-name="f" horiz-adv-x="292" unicode="f" /><glyph d="M80 496 151 512Q167 576 192.5 619Q218 662 249.5 688Q281 714 316.5 725Q352 736 388 736Q429 736 459.5 724.5Q490 713 508 695Q539 724 573 736Q607 748 640 748Q684 748 709 734Q734 720 734 691Q734 676 725.5 659Q717 642 709 633H666L677 695Q662 707 634 707Q578 707 539 660Q500 613 474 511H606L595 466H463L356 14Q333 -83 293.5 -135Q254 -187 187 -187Q157 -187 135 -174Q113 -161 113 -136Q113 -118 121.5 -104.5Q130 -91 141 -83H175L166 -142Q176 -146 187 -146Q203 -146 218 -139Q233 -132 247 -115.5Q261 -99 273 -71Q285 -43 294 -1L399 466H206L98 9Q74 -93 31 -146Q-12 -199 -81 -199Q-112 -199 -134.5 -186Q-157 -173 -157 -149Q-157 -131 -148.5 -117Q-140 -103 -129 -95H-95L-104 -155Q-95 -158 -82 -158Q-64 -158 -47.5 -151.5Q-31 -145 -16 -128.5Q-1 -112 11.5 -83.5Q24 -55 34 -11L141 466H73ZM410 511Q433 602 473 655Q458 672 435.5 683.5Q413 695 382 695Q321 695 280.5 651.5Q240 608 217 511Z" glyph-name="f_f" horiz-adv-x="550" unicode="&#64256;" /><glyph d="M572 -8Q553 -8 543.5 2.5Q534 13 542 39L665 466H463L356 14Q333 -83 293.5 -135Q254 -187 187 -187Q157 -187 135 -174Q113 -161 113 -136Q113 -118 121.5 -104.5Q130 -91 141 -83H175L166 -142Q176 -146 187 -146Q203 -146 218 -139Q233 -132 247 -115.5Q261 -99 273 -71Q285 -43 294 -1L398 466H206L98 9Q74 -93 31 -146Q-12 -199 -81 -199Q-112 -199 -134.5 -186Q-157 -173 -157 -149Q-157 -131 -148.5 -117Q-140 -103 -129 -95H-95L-104 -155Q-95 -158 -82 -158Q-64 -158 -47.5 -151.5Q-31 -145 -16 -128.5Q-1 -112 11.5 -83.5Q24 -55 34 -11L141 466H73L80 496L151 512Q167 576 192.5 619Q218 662 249.5 688Q281 714 316.5 725Q352 736 388 736Q430 736 460.5 724.5Q491 713 509 694Q541 721 575.5 733Q610 745 645 745Q689 745 715.5 731Q742 717 742 688Q742 673 733.5 656Q725 639 717 630H670L680 692Q668 704 639 704Q522 704 474 511H735L742 504L606 41L698 43L690 16Q679 13 664 8.5Q649 4 633 0.5Q617 -3 601 -5.5Q585 -8 572 -8ZM408 511Q420 557 436.5 592.5Q453 628 473 655Q458 672 435.5 683.5Q413 695 382 695Q321 695 280.5 651.5Q240 608 217 511Z" glyph-name="f_f_i" horiz-adv-x="756" unicode="&#64259;" /><glyph d="M574 -8Q555 -8 545.5 2.5Q536 13 544 39L724 668Q707 685 688 694.5Q669 704 644 704Q581 704 540 656Q499 608 474 511H600L589 466H463L356 14Q333 -83 293.5 -135Q254 -187 187 -187Q157 -187 135 -174Q113 -161 113 -136Q113 -118 121.5 -104.5Q130 -91 141 -83H175L166 -142Q176 -146 187 -146Q203 -146 218 -139Q233 -132 247 -115.5Q261 -99 273 -71Q285 -43 294 -1L399 466H206L98 9Q74 -93 31 -146Q-12 -199 -81 -199Q-112 -199 -134.5 -186Q-157 -173 -157 -149Q-157 -131 -148.5 -117Q-140 -103 -129 -95H-95L-104 -155Q-95 -158 -82 -158Q-64 -158 -47.5 -151.5Q-31 -145 -16 -128.5Q-1 -112 11.5 -83.5Q24 -55 34 -11L141 466H73L80 496L151 512Q167 576 192.5 619Q218 662 249.5 688Q281 714 316.5 725Q352 736 388 736Q430 736 461 724.5Q492 713 509 694Q541 721 577 733Q613 745 651 745Q680 745 705.5 737.5Q731 730 749 716L800 747L810 742L608 40L704 42L696 15Q685 11 669.5 7Q654 3 637 -0.5Q620 -4 603.5 -6Q587 -8 574 -8ZM382 695Q321 695 280.5 651.5Q240 608 217 511H410Q434 601 473 654Q458 672 436 683.5Q414 695 382 695Z" glyph-name="f_f_l" horiz-adv-x="768" unicode="&#64260;" /><glyph d="M313 -8Q294 -8 284.5 2.5Q275 13 283 39L406 466H206L98 9Q74 -93 31 -146Q-12 -199 -81 -199Q-112 -199 -134.5 -186Q-157 -173 -157 -149Q-157 -131 -148.5 -117Q-140 -103 -129 -95H-95L-104 -155Q-95 -158 -82 -158Q-64 -158 -47.5 -151.5Q-31 -145 -16 -128.5Q-1 -112 11.5 -83.5Q24 -55 34 -11L141 466H73L80 496L152 512Q168 577 194 621.5Q220 666 251.5 693.5Q283 721 318 733Q353 745 387 745Q431 745 457.5 731Q484 717 484 688Q484 673 475.5 656Q467 639 459 630H412L423 692Q417 697 407 700.5Q397 704 381 704Q265 704 217 511H477L484 504L347 40L439 42L431 15Q420 12 405.5 8Q391 4 374.5 0.5Q358 -3 342 -5.5Q326 -8 313 -8Z" glyph-name="f_i" horiz-adv-x="498" unicode="&#64257;" /><glyph d="M316 -8Q297 -8 287.5 2.5Q278 13 286 39L465 668Q449 685 430 694.5Q411 704 386 704Q322 704 281.5 656Q241 608 217 511H341L330 466H206L98 9Q74 -93 31 -146Q-12 -199 -81 -199Q-112 -199 -134.5 -186Q-157 -173 -157 -149Q-157 -131 -148.5 -117Q-140 -103 -129 -95H-95L-104 -155Q-95 -158 -82 -158Q-64 -158 -47.5 -151.5Q-31 -145 -16 -128.5Q-1 -112 11.5 -83.5Q24 -55 34 -11L141 466H73L80 496L152 512Q168 577 193.5 621.5Q219 666 250.5 693.5Q282 721 318 733Q354 745 392 745Q421 745 447 737.5Q473 730 491 716L542 747L552 742L350 40L446 42L438 15Q427 11 411.5 7Q396 3 379 -0.5Q362 -4 345.5 -6Q329 -8 316 -8Z" glyph-name="f_l" horiz-adv-x="510" unicode="&#64258;" /><glyph d="M153 -9Q91 -9 46.5 8Q2 25 -30 46L-20 82Q13 65 52 53Q91 41 145 41Q196 41 236.5 55.5Q277 70 305.5 97Q334 124 349 161.5Q364 199 364 246Q364 306 328.5 341.5Q293 377 220 377Q180 377 148 370.5Q116 364 92 359L194 693H526L505 634H223L154 410Q171 415 193.5 419.5Q216 424 254 424Q296 424 329.5 412Q363 400 386.5 378Q410 356 422.5 325Q435 294 435 257Q435 201 416 152.5Q397 104 360.5 68Q324 32 271.5 11.5Q219 -9 153 -9Z" glyph-name="five" horiz-adv-x="478" unicode="5" /><glyph d="M195 549Q205 592 222.5 621.5Q240 651 262 669Q284 687 310.5 695Q337 703 367 703Q396 703 415 697.5Q434 692 446 685L440 649Q426 654 411 656Q396 658 376 658Q333 658 304 632Q275 606 257 536L227 417H353L343 373H216L109 -53Q92 -119 56 -147Q20 -175 -30 -175Q-56 -175 -73 -169Q-90 -163 -99 -158L-93 -122Q-84 -125 -72 -127.5Q-60 -130 -43 -130Q-10 -130 12.5 -110.5Q35 -91 47 -42L151 373H66L77 417H162Z" glyph-name="florin" horiz-adv-x="350" unicode="&#402;" /><glyph d="M195 32 293 44 334 204H9L21 248L469 693H526L413 252H530L518 204H401L360 44L451 32L443 0H187ZM346 252 435 597H432L86 254V252Z" glyph-name="four" horiz-adv-x="554" unicode="4" /><glyph d="M422 713H472L-181 -40H-231Z" glyph-name="fraction" horiz-adv-x="197" unicode="&#8260;" /><glyph d="M141 -198Q87 -198 43.5 -189.5Q0 -181 -31 -165.5Q-62 -150 -79 -128.5Q-96 -107 -96 -81Q-96 -55 -82 -33Q-68 -11 -43 7.5Q-18 26 15 41.5Q48 57 86 69Q81 78 77.5 87.5Q74 97 74 111Q74 140 86.5 163.5Q99 187 116 204Q90 219 75.5 245.5Q61 272 61 307Q61 354 79.5 393.5Q98 433 127.5 461Q157 489 195 504.5Q233 520 273 520Q291 520 307.5 516.5Q324 513 338 508L487 521L473 471L378 480Q409 449 409 396Q409 349 391 309.5Q373 270 343.5 242Q314 214 276 198.5Q238 183 198 183Q167 183 142 192Q135 183 129 170Q123 157 123 141Q123 131 126.5 123Q130 115 141 107.5Q152 100 172 91.5Q192 83 224 72Q263 58 290 45Q317 32 334.5 17Q352 2 360 -15.5Q368 -33 368 -56Q368 -116 311 -157Q254 -198 141 -198ZM208 15Q179 25 157.5 33.5Q136 42 118 50Q87 39 60 25.5Q33 12 12.5 -3.5Q-8 -19 -19.5 -37Q-31 -55 -31 -74Q-31 -114 14.5 -136Q60 -158 146 -158Q186 -158 216.5 -150.5Q247 -143 267 -130.5Q287 -118 297 -101.5Q307 -85 307 -68Q307 -57 303 -47Q299 -37 288 -27Q277 -17 258 -7Q239 3 208 15ZM202 221Q232 221 259 234Q286 247 305.5 271Q325 295 336.5 327.5Q348 360 348 399Q348 439 328.5 460.5Q309 482 269 482Q239 482 212 469Q185 456 165.5 432Q146 408 134.5 375.5Q123 343 123 304Q123 264 142.5 242.5Q162 221 202 221Z" glyph-name="g" horiz-adv-x="430" unicode="g" /><glyph d="M404 -200Q381 -200 365.5 -187Q350 -174 351 -150Q351 -130 362.5 -111Q374 -92 384 -83H425L409 -154Q448 -156 490.5 -125.5Q533 -95 587 -38Q591 33 593 98Q595 163 594 225Q593 294 590 355Q587 416 580 468L504 466L512 498Q531 506 558.5 512.5Q586 519 609 519Q628 519 636 510Q644 501 646 476Q651 433 652.5 386Q654 339 655 289Q656 225 654 159.5Q652 94 647 34H651Q689 83 728.5 142Q768 201 801 260.5Q834 320 858 374.5Q882 429 889 468L806 466L812 495Q831 505 858 512.5Q885 520 911 520Q947 520 945 487Q945 451 918 389Q891 327 849.5 256Q808 185 758.5 114Q709 43 664 -11Q582 -108 521 -154Q460 -200 404 -200ZM131 -198Q25 -198 -35.5 -166Q-96 -134 -96 -81Q-96 -55 -82 -33Q-68 -11 -43 7.5Q-18 26 15 41.5Q48 57 86 69Q81 78 77.5 87.5Q74 97 74 111Q74 140 86.5 163.5Q99 187 116 204Q90 219 75.5 245.5Q61 272 61 307Q61 354 79.5 393.5Q98 433 127.5 461Q157 489 195 504.5Q233 520 273 520Q291 520 307.5 516.5Q324 513 338 508L487 521L473 471L378 480Q409 449 409 396Q409 349 391 309.5Q373 270 343.5 242Q314 214 276 198.5Q238 183 198 183Q167 183 142 192Q135 183 129 170Q123 157 123 141Q123 131 126.5 123Q130 115 141 107.5Q152 100 172 91.5Q192 83 224 72Q260 59 285 46Q310 33 325.5 18Q341 3 347.5 -15Q354 -33 354 -56Q354 -86 339.5 -112Q325 -138 297 -157Q269 -176 227.5 -187Q186 -198 131 -198ZM208 15Q179 25 157.5 33.5Q136 42 118 50Q87 39 60 25.5Q33 12 12.5 -3.5Q-8 -19 -19.5 -37Q-31 -55 -31 -74Q-31 -114 10.5 -136Q52 -158 137 -158Q176 -158 205 -150.5Q234 -143 253.5 -130.5Q273 -118 283 -101.5Q293 -85 293 -68Q293 -57 290 -46.5Q287 -36 278 -26Q269 -16 252.5 -6Q236 4 208 15ZM202 221Q232 221 259 234Q286 247 305.5 271Q325 295 336.5 327.5Q348 360 348 399Q348 439 328.5 460.5Q309 482 269 482Q239 482 212 469Q185 456 165.5 432Q146 408 134.5 375.5Q123 343 123 304Q123 264 142.5 242.5Q162 221 202 221Z" glyph-name="g_y" horiz-adv-x="913" /><glyph d="M-93 -199Q-125 -199 -147 -186.5Q-169 -174 -169 -148Q-169 -130 -160 -116.5Q-151 -103 -142 -95H-106L-116 -154Q-108 -158 -95 -158Q-77 -158 -60.5 -151.5Q-44 -145 -29.5 -128.5Q-15 -112 -2.5 -83.5Q10 -55 21 -11L140 496Q156 567 183.5 614.5Q211 662 244 691Q277 720 314 732.5Q351 745 388 745Q417 745 442 737.5Q467 730 486 716Q505 702 515.5 681.5Q526 661 526 634Q526 607 511 581Q496 555 474 530.5Q452 506 426 482.5Q400 459 378 437.5Q356 416 341 396Q326 376 326 358Q326 333 343.5 315.5Q361 298 400 267Q418 253 434.5 239Q451 225 463.5 209Q476 193 483 175Q490 157 490 134Q490 102 477 76Q464 50 441.5 31Q419 12 388 1.5Q357 -9 321 -9Q292 -9 266.5 -4.5Q241 0 221.5 9.5Q202 19 190.5 33Q179 47 179 67Q179 87 189 102.5Q199 118 211 128H253L239 56Q250 45 269.5 38Q289 31 318 31Q370 31 400.5 56Q431 81 431 123Q431 139 425.5 151.5Q420 164 409.5 175.5Q399 187 384.5 199Q370 211 352 225Q332 240 317 252.5Q302 265 292 277.5Q282 290 276.5 304.5Q271 319 271 338Q271 362 285 385.5Q299 409 320 432.5Q341 456 365.5 480Q390 504 411 528.5Q432 553 446 578.5Q460 604 460 631Q460 666 440 685.5Q420 705 378 705Q320 705 277 658.5Q234 612 207 503L85 9Q59 -94 17.5 -146.5Q-24 -199 -93 -199Z" glyph-name="germandbls" horiz-adv-x="536" unicode="&#223;" /><glyph d="M235 674 270 722 421 607 403 581Z" glyph-name="grave" horiz-adv-x="492" unicode="`" /><glyph d="M249 799 277 851 439 756 426 729Z" glyph-name="grave.uc" horiz-adv-x="492" /><glyph d="M83 207 383 342 83 477V529L440 362V322L83 155Z" glyph-name="greater" horiz-adv-x="487" unicode="&gt;" /><glyph d="M40 243 46 267 194 446H241L102 248L147 59H105ZM190 243 196 267 343 446H391L251 248L297 59H254Z" glyph-name="guillemotleft" horiz-adv-x="385" unicode="&#171;" /><glyph d="M200 262 194 239 46 59H-2L138 257L93 446H135ZM349 262 343 239 196 59H148L287 257L242 446H285Z" glyph-name="guillemotright" horiz-adv-x="385" unicode="&#187;" /><glyph d="M40 243 46 267 194 446H241L102 248L147 59H105Z" glyph-name="guilsinglleft" horiz-adv-x="236" unicode="&#8249;" /><glyph d="M200 262 194 239 46 59H-2L138 257L93 446H135Z" glyph-name="guilsinglright" horiz-adv-x="236" unicode="&#8250;" /><glyph d="M286 -8Q262 -8 249.5 2Q237 12 237 29Q237 38 241.5 45Q246 52 248 55L327 43Q351 77 372.5 126Q394 175 410.5 227.5Q427 280 437 329Q447 378 447 413Q447 442 436 455Q425 468 405 468Q380 468 348.5 451Q317 434 284.5 406.5Q252 379 220 345Q188 311 162 277L78 0H14L220 689L131 693L139 725L292 748L300 742L186 355H189Q217 389 247 419.5Q277 450 308 472Q339 494 370.5 507Q402 520 432 520Q474 520 494.5 493Q515 466 515 420Q515 381 504 332Q493 283 475.5 233.5Q458 184 435.5 138Q413 92 391 59Q365 22 340.5 7Q316 -8 286 -8Z" glyph-name="h" horiz-adv-x="526" unicode="h" /><glyph d="M355 -8Q336 -8 326.5 2.5Q317 13 325 39L432 378Q443 414 443 433Q443 453 434.5 460.5Q426 468 411 468Q385 468 351.5 448Q318 428 282.5 397.5Q247 367 214 329.5Q181 292 156 258L77 0H13L219 689L130 693L138 725L291 748L299 742L179 339H183Q211 375 243.5 408Q276 441 309.5 466Q343 491 376.5 505.5Q410 520 441 520Q473 520 491.5 500.5Q510 481 510 444Q510 415 498 381L389 41L477 43L469 16Q458 13 444 8.5Q430 4 414.5 0.5Q399 -3 383.5 -5.5Q368 -8 355 -8Z" glyph-name="h.alt" horiz-adv-x="538" /><glyph d="M221 592 344 738 385 703 246 573ZM361 592 484 738 525 703 385 573Z" glyph-name="hungarumlaut" horiz-adv-x="492" unicode="&#733;" /><glyph d="M250 748 350 877 393 841 276 730ZM387 748 487 877 530 841 412 730Z" glyph-name="hungarumlaut.uc" horiz-adv-x="492" /><glyph d="M59 309H266L252 253H45Z" glyph-name="hyphen" horiz-adv-x="293" unicode="-" /><glyph d="M62 -8Q43 -8 33.5 2.5Q24 13 32 39L157 467L70 466L78 498L230 521L237 514L96 41L188 43L180 16Q169 13 154.5 8.5Q140 4 123.5 0.5Q107 -3 91 -5.5Q75 -8 62 -8ZM235 631Q217 631 206.5 642Q196 653 196 668Q196 688 209 700.5Q222 713 240 713Q258 713 268.5 702Q279 691 279 676Q279 656 266 643.5Q253 631 235 631Z" glyph-name="i" horiz-adv-x="249" unicode="i" /><glyph d="M141 607 318 724 342 672 153 581ZM62 -8Q43 -8 33.5 2.5Q24 13 32 39L157 467L70 466L78 498L230 521L237 514L96 41L188 43L180 16Q169 13 154.5 8.5Q140 4 123.5 0.5Q107 -3 91 -5.5Q75 -8 62 -8Z" glyph-name="iacute" horiz-adv-x="249" unicode="&#237;" /><glyph d="M87 610 219 722H253L339 608L319 587L229 666L101 587ZM62 -8Q43 -8 33.5 2.5Q24 13 32 39L157 467L70 466L78 498L230 521L237 514L96 41L188 43L180 16Q169 13 154.5 8.5Q140 4 123.5 0.5Q107 -3 91 -5.5Q75 -8 62 -8Z" glyph-name="icircumflex" horiz-adv-x="249" unicode="&#238;" /><glyph d="M154 629Q137 629 125.5 641Q114 653 114 667Q114 687 127 699.5Q140 712 157 712Q175 712 186 700.5Q197 689 197 675Q197 656 184.5 642.5Q172 629 154 629ZM305 629Q288 629 276.5 641Q265 653 265 667Q265 687 278 699.5Q291 712 308 712Q326 712 337 700.5Q348 689 348 675Q348 656 335.5 642.5Q323 629 305 629ZM62 -8Q43 -8 33.5 2.5Q24 13 32 39L157 467L70 466L78 498L230 521L237 514L96 41L188 43L180 16Q169 13 154.5 8.5Q140 4 123.5 0.5Q107 -3 91 -5.5Q75 -8 62 -8Z" glyph-name="idieresis" horiz-adv-x="249" unicode="&#239;" /><glyph d="M62 -8Q43 -8 33.5 2.5Q24 13 32 39L157 467L70 466L78 498L230 521L237 514L96 41L188 43L180 16Q169 13 154.5 8.5Q140 4 123.5 0.5Q107 -3 91 -5.5Q75 -8 62 -8ZM112 674 147 722 298 607 280 581Z" glyph-name="igrave" horiz-adv-x="249" unicode="&#236;" /><glyph d="M-134 -150Q-119 -159 -97 -159Q-63 -159 -36 -134.5Q-9 -110 9 -50L159 467L72 466L80 498L232 521L239 514L75 -32Q51 -113 9.5 -156Q-32 -199 -98 -199Q-114 -199 -130 -195.5Q-146 -192 -158.5 -185.5Q-171 -179 -178.5 -168Q-186 -157 -186 -142Q-186 -125 -176.5 -112Q-167 -99 -158 -91H-124ZM237 631Q219 631 208.5 642Q198 653 198 668Q198 688 211 700.5Q224 713 242 713Q260 713 270.5 702Q281 691 281 676Q281 656 268 643.5Q255 631 237 631Z" glyph-name="j" horiz-adv-x="238" unicode="j" /><glyph d="M444 466Q427 458 408 444Q389 430 366 408.5Q343 387 314.5 356Q286 325 250 283L347 41L434 43L426 16Q406 8 378.5 -0.5Q351 -9 331 -9Q310 -9 299.5 5.5Q289 20 276 53L193 263L196 277Q255 350 296 397Q337 444 368 471.5Q399 499 423 509.5Q447 520 472 520Q489 520 500 513.5Q511 507 519 499L511 466ZM219 689 130 693 138 725 291 748 299 742 77 0H13Z" glyph-name="k" horiz-adv-x="486" unicode="k" /><glyph d="M62 -8Q43 -8 33.5 2.5Q24 13 32 39L218 689L126 693L134 725L290 748L298 742L95 41L192 43L184 16Q173 12 157.5 8Q142 4 125 0.5Q108 -3 91.5 -5.5Q75 -8 62 -8Z" glyph-name="l" horiz-adv-x="256" unicode="l" /><glyph d="M74 323V362L431 530V478L131 343L431 207V155Z" glyph-name="less" horiz-adv-x="487" unicode="&lt;" /><glyph d="M32 337 132 387 219 688 126 692 134 725 290 748 298 742 206 423 313 477 300 426 191 371 95 41 194 43 186 16Q175 12 159 8Q143 4 126 0.5Q109 -3 92 -5.5Q75 -8 62 -8Q43 -8 33.5 2.5Q24 13 32 39L117 335L20 286Z" glyph-name="lslash" horiz-adv-x="262" unicode="&#322;" /><glyph d="M631 -8Q612 -8 602 2.5Q592 13 600 39L707 378Q719 414 719 435Q719 454 710 461Q701 468 684 468Q663 468 633 451Q603 434 571.5 407.5Q540 381 509 348Q478 315 455 283L366 0H303L419 378Q430 414 430 433Q430 468 397 468Q372 468 340.5 449Q309 430 276.5 400.5Q244 371 212.5 334.5Q181 298 157 264L77 0H13L155 467L70 466L78 498L222 521L229 514L175 339H178Q206 376 237 408.5Q268 441 300 466Q332 491 364.5 505.5Q397 520 428 520Q461 520 478.5 500.5Q496 481 496 445Q496 432 493 413.5Q490 395 479 361H483Q504 388 531.5 416Q559 444 589.5 467Q620 490 653 505Q686 520 718 520Q749 520 767 501.5Q785 483 785 447Q785 421 774 382L664 40L753 42L745 15Q723 8 690 0Q657 -8 631 -8Z" glyph-name="m" horiz-adv-x="814" unicode="m" /><glyph d="M235 672H465L455 627H225Z" glyph-name="macron" horiz-adv-x="492" unicode="&#175;" /><glyph d="M248 796H478L468 751H238Z" glyph-name="macron.uc" horiz-adv-x="492" /><glyph d="M80 368H471V322H80Z" glyph-name="minus" horiz-adv-x="511" unicode="&#8722;" /><glyph d="M93 196 239 344 93 492 125 524 271 375 417 524 448 492 302 344 449 196 417 164 271 312 125 164Z" glyph-name="multiply" horiz-adv-x="507" unicode="&#215;" /><glyph d="M355 -8Q336 -8 326.5 2.5Q317 13 325 39L432 378Q443 414 443 433Q443 453 434.5 460.5Q426 468 411 468Q385 468 351.5 448Q318 428 282.5 397.5Q247 367 214 329.5Q181 292 156 258L77 0H13L155 467L70 466L78 498L222 521L229 514L173 332H177Q206 370 239 404.5Q272 439 306.5 464.5Q341 490 375 505Q409 520 441 520Q473 520 491.5 500.5Q510 481 510 444Q510 415 498 381L389 41L477 43L469 16Q458 13 444 8.5Q430 4 414.5 0.5Q399 -3 383.5 -5.5Q368 -8 355 -8Z" glyph-name="n" horiz-adv-x="538" unicode="n" /><glyph d="M148 -10Q96 -10 63 1.5Q30 13 13 26L22 63Q42 52 72.5 44.5Q103 37 144 37Q197 37 247 54.5Q297 72 339 109.5Q381 147 412.5 205Q444 263 462 344Q425 318 377.5 296.5Q330 275 269 275Q184 275 137 318.5Q90 362 90 434Q90 489 109 538Q128 587 162.5 624Q197 661 245 682.5Q293 704 352 704Q398 704 435.5 689Q473 674 499.5 646.5Q526 619 540 580Q554 541 554 492Q554 427 542 367Q530 307 508 254Q486 201 455 156Q424 111 387 78Q336 33 277 11.5Q218 -10 148 -10ZM297 323Q351 323 393.5 341Q436 359 471 383Q478 409 483 443.5Q488 478 488 508Q488 576 452.5 619.5Q417 663 348 663Q304 663 269.5 645.5Q235 628 211 598.5Q187 569 174.5 529.5Q162 490 162 445Q162 382 196.5 352.5Q231 323 297 323Z" glyph-name="nine" horiz-adv-x="545" unicode="9" /><glyph glyph-name="nonmarkingreturn" horiz-adv-x="193" /><glyph d="M355 -8Q336 -8 326.5 2.5Q317 13 325 39L432 378Q443 414 443 433Q443 453 434.5 460.5Q426 468 411 468Q385 468 351.5 448Q318 428 282.5 397.5Q247 367 214 329.5Q181 292 156 258L77 0H13L155 467L70 466L78 498L222 521L229 514L173 332H177Q206 370 239 404.5Q272 439 306.5 464.5Q341 490 375 505Q409 520 441 520Q473 520 491.5 500.5Q510 481 510 444Q510 415 498 381L389 41L477 43L469 16Q458 13 444 8.5Q430 4 414.5 0.5Q399 -3 383.5 -5.5Q368 -8 355 -8ZM225 622Q246 661 267 681Q288 701 317 701Q332 701 346.5 695.5Q361 690 374.5 684Q388 678 400.5 672.5Q413 667 424 667Q440 667 453 676.5Q466 686 482 709L511 695Q490 657 468.5 636.5Q447 616 419 616Q404 616 389.5 621.5Q375 627 361.5 633Q348 639 335.5 644.5Q323 650 312 650Q296 650 282 640.5Q268 631 253 608Z" glyph-name="ntilde" horiz-adv-x="538" unicode="&#241;" /><glyph d="M109 480H198L266 693H311L243 480H367L435 693H481L413 480H497L482 419H393L351 286H437L421 225H331L260 0H214L285 225H161L90 0H44L116 225H33L49 286H135L178 419H94ZM181 286H305L347 419H223Z" glyph-name="numbersign" horiz-adv-x="477" unicode="#" /><glyph d="M187 31Q231 31 271.5 58Q312 85 343 131Q374 177 392.5 237Q411 297 411 362Q411 418 385 448.5Q359 479 308 479Q264 479 223 452Q182 425 151 379.5Q120 334 101.5 274.5Q83 215 83 150Q83 93 109.5 62Q136 31 187 31ZM182 -10Q104 -10 61 38Q18 86 18 162Q18 239 44.5 304.5Q71 370 113 418Q155 466 207.5 493Q260 520 313 520Q392 520 433.5 473Q475 426 475 349Q475 272 449.5 206.5Q424 141 382.5 93Q341 45 288.5 17.5Q236 -10 182 -10Z" glyph-name="o" horiz-adv-x="493" unicode="o" /><glyph d="M258 607 435 724 459 672 270 581ZM187 31Q231 31 271.5 58Q312 85 343 131Q374 177 392.5 237Q411 297 411 362Q411 418 385 448.5Q359 479 308 479Q264 479 223 452Q182 425 151 379.5Q120 334 101.5 274.5Q83 215 83 150Q83 93 109.5 62Q136 31 187 31ZM182 -10Q104 -10 61 38Q18 86 18 162Q18 239 44.5 304.5Q71 370 113 418Q155 466 207.5 493Q260 520 313 520Q392 520 433.5 473Q475 426 475 349Q475 272 449.5 206.5Q424 141 382.5 93Q341 45 288.5 17.5Q236 -10 182 -10Z" glyph-name="oacute" horiz-adv-x="493" unicode="&#243;" /><glyph d="M206 610 338 722H372L458 608L438 587L348 666L220 587ZM187 31Q231 31 271.5 58Q312 85 343 131Q374 177 392.5 237Q411 297 411 362Q411 418 385 448.5Q359 479 308 479Q264 479 223 452Q182 425 151 379.5Q120 334 101.5 274.5Q83 215 83 150Q83 93 109.5 62Q136 31 187 31ZM182 -10Q104 -10 61 38Q18 86 18 162Q18 239 44.5 304.5Q71 370 113 418Q155 466 207.5 493Q260 520 313 520Q392 520 433.5 473Q475 426 475 349Q475 272 449.5 206.5Q424 141 382.5 93Q341 45 288.5 17.5Q236 -10 182 -10Z" glyph-name="ocircumflex" horiz-adv-x="493" unicode="&#244;" /><glyph d="M266 629Q249 629 237.5 641Q226 653 226 667Q226 687 239 699.5Q252 712 269 712Q287 712 298 700.5Q309 689 309 675Q309 656 296.5 642.5Q284 629 266 629ZM417 629Q400 629 388.5 641Q377 653 377 667Q377 687 390 699.5Q403 712 420 712Q438 712 449 700.5Q460 689 460 675Q460 656 447.5 642.5Q435 629 417 629ZM187 31Q231 31 271.5 58Q312 85 343 131Q374 177 392.5 237Q411 297 411 362Q411 418 385 448.5Q359 479 308 479Q264 479 223 452Q182 425 151 379.5Q120 334 101.5 274.5Q83 215 83 150Q83 93 109.5 62Q136 31 187 31ZM182 -10Q104 -10 61 38Q18 86 18 162Q18 239 44.5 304.5Q71 370 113 418Q155 466 207.5 493Q260 520 313 520Q392 520 433.5 473Q475 426 475 349Q475 272 449.5 206.5Q424 141 382.5 93Q341 45 288.5 17.5Q236 -10 182 -10Z" glyph-name="odieresis" horiz-adv-x="493" unicode="&#246;" /><glyph d="M182 -10Q104 -10 61 38Q18 86 18 162Q18 239 44.5 304.5Q71 370 113 418Q155 466 207.5 493Q260 520 313 520Q382 520 419.5 480.5Q457 441 463 373Q508 441 570 480.5Q632 520 695 520Q745 520 776.5 497Q808 474 808 425Q808 374 779 340Q750 306 701.5 283.5Q653 261 589.5 248.5Q526 236 457 228Q451 193 451 158Q451 101 475.5 69.5Q500 38 557 38Q608 38 654 59Q700 80 733 107L727 68Q714 56 695 42.5Q676 29 651.5 17.5Q627 6 598.5 -1.5Q570 -9 538 -9Q471 -9 437 26.5Q403 62 397 119Q357 59 300.5 24.5Q244 -10 182 -10ZM187 31Q231 31 271.5 58Q312 85 343 131Q374 177 392.5 237Q411 297 411 362Q411 418 385 448.5Q359 479 308 479Q264 479 223 452Q182 425 151 379.5Q120 334 101.5 274.5Q83 215 83 150Q83 93 109.5 62Q136 31 187 31ZM687 479Q654 479 620.5 463Q587 447 557 418.5Q527 390 503.5 350.5Q480 311 466 265Q523 272 573.5 282.5Q624 293 662 311Q700 329 722 355.5Q744 382 744 422Q744 448 730 463.5Q716 479 687 479Z" glyph-name="oe" horiz-adv-x="796" unicode="&#339;" /><glyph d="M149 -200Q108 -200 88.5 -182Q69 -164 69 -134Q69 -113 79.5 -94Q90 -75 106.5 -58Q123 -41 143 -26.5Q163 -12 182 0H223Q185 -32 156.5 -64.5Q128 -97 128 -129Q128 -165 168 -165Q180 -165 192 -163.5Q204 -162 210 -160L203 -190Q192 -195 179 -197.5Q166 -200 149 -200Z" glyph-name="ogonek" horiz-adv-x="492" unicode="&#731;" /><glyph d="M187 31Q231 31 271.5 58Q312 85 343 131Q374 177 392.5 237Q411 297 411 362Q411 418 385 448.5Q359 479 308 479Q264 479 223 452Q182 425 151 379.5Q120 334 101.5 274.5Q83 215 83 150Q83 93 109.5 62Q136 31 187 31ZM182 -10Q104 -10 61 38Q18 86 18 162Q18 239 44.5 304.5Q71 370 113 418Q155 466 207.5 493Q260 520 313 520Q392 520 433.5 473Q475 426 475 349Q475 272 449.5 206.5Q424 141 382.5 93Q341 45 288.5 17.5Q236 -10 182 -10ZM231 674 266 722 417 607 399 581Z" glyph-name="ograve" horiz-adv-x="493" unicode="&#242;" /><glyph d="M-14 32 94 44 245 624 115 603 123 634 313 701H333L164 44L268 32L261 0H-22Z" glyph-name="one" horiz-adv-x="351" unicode="1" /><glyph d="M713 713H763L110 -40H60ZM92 315 159 323 239 643 157 628 164 655 287 701H308L213 323L277 315L270 288H85ZM459 30 591 133Q622 157 646.5 179Q671 201 688.5 222.5Q706 244 715 266Q724 288 724 313Q724 346 704.5 364Q685 382 653 382Q630 382 616.5 376Q603 370 592 362L580 302H544Q540 307 535.5 314.5Q531 322 531 333Q531 370 568 392.5Q605 415 660 415Q714 415 747.5 387.5Q781 360 781 314Q781 264 739 215.5Q697 167 619 112L524 44V42H736L724 0H451Z" glyph-name="onehalf" horiz-adv-x="816" unicode="&#189;" /><glyph d="M82 315 149 323 229 643 147 628 154 655 277 701H298L203 323L267 315L260 288H75ZM713 713H763L110 -40H60ZM602 118H410L418 150L681 408H727L664 154H729L721 118H655L626 0H572ZM610 154 656 338H654L468 156V154Z" glyph-name="onequarter" horiz-adv-x="814" unicode="&#188;" /><glyph d="M142 231Q100 231 78 258Q56 285 56 336Q56 404 85.5 469.5Q115 535 161 586Q207 637 261.5 668.5Q316 700 367 700Q393 700 412.5 693Q432 686 443 678H446L463 702H513L384 279L469 281L462 254Q452 250 438 246Q424 242 409 238.5Q394 235 379.5 233Q365 231 353 231Q327 231 322 245.5Q317 260 325 289L351 369H348Q329 341 305 316Q281 291 254 272Q227 253 198.5 242Q170 231 142 231ZM166 278Q187 278 212 290.5Q237 303 264 324Q291 345 318 373.5Q345 402 370 434L429 630Q418 643 402 652.5Q386 662 361 662Q319 662 276 632.5Q233 603 198.5 556.5Q164 510 142.5 453.5Q121 397 121 342Q121 307 132.5 292.5Q144 278 166 278Z" glyph-name="ordfeminine" horiz-adv-x="471" unicode="&#170;" /><glyph d="M225 270Q264 270 299 293.5Q334 317 361 357Q388 397 404 448.5Q420 500 420 557Q420 607 398 633.5Q376 660 330 660Q291 660 256 636.5Q221 613 194.5 573.5Q168 534 152 482Q136 430 136 373Q136 324 157.5 297Q179 270 225 270ZM220 231Q149 231 111 271.5Q73 312 73 380Q73 449 96.5 507Q120 565 157.5 608Q195 651 241.5 675Q288 699 335 699Q407 699 445 658.5Q483 618 483 550Q483 481 459.5 423Q436 365 398 322Q360 279 313 255Q266 231 220 231Z" glyph-name="ordmasculine" horiz-adv-x="446" unicode="&#186;" /><glyph d="M-13 -14 47 56Q18 99 18 162Q18 239 44.5 304.5Q71 370 113 418Q155 466 207.5 493Q260 520 313 520Q376 520 417 487L469 547L496 522L443 460Q475 416 475 349Q475 272 449.5 206.5Q424 141 382.5 93Q341 45 288.5 17.5Q236 -10 182 -10Q114 -10 72 27L15 -39ZM187 31Q231 31 272 58Q313 85 344 131Q375 177 393.5 237Q412 297 412 362Q412 377 410 390.5Q408 404 405 416L104 65Q130 31 187 31ZM81 150Q81 125 86 102L386 450Q360 479 308 479Q264 479 223 452Q182 425 150.5 379.5Q119 334 100 274.5Q81 215 81 150Z" glyph-name="oslash" horiz-adv-x="493" unicode="&#248;" /><glyph d="M187 31Q231 31 271.5 58Q312 85 343 131Q374 177 392.5 237Q411 297 411 362Q411 418 385 448.5Q359 479 308 479Q264 479 223 452Q182 425 151 379.5Q120 334 101.5 274.5Q83 215 83 150Q83 93 109.5 62Q136 31 187 31ZM182 -10Q104 -10 61 38Q18 86 18 162Q18 239 44.5 304.5Q71 370 113 418Q155 466 207.5 493Q260 520 313 520Q392 520 433.5 473Q475 426 475 349Q475 272 449.5 206.5Q424 141 382.5 93Q341 45 288.5 17.5Q236 -10 182 -10ZM204 622Q225 661 246 681Q267 701 296 701Q311 701 325.5 695.5Q340 690 353.5 684Q367 678 379.5 672.5Q392 667 403 667Q419 667 432 676.5Q445 686 461 709L490 695Q469 657 447.5 636.5Q426 616 398 616Q383 616 368.5 621.5Q354 627 340.5 633Q327 639 314.5 644.5Q302 650 291 650Q275 650 261 640.5Q247 631 232 608Z" glyph-name="otilde" horiz-adv-x="493" unicode="&#245;" /><glyph d="M-107 -170 -28 -160 156 467 71 466 79 498 224 521 231 514 182 356H185Q243 434 300 477Q357 520 414 520Q460 520 489.5 486Q519 452 519 389Q519 314 493.5 242Q468 170 424.5 114Q381 58 323 24Q265 -10 201 -10Q166 -10 139.5 -2.5Q113 5 90 17L39 -159L121 -170L115 -197H-113ZM205 31Q257 31 302.5 62Q348 93 381.5 141.5Q415 190 434 250.5Q453 311 453 371Q453 416 438 442Q423 468 389 468Q343 468 286 419.5Q229 371 171 293L106 70Q126 52 149.5 41.5Q173 31 205 31Z" glyph-name="p" horiz-adv-x="528" unicode="p" /><glyph d="M315 349Q300 347 286.5 346Q273 345 260 345Q225 345 195.5 354Q166 363 144.5 380.5Q123 398 110.5 424Q98 450 98 484Q98 530 113 568Q128 606 159.5 634Q191 662 241 677.5Q291 693 361 693H644L636 662L556 649L364 -120H317L510 653H438L245 -120H198Z" glyph-name="paragraph" horiz-adv-x="554" unicode="&#182;" /><glyph d="M159 -139Q139 -114 118 -81.5Q97 -49 79 -9Q61 31 49.5 79.5Q38 128 38 184Q38 285 71.5 372Q105 459 156 530Q207 601 266.5 654.5Q326 708 378 743L397 718Q345 676 293 620.5Q241 565 199 495.5Q157 426 131 342.5Q105 259 105 162Q105 117 112.5 76.5Q120 36 131.5 1Q143 -34 158 -64Q173 -94 188 -118Z" glyph-name="parenleft" horiz-adv-x="301" unicode="(" /><glyph d="M172 743Q191 718 212.5 686Q234 654 252 613.5Q270 573 281.5 525Q293 477 293 420Q293 319 259.5 232Q226 145 175 74.5Q124 4 64.5 -50Q5 -104 -47 -139L-67 -114Q-15 -72 37.5 -16Q90 40 132 109.5Q174 179 200 262Q226 345 226 442Q226 487 218.5 527.5Q211 568 199.5 603.5Q188 639 173 668.5Q158 698 143 722Z" glyph-name="parenright" horiz-adv-x="301" unicode=")" /><glyph d="M222 370Q260 370 293 401Q307 414 319 435.5Q331 457 339.5 481.5Q348 506 353 531.5Q358 557 358 580Q358 622 339.5 645Q321 668 283 668Q243 668 212 637Q198 624 186 603Q174 582 165 557.5Q156 533 151 507.5Q146 482 146 459Q146 417 165 393.5Q184 370 222 370ZM554 27Q575 27 592.5 35Q610 43 626 58Q640 71 651.5 92.5Q663 114 671.5 138.5Q680 163 685 188.5Q690 214 690 237Q690 279 672 302Q654 325 616 325Q577 325 544 294Q530 281 518 260Q506 239 497.5 214.5Q489 190 484 164.5Q479 139 479 116Q479 74 497.5 50.5Q516 27 554 27ZM218 333Q161 333 125 369.5Q89 406 89 471Q89 519 106.5 562Q124 605 152 636.5Q180 668 215.5 686.5Q251 705 287 705Q344 705 379.5 669.5Q415 634 415 567Q415 520 398.5 477.5Q382 435 354 403Q326 371 290.5 352Q255 333 218 333ZM708 713H760L114 -40H63ZM551 -10Q494 -10 457.5 26.5Q421 63 421 128Q421 176 438.5 219Q456 262 484 293.5Q512 325 548 343.5Q584 362 620 362Q677 362 712.5 326.5Q748 291 748 224Q748 177 731.5 134.5Q715 92 687 60Q659 28 623.5 9Q588 -10 551 -10Z" glyph-name="percent" horiz-adv-x="786" unicode="%" /><glyph d="M38 -12Q18 -12 5 1Q-8 14 -8 31Q-8 54 8 68.5Q24 83 44 83Q64 83 76.5 70Q89 57 89 39Q89 17 73.5 2.5Q58 -12 38 -12Z" glyph-name="period" horiz-adv-x="184" unicode="." /><glyph d="M109 273Q89 273 76.5 285.5Q64 298 64 315Q64 338 79.5 352.5Q95 367 115 367Q135 367 147.5 354Q160 341 160 323Q160 301 144.5 287Q129 273 109 273Z" glyph-name="periodcentered" horiz-adv-x="184" unicode="&#183;" /><glyph d="M222 370Q260 370 293 401Q307 414 319 435.5Q331 457 339.5 481.5Q348 506 353 531.5Q358 557 358 580Q358 622 339.5 645Q321 668 283 668Q243 668 212 637Q198 624 186 603Q174 582 165 557.5Q156 533 151 507.5Q146 482 146 459Q146 417 165 393.5Q184 370 222 370ZM554 27Q575 27 592.5 35Q610 43 626 58Q640 71 651.5 92.5Q663 114 671.5 138.5Q680 163 685 188.5Q690 214 690 237Q690 279 672 302Q654 325 616 325Q577 325 544 294Q530 281 518 260Q506 239 497.5 214.5Q489 190 484 164.5Q479 139 479 116Q479 74 497.5 50.5Q516 27 554 27ZM922 27Q943 27 960.5 35Q978 43 994 58Q1008 71 1019.5 92.5Q1031 114 1039.5 138.5Q1048 163 1053 188.5Q1058 214 1058 237Q1058 279 1040 302Q1022 325 984 325Q945 325 912 294Q898 281 886 260Q874 239 865.5 214.5Q857 190 852 164.5Q847 139 847 116Q847 74 865.5 50.5Q884 27 922 27ZM218 333Q161 333 125 369.5Q89 406 89 471Q89 519 106.5 562Q124 605 152 636.5Q180 668 215.5 686.5Q251 705 287 705Q344 705 379.5 669.5Q415 634 415 567Q415 520 398.5 477.5Q382 435 354 403Q326 371 290.5 352Q255 333 218 333ZM708 713H760L114 -40H63ZM551 -10Q494 -10 457.5 26.5Q421 63 421 128Q421 176 438.5 219Q456 262 484 293.5Q512 325 548 343.5Q584 362 620 362Q677 362 712.5 326.5Q748 291 748 224Q748 177 731.5 134.5Q715 92 687 60Q659 28 623.5 9Q588 -10 551 -10ZM919 -10Q862 -10 825.5 26.5Q789 63 789 128Q789 176 806.5 219Q824 262 852 293.5Q880 325 916 343.5Q952 362 988 362Q1045 362 1080.5 326.5Q1116 291 1116 224Q1116 177 1099.5 134.5Q1083 92 1055 60Q1027 28 991.5 9Q956 -10 919 -10Z" glyph-name="perthousand" horiz-adv-x="1154" unicode="&#8240;" /><glyph d="M80 368H251V547H300V368H471V322H300V144H251V322H80Z" glyph-name="plus" horiz-adv-x="511" unicode="+" /><glyph d="M152 -170 244 -159 333 132H330Q309 105 284 80Q259 55 231.5 35Q204 15 174 3Q144 -9 114 -9Q67 -9 39.5 24Q12 57 12 119Q12 192 40 263.5Q68 335 115 392Q162 449 223.5 484.5Q285 520 351 520Q400 520 438.5 511Q477 502 504 487L309 -161L382 -170L376 -197H145ZM138 42Q162 42 190 56Q218 70 246.5 93Q275 116 303 146Q331 176 355 208L428 455Q414 464 393.5 472Q373 480 343 480Q290 480 242 448Q194 416 157.5 365.5Q121 315 99.5 254.5Q78 194 78 137Q78 93 92 67.5Q106 42 138 42Z" glyph-name="q" horiz-adv-x="499" unicode="q" /><glyph d="M145 182Q140 191 136 205Q132 219 132 234Q132 264 140.5 286Q149 308 165.5 327Q182 346 207.5 364Q233 382 268 405Q294 421 316.5 438Q339 455 355.5 474Q372 493 381 516Q390 539 390 569Q390 594 381 612Q372 630 356 641.5Q340 653 319.5 658Q299 663 277 663Q242 663 221 654Q200 645 189 634L175 560H135Q130 565 123.5 576.5Q117 588 117 602Q117 627 131 646Q145 665 168.5 678Q192 691 223.5 697.5Q255 704 290 704Q321 704 351 695.5Q381 687 404 670Q427 653 441 627.5Q455 602 455 567Q455 532 443 504Q431 476 409 451.5Q387 427 356 405Q325 383 286 362Q260 347 239.5 333.5Q219 320 204.5 304Q190 288 182.5 268Q175 248 175 222Q175 212 177 201.5Q179 191 182 182ZM131 -11Q112 -11 100.5 2Q89 15 89 31Q89 52 103.5 65.5Q118 79 138 79Q157 79 168.5 66.5Q180 54 180 38Q180 17 165.5 3Q151 -11 131 -11Z" glyph-name="question" horiz-adv-x="407" unicode="?" /><glyph d="M140 -127Q108 -127 78.5 -118.5Q49 -110 26 -93Q3 -76 -11 -50Q-25 -24 -25 11Q-25 45 -13 73.5Q-1 102 21 126.5Q43 151 74.5 173Q106 195 144 216Q170 231 190.5 244.5Q211 258 225.5 274Q240 290 247.5 310Q255 330 255 356Q255 366 253 376.5Q251 387 249 396H285Q290 387 294.5 373Q299 359 299 344Q299 314 290.5 292Q282 270 265 251Q248 232 222.5 213.5Q197 195 162 173Q136 156 113.5 139.5Q91 123 75 104Q59 85 50 62Q41 39 41 9Q41 -17 50 -35Q59 -53 75 -64.5Q91 -76 111 -81Q131 -86 154 -86Q189 -86 209.5 -77Q230 -68 242 -57L255 18H295Q300 13 307 1Q314 -11 314 -25Q314 -49 300 -68Q286 -87 262.5 -100Q239 -113 207.5 -120Q176 -127 140 -127ZM299 588Q319 588 330 575.5Q341 563 341 547Q341 526 326.5 512.5Q312 499 293 499Q273 499 262 511.5Q251 524 251 540Q251 561 265.5 574.5Q280 588 299 588Z" glyph-name="questiondown" horiz-adv-x="405" unicode="&#191;" /><glyph d="M246 693 180 503H137L172 693ZM373 693 307 503H264L300 693Z" glyph-name="quotedbl" horiz-adv-x="309" unicode="&quot;" /><glyph d="M-40 -101Q-18 -57 -3.5 -11.5Q11 34 21 85H93Q79 34 57.5 -12.5Q36 -59 4 -101ZM88 -101Q109 -57 123.5 -11.5Q138 34 148 85H220Q206 34 184.5 -12.5Q163 -59 130 -101Z" glyph-name="quotedblbase" horiz-adv-x="310" unicode="&#8222;" /><glyph d="M117 508Q131 559 152.5 605Q174 651 206 693H249Q228 649 213.5 604Q199 559 189 508ZM244 508Q258 559 279.5 605Q301 651 333 693H376Q355 649 340.5 604Q326 559 316 508Z" glyph-name="quotedblleft" horiz-adv-x="310" unicode="&#8220;" /><glyph d="M113 508Q134 552 148 597.5Q162 643 172 693H244Q230 642 209 596Q188 550 155 508ZM239 508Q261 552 275 597.5Q289 643 299 693H371Q357 642 336 596Q315 550 282 508Z" glyph-name="quotedblright" horiz-adv-x="310" unicode="&#8221;" /><glyph d="M117 508Q131 559 152.5 605Q174 651 206 693H249Q228 649 213.5 604Q199 559 189 508Z" glyph-name="quoteleft" horiz-adv-x="184" unicode="&#8216;" /><glyph d="M113 508Q134 552 148 597.5Q162 643 172 693H244Q230 642 209 596Q188 550 155 508Z" glyph-name="quoteright" horiz-adv-x="184" unicode="&#8217;" /><glyph d="M-40 -101Q-18 -57 -3.5 -11.5Q11 34 21 85H93Q79 34 57.5 -12.5Q36 -59 4 -101Z" glyph-name="quotesinglbase" horiz-adv-x="184" unicode="&#8218;" /><glyph d="M246 693 180 503H137L172 693Z" glyph-name="quotesingle" horiz-adv-x="182" unicode="&apos;" /><glyph d="M155 467 70 466 78 498 222 521 229 514 170 322H173Q197 360 225 396Q253 432 282.5 459.5Q312 487 341 503.5Q370 520 397 520Q448 520 448 478Q448 460 438.5 436Q429 412 416 395H372L385 469Q360 469 329.5 448Q299 427 267.5 394Q236 361 205 319.5Q174 278 149 236L77 0H13Z" glyph-name="r" horiz-adv-x="407" unicode="r" /><glyph d="M195 442 219 446V588L195 593V611H282Q315 611 334.5 598.5Q354 586 354 560Q354 538 342 527.5Q330 517 313 512V510L354 446L375 442V425H327L281 500H255V446L277 442V425H195ZM283 524Q303 524 310 533Q317 542 317 558Q317 575 309 581.5Q301 588 281 588H255V524ZM280 352Q315 352 343.5 364.5Q372 377 392.5 399Q413 421 424.5 450.5Q436 480 436 515Q436 548 424.5 578Q413 608 392.5 630Q372 652 343.5 665Q315 678 280 678Q244 678 215.5 665Q187 652 166.5 630Q146 608 135 578Q124 548 124 515Q124 480 135 450.5Q146 421 166.5 399Q187 377 215.5 364.5Q244 352 280 352ZM280 325Q239 325 205 340Q171 355 145.5 380.5Q120 406 106 441Q92 476 92 515Q92 554 106 588.5Q120 623 145.5 648.5Q171 674 205 689Q239 704 280 704Q320 704 354 689Q388 674 413.5 648.5Q439 623 453.5 588.5Q468 554 468 515Q468 476 453.5 441Q439 406 413.5 380.5Q388 355 354 340Q320 325 280 325Z" glyph-name="registered" horiz-adv-x="422" unicode="&#174;" /><glyph d="M347 613Q370 613 385.5 627.5Q401 642 401 668Q401 688 389 702.5Q377 717 354 717Q331 717 315.5 701.5Q300 686 300 660Q300 641 312 627Q324 613 347 613ZM346 582Q327 582 312 588.5Q297 595 286.5 606Q276 617 270.5 630.5Q265 644 265 659Q265 699 291.5 723.5Q318 748 356 748Q393 748 415 724Q437 700 437 670Q437 631 410 606.5Q383 582 346 582Z" glyph-name="ring" horiz-adv-x="492" unicode="&#730;" /><glyph d="M361 753Q384 753 399.5 767.5Q415 782 415 808Q415 828 403 842.5Q391 857 368 857Q345 857 329.5 841.5Q314 826 314 800Q314 781 326 767Q338 753 361 753ZM360 722Q341 722 326 728.5Q311 735 300.5 746Q290 757 284.5 770.5Q279 784 279 799Q279 839 305.5 863.5Q332 888 370 888Q407 888 429 864Q451 840 451 810Q451 771 424 746.5Q397 722 360 722Z" glyph-name="ring.uc" horiz-adv-x="492" /><glyph d="M138 -10Q105 -10 76.5 -4Q48 2 27 13Q6 24 -6 39.5Q-18 55 -18 73Q-18 92 -8.5 108Q1 124 13 135H58L44 64Q56 50 76 40Q96 30 133 30Q193 30 225.5 57Q258 84 258 128Q258 146 251.5 160Q245 174 233 186.5Q221 199 205 211Q189 223 170 238Q126 272 101 302Q76 332 76 376Q76 407 89.5 433Q103 459 126.5 478.5Q150 498 182 509Q214 520 251 520Q307 520 342.5 502Q378 484 378 451Q378 433 369.5 415Q361 397 350 383H307L320 456Q308 467 290.5 473.5Q273 480 245 480Q197 480 165 455Q133 430 133 388Q133 373 138 361Q143 349 153.5 337Q164 325 180 311.5Q196 298 218 281Q240 264 258.5 248.5Q277 233 290 216.5Q303 200 310.5 181.5Q318 163 318 139Q318 107 305 80Q292 53 268 33Q244 13 211 1.5Q178 -10 138 -10Z" glyph-name="s" horiz-adv-x="373" unicode="s" /><glyph d="M166 700 186 721 276 643 404 721 417 699 286 586H252ZM138 -10Q105 -10 76.5 -4Q48 2 27 13Q6 24 -6 39.5Q-18 55 -18 73Q-18 92 -8.5 108Q1 124 13 135H58L44 64Q56 50 76 40Q96 30 133 30Q193 30 225.5 57Q258 84 258 128Q258 146 251.5 160Q245 174 233 186.5Q221 199 205 211Q189 223 170 238Q126 272 101 302Q76 332 76 376Q76 407 89.5 433Q103 459 126.5 478.5Q150 498 182 509Q214 520 251 520Q307 520 342.5 502Q378 484 378 451Q378 433 369.5 415Q361 397 350 383H307L320 456Q308 467 290.5 473.5Q273 480 245 480Q197 480 165 455Q133 430 133 388Q133 373 138 361Q143 349 153.5 337Q164 325 180 311.5Q196 298 218 281Q240 264 258.5 248.5Q277 233 290 216.5Q303 200 310.5 181.5Q318 163 318 139Q318 107 305 80Q292 53 268 33Q244 13 211 1.5Q178 -10 138 -10Z" glyph-name="scaron" horiz-adv-x="373" unicode="&#353;" /><glyph d="M151 -129Q92 -129 55.5 -118Q19 -107 -11 -93L7 23H43L45 -61Q63 -71 86.5 -80Q110 -89 157 -89Q183 -89 206 -81.5Q229 -74 246 -59Q263 -44 272.5 -23Q282 -2 282 25Q281 55 264 81Q247 107 212 126L141 164Q96 187 68.5 220.5Q41 254 41 296Q41 327 53 351.5Q65 376 86 394.5Q107 413 136 425Q165 437 199 445Q155 483 155 544Q155 580 170 609.5Q185 639 210.5 660Q236 681 270.5 692.5Q305 704 344 704Q395 704 427 695Q459 686 479 675L462 570H428L424 642Q411 650 391.5 657Q372 664 338 664Q314 664 292 658Q270 652 253 639Q236 626 225.5 606Q215 586 215 559Q215 530 228 508Q241 486 274 469L345 430Q393 404 420.5 373.5Q448 343 448 301Q448 237 406.5 199Q365 161 293 145Q318 123 331 95Q344 67 344 38Q344 2 330.5 -28.5Q317 -59 292 -81.5Q267 -104 231 -116.5Q195 -129 151 -129ZM236 418Q210 414 186.5 406Q163 398 145 385Q127 372 116 353Q105 334 105 308Q105 278 124.5 255Q144 232 186 210L220 192Q233 185 243.5 179Q254 173 255 173Q282 177 305.5 185.5Q329 194 346.5 207Q364 220 374 239Q384 258 384 284Q384 315 363.5 339Q343 363 302 384Z" glyph-name="section" horiz-adv-x="461" unicode="&#167;" /><glyph d="M-39 -108Q-19 -65 -4.5 -20.5Q10 24 21 77H94Q66 -29 5 -108ZM119 296Q99 296 86.5 308.5Q74 321 74 338Q74 361 89.5 375.5Q105 390 125 390Q145 390 157.5 377Q170 364 170 346Q170 324 154.5 310Q139 296 119 296Z" glyph-name="semicolon" horiz-adv-x="194" unicode=";" /><glyph d="M508 630V634H177L139 552H103L142 693H570L558 641L135 0H59Z" glyph-name="seven" horiz-adv-x="479" unicode="7" /><glyph d="M243 -11Q196 -11 159 4.5Q122 20 95.5 48Q69 76 55 115Q41 154 41 202Q41 266 56.5 328Q72 390 98.5 445Q125 500 160 545.5Q195 591 234 622Q285 663 342.5 683.5Q400 704 457 704Q505 704 535 693Q565 682 582 669L573 631Q554 642 526 649.5Q498 657 460 657Q412 657 363 638.5Q314 620 270 582Q226 544 190.5 486.5Q155 429 134 352Q171 377 218.5 397.5Q266 418 327 418Q409 418 457 375Q505 332 505 260Q505 205 486 156Q467 107 432.5 70Q398 33 349.5 11Q301 -11 243 -11ZM247 31Q290 31 324.5 48.5Q359 66 383 95.5Q407 125 420 165Q433 205 433 250Q433 312 398.5 341.5Q364 371 298 371Q244 371 202 352.5Q160 334 124 310Q118 285 113 251Q108 217 108 187Q108 118 143 74.5Q178 31 247 31Z" glyph-name="six" horiz-adv-x="545" unicode="6" /><glyph d="M368 733H419L-30 -120H-81Z" glyph-name="slash" horiz-adv-x="327" unicode="/" /><glyph glyph-name="space" horiz-adv-x="193" unicode=" " /><glyph d="M204 -42Q193 -80 175 -116Q157 -152 134 -179H91Q105 -152 116.5 -116Q128 -80 136 -42Z" glyph-name="space_uni0326" horiz-adv-x="489" /><glyph d="M296 610Q307 648 325 684Q343 720 366 747H409Q395 719 383.5 683.5Q372 648 364 610Z" glyph-name="space_uni0326.alt" horiz-adv-x="489" /><glyph d="M81 369H152L175 481Q188 541 213 583.5Q238 626 272 652.5Q306 679 346 691Q386 703 428 703Q488 703 523.5 684Q559 665 559 630Q559 613 548.5 596Q538 579 527 566H482L497 640Q486 650 466.5 656Q447 662 421 662Q392 662 365 652.5Q338 643 314.5 621Q291 599 272.5 563Q254 527 242 474L217 369H412L401 324H207L187 238Q178 199 166.5 171.5Q155 144 141 124.5Q127 105 110 90.5Q93 76 72 62V60H439L418 0H-26L-16 40Q39 68 72.5 108Q106 148 121 222L142 324H71Z" glyph-name="sterling" horiz-adv-x="501" unicode="&#163;" /><glyph d="M77 496 158 513 195 639H259L220 511H340L328 466H207L95 99Q87 73 91.5 55.5Q96 38 125 38Q157 38 184 44.5Q211 51 233 60L225 27Q206 15 177 3.5Q148 -8 106 -8Q72 -8 49.5 9Q27 26 27 62Q27 71 28.5 82Q30 93 34 105L143 466H70Z" glyph-name="t" horiz-adv-x="286" unicode="t" /><glyph d="M-115 -170 -36 -160 215 689 125 693 133 725 286 748 295 742 183 368H187Q238 437 293 478.5Q348 520 405 520Q452 520 481.5 486Q511 452 511 389Q511 314 485.5 242Q460 170 416.5 114Q373 58 315 24Q257 -10 193 -10Q158 -10 131.5 -2Q105 6 82 18L30 -159L113 -170L106 -197H-121ZM196 31Q249 31 294.5 62Q340 93 373 141.5Q406 190 425 250.5Q444 311 444 371Q444 416 429.5 442.5Q415 469 381 469Q358 469 332 456Q306 443 278 420Q250 397 220.5 364.5Q191 332 163 293L97 69Q117 51 140.5 41Q164 31 196 31Z" glyph-name="thorn" horiz-adv-x="520" unicode="&#254;" /><glyph d="M171 -9Q135 -9 106 -4Q77 1 53.5 8.5Q30 16 11 26Q-8 36 -23 46L-13 83Q20 66 60.5 52.5Q101 39 157 39Q201 39 239 51Q277 63 305 86.5Q333 110 349 145Q365 180 365 226Q365 280 328 311Q291 342 211 342H162L173 387H221Q262 387 297.5 398Q333 409 359.5 430.5Q386 452 401 484Q416 516 416 558Q416 604 387 633.5Q358 663 295 663Q260 663 234.5 653.5Q209 644 193 628L175 551H136Q131 558 125.5 569Q120 580 120 597Q120 619 134.5 638.5Q149 658 174.5 672.5Q200 687 235 695.5Q270 704 311 704Q394 704 439 665Q484 626 484 562Q484 521 469.5 489Q455 457 431 433Q407 409 375 393Q343 377 308 368V365Q333 360 356 349.5Q379 339 397 321Q415 303 425.5 278Q436 253 436 220Q436 166 414.5 123.5Q393 81 356.5 51.5Q320 22 272 6.5Q224 -9 171 -9Z" glyph-name="three" horiz-adv-x="483" unicode="3" /><glyph d="M172 282Q124 282 95 292.5Q66 303 49 314L56 343Q75 335 100.5 327.5Q126 320 162 320Q186 320 207 326.5Q228 333 243.5 346Q259 359 268.5 378Q278 397 278 422Q278 453 255.5 468.5Q233 484 195 484H161L169 518H204Q250 518 278.5 541Q307 564 307 606Q307 638 289.5 653.5Q272 669 240 669Q220 669 207 665Q194 661 183 653L172 601H137Q133 606 129.5 613Q126 620 126 631Q126 647 136 660Q146 673 162.5 682.5Q179 692 201 697Q223 702 248 702Q298 702 329 678.5Q360 655 360 612Q360 569 331 539.5Q302 510 261 502V500Q292 493 313 472Q334 451 334 416Q334 387 321 362.5Q308 338 286 320Q264 302 234.5 292Q205 282 172 282ZM735 713H785L132 -40H82ZM626 118H434L442 150L705 408H751L688 154H753L745 118H679L650 0H596ZM634 154 680 338H678L492 156V154Z" glyph-name="threequarters" horiz-adv-x="836" unicode="&#190;" /><glyph d="M205 622Q226 661 247 681Q268 701 297 701Q312 701 326.5 695.5Q341 690 354.5 684Q368 678 380.5 672.5Q393 667 404 667Q420 667 433 676.5Q446 686 462 709L491 695Q470 657 448.5 636.5Q427 616 399 616Q384 616 369.5 621.5Q355 627 341.5 633Q328 639 315.5 644.5Q303 650 292 650Q276 650 262 640.5Q248 631 233 608Z" glyph-name="tilde" horiz-adv-x="492" unicode="&#732;" /><glyph d="M220 753Q241 791 262 811.5Q283 832 312 832Q327 832 341.5 826.5Q356 821 369.5 814.5Q383 808 395.5 802.5Q408 797 419 797Q435 797 448 807Q461 817 477 840L506 826Q485 787 463.5 766.5Q442 746 414 746Q399 746 384.5 751.5Q370 757 356.5 763.5Q343 770 330.5 775.5Q318 781 307 781Q291 781 277 771.5Q263 762 248 739Z" glyph-name="tilde.uc" horiz-adv-x="492" /><glyph d="M354 443 393 448 447 666 411 672 416 693H517L543 497H545L668 693H772L766 672L725 666L671 449L709 443L704 422H588L593 443L627 449L680 656H677L538 435H510L480 656H478L425 449L458 443L453 422H349ZM135 443 174 448 229 667H169L143 607H116L139 693H373L359 607H332V667H276L221 448L258 443L253 422H130Z" glyph-name="trademark" horiz-adv-x="682" unicode="&#8482;" /><glyph d="M50 60V58H416L398 0H-42L-33 38L196 217Q251 260 297 299.5Q343 339 376.5 378Q410 417 428.5 457.5Q447 498 447 544Q447 596 414 629.5Q381 663 313 663Q275 663 246.5 651Q218 639 201 621L181 533H137Q132 541 126.5 553.5Q121 566 121 583Q121 608 136.5 630Q152 652 179.5 668.5Q207 685 245.5 694.5Q284 704 330 704Q370 704 404.5 693.5Q439 683 464.5 663.5Q490 644 504.5 615.5Q519 587 519 551Q519 501 499 457Q479 413 441 369.5Q403 326 347.5 281Q292 236 221 185Z" glyph-name="two" horiz-adv-x="490" unicode="2" /><glyph d="M110 -9Q74 -9 54 11Q34 31 34 69Q34 83 37 98Q40 113 45 131L153 467L69 466L77 498L223 521L230 514L111 133Q101 102 101 81Q101 43 136 43Q158 43 189.5 60.5Q221 78 254.5 106Q288 134 320.5 167.5Q353 201 379 234L463 511H527L387 41L476 43L469 16Q458 13 443.5 8.5Q429 4 413 0.5Q397 -3 381.5 -5.5Q366 -8 353 -8Q334 -8 324.5 2.5Q315 13 323 39L362 162H358Q328 126 296 95Q264 64 232 41Q200 18 169 4.5Q138 -9 110 -9Z" glyph-name="u" horiz-adv-x="539" unicode="u" /><glyph d="M285 607 462 724 486 672 297 581ZM110 -9Q74 -9 54 11Q34 31 34 69Q34 83 37 98Q40 113 45 131L153 467L69 466L77 498L223 521L230 514L111 133Q101 102 101 81Q101 43 136 43Q158 43 189.5 60.5Q221 78 254.5 106Q288 134 320.5 167.5Q353 201 379 234L463 511H527L387 41L476 43L469 16Q458 13 443.5 8.5Q429 4 413 0.5Q397 -3 381.5 -5.5Q366 -8 353 -8Q334 -8 324.5 2.5Q315 13 323 39L362 162H358Q328 126 296 95Q264 64 232 41Q200 18 169 4.5Q138 -9 110 -9Z" glyph-name="uacute" horiz-adv-x="539" unicode="&#250;" /><glyph d="M230 610 362 722H396L482 608L462 587L372 666L244 587ZM110 -9Q74 -9 54 11Q34 31 34 69Q34 83 37 98Q40 113 45 131L153 467L69 466L77 498L223 521L230 514L111 133Q101 102 101 81Q101 43 136 43Q158 43 189.5 60.5Q221 78 254.5 106Q288 134 320.5 167.5Q353 201 379 234L463 511H527L387 41L476 43L469 16Q458 13 443.5 8.5Q429 4 413 0.5Q397 -3 381.5 -5.5Q366 -8 353 -8Q334 -8 324.5 2.5Q315 13 323 39L362 162H358Q328 126 296 95Q264 64 232 41Q200 18 169 4.5Q138 -9 110 -9Z" glyph-name="ucircumflex" horiz-adv-x="539" unicode="&#251;" /><glyph d="M292 629Q275 629 263.5 641Q252 653 252 667Q252 687 265 699.5Q278 712 295 712Q313 712 324 700.5Q335 689 335 675Q335 656 322.5 642.5Q310 629 292 629ZM443 629Q426 629 414.5 641Q403 653 403 667Q403 687 416 699.5Q429 712 446 712Q464 712 475 700.5Q486 689 486 675Q486 656 473.5 642.5Q461 629 443 629ZM110 -9Q74 -9 54 11Q34 31 34 69Q34 83 37 98Q40 113 45 131L153 467L69 466L77 498L223 521L230 514L111 133Q101 102 101 81Q101 43 136 43Q158 43 189.5 60.5Q221 78 254.5 106Q288 134 320.5 167.5Q353 201 379 234L463 511H527L387 41L476 43L469 16Q458 13 443.5 8.5Q429 4 413 0.5Q397 -3 381.5 -5.5Q366 -8 353 -8Q334 -8 324.5 2.5Q315 13 323 39L362 162H358Q328 126 296 95Q264 64 232 41Q200 18 169 4.5Q138 -9 110 -9Z" glyph-name="udieresis" horiz-adv-x="539" unicode="&#252;" /><glyph d="M110 -9Q74 -9 54 11Q34 31 34 69Q34 83 37 98Q40 113 45 131L153 467L69 466L77 498L223 521L230 514L111 133Q101 102 101 81Q101 43 136 43Q158 43 189.5 60.5Q221 78 254.5 106Q288 134 320.5 167.5Q353 201 379 234L463 511H527L387 41L476 43L469 16Q458 13 443.5 8.5Q429 4 413 0.5Q397 -3 381.5 -5.5Q366 -8 353 -8Q334 -8 324.5 2.5Q315 13 323 39L362 162H358Q328 126 296 95Q264 64 232 41Q200 18 169 4.5Q138 -9 110 -9ZM257 674 292 722 443 607 425 581Z" glyph-name="ugrave" horiz-adv-x="539" unicode="&#249;" /><glyph d="M-84 -81H240L230 -120H-94Z" glyph-name="underscore" horiz-adv-x="317" unicode="_" /><glyph glyph-name="uni00A0" horiz-adv-x="193" unicode="&#160;" /><glyph glyph-name="uni2009" horiz-adv-x="93" unicode="&#8201;" /><glyph d="M93 0Q99 64 104 131.5Q109 199 113 261Q117 323 118.5 377Q120 431 119 468L39 466L47 498Q66 506 94.5 512.5Q123 519 146 519Q165 519 173.5 510.5Q182 502 182 476Q183 438 181.5 389.5Q180 341 176.5 288Q173 235 168 179.5Q163 124 157 71H160Q198 110 239 160Q280 210 317 263.5Q354 317 382 370Q410 423 422 468L341 466L347 495Q366 505 392.5 512.5Q419 520 444 520Q459 520 468.5 512.5Q478 505 478 487Q478 451 447.5 391Q417 331 368.5 262Q320 193 259.5 123.5Q199 54 138 0Z" glyph-name="v" horiz-adv-x="446" unicode="v" /><glyph d="M98 0Q104 64 108.5 131Q113 198 116 260Q119 322 119.5 376Q120 430 119 468L39 466L47 498Q65 506 94 512.5Q123 519 146 519Q166 519 174 510.5Q182 502 183 476Q183 437 182.5 389Q182 341 179.5 288Q177 235 172.5 180Q168 125 162 72H165Q189 98 216 130Q243 162 269 197.5Q295 233 320 270Q345 307 365 343Q367 380 367 411.5Q367 443 366 468L289 466L297 498Q315 506 341 512.5Q367 519 390 519Q410 519 418 510.5Q426 502 427 476Q427 437 426.5 389Q426 341 423.5 288Q421 235 416.5 180Q412 125 406 72H409Q446 111 483.5 161.5Q521 212 554 265.5Q587 319 611.5 371.5Q636 424 647 468L564 466L570 495Q589 505 615 512.5Q641 520 667 520Q682 520 691.5 513Q701 506 701 487Q701 464 688.5 428.5Q676 393 654 351Q632 309 602.5 262Q573 215 538 168.5Q503 122 464.5 78.5Q426 35 387 0H343Q349 67 354 136Q359 205 362 269Q341 236 315 199.5Q289 163 260.5 127.5Q232 92 202 59.5Q172 27 144 0Z" glyph-name="w" horiz-adv-x="669" unicode="w" /><glyph d="M18 -9Q-7 -9 -22.5 3Q-38 15 -38 32Q-38 41 -34 48.5Q-30 56 -26 60L45 49Q79 71 115.5 122.5Q152 174 208 261L156 467L70 466L77 499L202 521L209 514L261 302Q294 357 321 398Q348 439 371.5 466Q395 493 417 506.5Q439 520 463 520Q489 520 502 508.5Q515 497 515 483Q515 475 511.5 466.5Q508 458 503 453L437 463Q403 442 364 389.5Q325 337 274 254L328 40L417 42L409 15Q388 8 359.5 0Q331 -8 312 -8Q289 -8 279 6Q269 20 264 40L221 214Q185 155 157.5 112.5Q130 70 106.5 43Q83 16 62 3.5Q41 -9 18 -9Z" glyph-name="x" horiz-adv-x="468" unicode="x" /><glyph d="M-111 -151Q-103 -155 -88 -155Q-39 -155 15.5 -121.5Q70 -88 122 -35Q128 49 130 124.5Q132 200 131 264.5Q130 329 127 380.5Q124 432 120 468L44 466L52 498Q71 506 99 512.5Q127 519 150 519Q169 519 176.5 510Q184 501 186 476Q189 438 191 384.5Q193 331 193 271Q193 211 190.5 150Q188 89 182 36H185Q224 85 264 143.5Q304 202 338 261Q372 320 396.5 374.5Q421 429 429 468L346 466L352 495Q371 505 398 512.5Q425 520 451 520Q487 520 485 487Q485 463 472 427Q459 391 437.5 348Q416 305 388 257.5Q360 210 328.5 163Q297 116 264 72Q231 28 200 -7Q161 -51 124 -87Q87 -123 50.5 -148Q14 -173 -23.5 -186.5Q-61 -200 -100 -200Q-131 -200 -151 -187Q-171 -174 -170 -148Q-170 -129 -158.5 -110.5Q-147 -92 -137 -82H-96Z" glyph-name="y" horiz-adv-x="453" unicode="y" /><glyph d="M-111 -151Q-103 -155 -88 -155Q-39 -155 15.5 -121.5Q70 -88 122 -35Q128 49 130 124.5Q132 200 131 264.5Q130 329 127 380.5Q124 432 120 468L44 466L52 498Q71 506 99 512.5Q127 519 150 519Q169 519 176.5 510Q184 501 186 476Q189 438 191 384.5Q193 331 193 271Q193 211 190.5 150Q188 89 182 36H185Q224 85 264 143.5Q304 202 338 261Q372 320 396.5 374.5Q421 429 429 468L346 466L352 495Q371 505 398 512.5Q425 520 451 520Q487 520 485 487Q485 463 472 427Q459 391 437.5 348Q416 305 388 257.5Q360 210 328.5 163Q297 116 264 72Q231 28 200 -7Q161 -51 124 -87Q87 -123 50.5 -148Q14 -173 -23.5 -186.5Q-61 -200 -100 -200Q-131 -200 -151 -187Q-171 -174 -170 -148Q-170 -129 -158.5 -110.5Q-147 -92 -137 -82H-96ZM240 607 417 724 441 672 252 581Z" glyph-name="yacute" horiz-adv-x="453" unicode="&#253;" /><glyph d="M-111 -151Q-103 -155 -88 -155Q-39 -155 15.5 -121.5Q70 -88 122 -35Q128 49 130 124.5Q132 200 131 264.5Q130 329 127 380.5Q124 432 120 468L44 466L52 498Q71 506 99 512.5Q127 519 150 519Q169 519 176.5 510Q184 501 186 476Q189 438 191 384.5Q193 331 193 271Q193 211 190.5 150Q188 89 182 36H185Q224 85 264 143.5Q304 202 338 261Q372 320 396.5 374.5Q421 429 429 468L346 466L352 495Q371 505 398 512.5Q425 520 451 520Q487 520 485 487Q485 463 472 427Q459 391 437.5 348Q416 305 388 257.5Q360 210 328.5 163Q297 116 264 72Q231 28 200 -7Q161 -51 124 -87Q87 -123 50.5 -148Q14 -173 -23.5 -186.5Q-61 -200 -100 -200Q-131 -200 -151 -187Q-171 -174 -170 -148Q-170 -129 -158.5 -110.5Q-147 -92 -137 -82H-96ZM246 629Q229 629 217.5 641Q206 653 206 667Q206 687 219 699.5Q232 712 249 712Q267 712 278 700.5Q289 689 289 675Q289 656 276.5 642.5Q264 629 246 629ZM397 629Q380 629 368.5 641Q357 653 357 667Q357 687 370 699.5Q383 712 400 712Q418 712 429 700.5Q440 689 440 675Q440 656 427.5 642.5Q415 629 397 629Z" glyph-name="ydieresis" horiz-adv-x="453" unicode="&#255;" /><glyph d="M113 362H266L166 648L118 662L126 693H324L316 662L237 648L329 371H332L557 648L483 662L491 693H674L666 662L612 648L372 362H526L517 323H343L322 241H495L486 202H312L272 46L358 32L350 0H104L111 32L204 46L244 202H72L82 241H254L275 323H103Z" glyph-name="yen" horiz-adv-x="574" unicode="&#165;" /><glyph d="M31 -3Q-23 -3 -23 38Q-23 71 21 110L351 408Q287 427 228 445.5Q169 464 127 482L108 392H73Q67 407 67 422Q67 463 93.5 491.5Q120 520 167 520Q218 520 274.5 499.5Q331 479 385 447L409 514Q430 514 443 506Q456 498 456 482Q456 465 443 445Q430 425 397 396L76 107Q154 87 213.5 67.5Q273 48 309 33L329 114H378Q375 90 369.5 67.5Q364 45 353 28.5Q342 12 324.5 2Q307 -8 280 -8Q232 -8 173.5 14Q115 36 49 68H45Z" glyph-name="z" horiz-adv-x="423" unicode="z" /><glyph d="M186 700 206 721 296 643 424 721 437 699 306 586H272ZM31 -3Q-23 -3 -23 38Q-23 71 21 110L351 408Q287 427 228 445.5Q169 464 127 482L108 392H73Q67 407 67 422Q67 463 93.5 491.5Q120 520 167 520Q218 520 274.5 499.5Q331 479 385 447L409 514Q430 514 443 506Q456 498 456 482Q456 465 443 445Q430 425 397 396L76 107Q154 87 213.5 67.5Q273 48 309 33L329 114H378Q375 90 369.5 67.5Q364 45 353 28.5Q342 12 324.5 2Q307 -8 280 -8Q232 -8 173.5 14Q115 36 49 68H45Z" glyph-name="zcaron" horiz-adv-x="423" unicode="&#158;" /><glyph d="M254 30Q299 30 338 50Q377 70 409 108Q436 138 460 184.5Q484 231 501 283.5Q518 336 528 391Q538 446 538 493Q538 574 502.5 618Q467 662 394 662Q311 662 246 588Q217 556 192.5 510Q168 464 149.5 411.5Q131 359 120.5 304.5Q110 250 110 202Q110 119 146 74.5Q182 30 254 30ZM248 -12Q202 -12 164.5 3Q127 18 100 47.5Q73 77 58.5 120.5Q44 164 44 221Q44 282 56 341Q68 400 90.5 454Q113 508 145 553.5Q177 599 216.5 632Q256 665 302.5 684Q349 703 400 703Q492 703 548 645Q604 587 604 471Q604 380 577.5 293.5Q551 207 503.5 139Q456 71 390.5 29.5Q325 -12 248 -12Z" glyph-name="zero" horiz-adv-x="598" unicode="0" /></font>
</defs>
</svg>
