<?xml version="1.0" standalone="no"?><!DOCTYPE svg PUBLIC "-//W3C//DTD SVG 1.1//EN" "http://www.w3.org/Graphics/SVG/1.1/DTD/svg11.dtd" ><svg version="1.1" xmlns="http://www.w3.org/2000/svg"><defs><font horiz-adv-x="0" id="font"><font-face ascent="790" bbox="-192 -225 1321 938" cap-height="693" descent="-210" font-family="Guardian SansTT" font-stretch="normal" font-style="normal" font-weight="700" units-per-em="1000" x-height="532" /><missing-glyph horiz-adv-x="499" /><glyph glyph-name=".null" horiz-adv-x="0" /><glyph d="M243 693H450L690 0H492L446 137H218L175 0H0ZM256 262H407L333 492H329Z" glyph-name="A" horiz-adv-x="690" unicode="A" /><glyph d="M347 693H909V554H629V422H847V285H629V139H920V0H440V145H246L176 0H-5ZM303 270H440V547H436Z" glyph-name="AE" horiz-adv-x="951" unicode="&#198;" /><glyph d="M243 693H450L690 0H492L446 137H218L175 0H0ZM256 262H407L333 492H329ZM325 870H503L407 729H266Z" glyph-name="Aacute" horiz-adv-x="690" unicode="&#193;" /><glyph d="M243 693H450L690 0H492L446 137H218L175 0H0ZM256 262H407L333 492H329ZM273 864H415L517 729H392L343 773L295 729H170Z" glyph-name="Acircumflex" horiz-adv-x="690" unicode="&#194;" /><glyph d="M243 693H450L690 0H492L446 137H218L175 0H0ZM256 262H407L333 492H329ZM376 860H522V732H376ZM166 860H311V732H166Z" glyph-name="Adieresis" horiz-adv-x="690" unicode="&#196;" /><glyph d="M243 693H450L690 0H492L446 137H218L175 0H0ZM256 262H407L333 492H329ZM190 872H367L424 729H283Z" glyph-name="Agrave" horiz-adv-x="690" unicode="&#192;" /><glyph d="M243 693H450L690 0H492L446 137H218L175 0H0ZM256 262H407L333 492H329ZM346 716Q319 716 297 725Q275 734 259 749Q243 764 234.5 784Q226 804 226 827Q226 850 234.5 870Q243 890 259 905Q275 920 297 929Q319 938 346 938Q373 938 395 929Q417 920 433 905Q449 890 457.5 870Q466 850 466 827Q466 804 457.5 784Q449 764 433 749Q417 734 395 725Q373 716 346 716ZM346 782Q366 782 377 794.5Q388 807 388 827Q388 847 377 859.5Q366 872 346 872Q326 872 314.5 859.5Q303 847 303 827Q303 807 314.5 794.5Q326 782 346 782Z" glyph-name="Aring" horiz-adv-x="690" unicode="&#197;" /><glyph d="M243 693H450L690 0H492L446 137H218L175 0H0ZM256 262H407L333 492H329ZM161 731Q165 769 176.5 795Q188 821 204.5 837Q221 853 241 860Q261 867 282 867Q301 867 317 862.5Q333 858 347 853Q361 848 372.5 843.5Q384 839 393 839Q407 839 414 846Q421 853 425 866H528Q524 828 512.5 802Q501 776 484.5 760Q468 744 448 737Q428 730 407 730Q389 730 372.5 734.5Q356 739 342.5 744Q329 749 317 753.5Q305 758 296 758Q271 758 265 731Z" glyph-name="Atilde" horiz-adv-x="690" unicode="&#195;" /><glyph d="M52 693H353Q471 693 531 649.5Q591 606 591 517Q591 396 475 364V361Q540 350 581 311.5Q622 273 622 197Q622 155 607.5 118.5Q593 82 561.5 56Q530 30 481.5 15Q433 0 366 0H52ZM325 125Q370 125 395.5 146.5Q421 168 421 215Q421 260 395.5 280Q370 300 320 300H243V125ZM313 406Q354 406 379.5 424.5Q405 443 405 490Q405 534 382.5 552Q360 570 316 570H243V406Z" glyph-name="B" horiz-adv-x="642" unicode="B" /><glyph d="M359 -12Q201 -12 112.5 72.5Q24 157 24 333V357Q24 452 50.5 518Q77 584 123.5 625.5Q170 667 232.5 686Q295 705 367 705Q432 705 475.5 697Q519 689 548 675V534Q516 545 483.5 551.5Q451 558 406 558Q321 558 276 514.5Q231 471 231 371V340Q231 240 269.5 187.5Q308 135 404 135Q457 135 492.5 144Q528 153 554 164V25Q519 9 473 -1.5Q427 -12 359 -12Z" glyph-name="C" horiz-adv-x="576" unicode="C" /><glyph d="M359 -12Q348 -12 337 -11V-41Q394 -43 419.5 -63.5Q445 -84 445 -121Q445 -169 395.5 -195Q346 -221 233 -225V-157Q284 -153 305.5 -146Q327 -139 327 -122Q327 -108 311 -102.5Q295 -97 257 -95V-1Q170 17 112 72Q24 157 24 333V357Q24 452 50.5 518Q77 584 123.5 625.5Q170 667 232.5 686Q295 705 367 705Q432 705 475.5 697Q519 689 548 675V534Q516 545 483.5 551.5Q451 558 406 558Q321 558 276 514.5Q231 471 231 371V340Q231 240 269.5 187.5Q308 135 404 135Q457 135 492.5 144Q528 153 554 164V25Q519 9 473 -1.5Q427 -12 359 -12Z" glyph-name="Ccedilla" horiz-adv-x="576" unicode="&#199;" /><glyph d="M52 693H319Q400 693 464.5 675Q529 657 573.5 617.5Q618 578 641.5 515.5Q665 453 665 363V340Q665 252 641.5 188Q618 124 573.5 82Q529 40 465 20Q401 0 320 0H52ZM316 137Q352 137 379 147Q406 157 424 179.5Q442 202 451 239Q460 276 460 331V366Q460 421 450 458Q440 495 421 516.5Q402 538 374.5 547Q347 556 311 556H247V137Z" glyph-name="D" horiz-adv-x="689" unicode="D" /><glyph d="M52 693H531V554H245V422H469V285H245V139H541V0H52Z" glyph-name="E" horiz-adv-x="573" unicode="E" /><glyph d="M279 870H457L361 729H220ZM52 693H531V554H245V422H469V285H245V139H541V0H52Z" glyph-name="Eacute" horiz-adv-x="573" unicode="&#201;" /><glyph d="M228 864H370L472 729H347L298 773L250 729H125ZM52 693H531V554H245V422H469V285H245V139H541V0H52Z" glyph-name="Ecircumflex" horiz-adv-x="573" unicode="&#202;" /><glyph d="M52 693H531V554H245V422H469V285H245V139H541V0H52ZM327 860H473V732H327ZM117 860H262V732H117Z" glyph-name="Edieresis" horiz-adv-x="573" unicode="&#203;" /><glyph d="M144 872H321L378 729H237ZM52 693H531V554H245V422H469V285H245V139H541V0H52Z" glyph-name="Egrave" horiz-adv-x="573" unicode="&#200;" /><glyph d="M5 413H55V693H322Q403 693 467.5 675Q532 657 576.5 617.5Q621 578 644.5 515.5Q668 453 668 363V340Q668 252 644.5 188Q621 124 576.5 82Q532 40 468 20Q404 0 323 0H55V281H5ZM322 137Q358 137 385 147Q412 157 430 179.5Q448 202 457 239Q466 276 466 331V366Q466 421 456 458Q446 495 427 516.5Q408 538 380.5 547Q353 556 317 556H248V413H373V281H248V137Z" glyph-name="Eth" horiz-adv-x="692" unicode="&#208;" /><glyph d="M19 466H84Q97 532 127.5 578Q158 624 200.5 652Q243 680 294.5 692.5Q346 705 401 705Q464 705 506.5 698Q549 691 581 676V540Q549 550 517 556.5Q485 563 441 563Q384 563 344 542.5Q304 522 289 466H477V370H280V321H477V225H290Q305 172 342 151Q379 130 442 130Q492 130 526 139Q560 148 586 159V25Q551 8 507 -2Q463 -12 408 -12Q342 -12 288 1.5Q234 15 192.5 43.5Q151 72 123.5 117Q96 162 84 225H19V321H75V370H19Z" glyph-name="Euro" horiz-adv-x="607" unicode="&#8364;" /><glyph d="M52 693H530V554H247V397H468V261H247V0H52Z" glyph-name="F" horiz-adv-x="553" unicode="F" /><glyph d="M380 -11Q297 -11 231.5 7.5Q166 26 119.5 67Q73 108 48.5 174Q24 240 24 335V358Q24 457 53.5 523.5Q83 590 132.5 630.5Q182 671 247.5 688Q313 705 385 705Q458 705 511.5 693Q565 681 594 667V524Q565 535 521.5 545.5Q478 556 412 556Q356 556 320 542.5Q284 529 263 503.5Q242 478 233.5 442.5Q225 407 225 363V332Q225 284 231 245.5Q237 207 253.5 181Q270 155 299 141Q328 127 374 127Q396 127 415.5 130.5Q435 134 448 139V248H349V375H629V34Q609 26 582 18Q555 10 522.5 3.5Q490 -3 453.5 -7Q417 -11 380 -11Z" glyph-name="G" horiz-adv-x="664" unicode="G" /><glyph d="M52 693H247V426H465V693H660V0H465V286H247V0H52Z" glyph-name="H" horiz-adv-x="712" unicode="H" /><glyph d="M56 693H251V0H56Z" glyph-name="I" horiz-adv-x="306" unicode="I" /><glyph d="M56 693H251V0H56ZM135 870H313L217 729H76Z" glyph-name="Iacute" horiz-adv-x="306" unicode="&#205;" /><glyph d="M56 693H251V0H56ZM84 864H226L328 729H203L154 773L106 729H-19Z" glyph-name="Icircumflex" horiz-adv-x="306" unicode="&#206;" /><glyph d="M179 860H312V732H179ZM-6 860H127V732H-6ZM56 693H251V0H56Z" glyph-name="Idieresis" horiz-adv-x="306" unicode="&#207;" /><glyph d="M56 693H251V0H56ZM0 872H177L234 729H93Z" glyph-name="Igrave" horiz-adv-x="306" unicode="&#204;" /><glyph d="M172 -8Q114 -8 78.5 1Q43 10 18 24V155Q35 150 57.5 146Q80 142 105 142Q150 142 177.5 161.5Q205 181 205 229V693H400V203Q400 157 386 118Q372 79 343.5 51Q315 23 272 7.5Q229 -8 172 -8Z" glyph-name="J" horiz-adv-x="447" unicode="J" /><glyph d="M52 693H247V375L464 693H660L433 366L675 0H458L247 318V0H52Z" glyph-name="K" horiz-adv-x="674" unicode="K" /><glyph d="M52 693H247V139H510V0H52Z" glyph-name="L" horiz-adv-x="530" unicode="L" /><glyph d="M3 332 61 354V693H256V425L428 491V358L256 291V139H519V0H61V221L3 198Z" glyph-name="Lslash" horiz-adv-x="540" unicode="&#321;" /><glyph d="M52 693H313L439 276H443L569 693H826V0H635V468H631L491 0H356L217 469H213V0H52Z" glyph-name="M" horiz-adv-x="878" unicode="M" /><glyph d="M52 693H262L486 305H489V693H655V0H470L222 432H218V0H52Z" glyph-name="N" horiz-adv-x="707" unicode="N" /><glyph d="M189 731Q193 769 204.5 795Q216 821 232.5 837Q249 853 269 860Q289 867 310 867Q329 867 345 862.5Q361 858 375 853Q389 848 400.5 843.5Q412 839 421 839Q435 839 442 846Q449 853 453 866H556Q552 828 540.5 802Q529 776 512.5 760Q496 744 476 737Q456 730 435 730Q417 730 400.5 734.5Q384 739 370.5 744Q357 749 345 753.5Q333 758 324 758Q299 758 293 731ZM52 693H262L486 305H489V693H655V0H470L222 432H218V0H52Z" glyph-name="Ntilde" horiz-adv-x="707" unicode="&#209;" /><glyph d="M357 -12Q287 -12 226.5 7.5Q166 27 121 69Q76 111 50 176.5Q24 242 24 333V356Q24 449 52 515Q80 581 126.5 623Q173 665 234 685Q295 705 362 705Q432 705 492.5 685.5Q553 666 598 624Q643 582 669 516.5Q695 451 695 360V337Q695 244 667 178Q639 112 592.5 70Q546 28 485 8Q424 -12 357 -12ZM361 130Q425 130 457.5 177.5Q490 225 490 325V360Q490 469 458.5 516Q427 563 358 563Q228 563 228 369V334Q228 278 236.5 239Q245 200 261.5 176Q278 152 303 141Q328 130 361 130Z" glyph-name="O" horiz-adv-x="719" unicode="O" /><glyph d="M368 0Q287 0 223.5 18Q160 36 115.5 75.5Q71 115 47.5 177.5Q24 240 24 330V353Q24 441 47.5 505Q71 569 115 611Q159 653 223 673Q287 693 367 693H908V554H628V422H845V285H628V139H918V0ZM435 137V556H371Q335 556 308.5 546Q282 536 264 513.5Q246 491 237 454Q228 417 228 362V327Q228 271 238 234.5Q248 198 267 176.5Q286 155 313 146Q340 137 375 137Z" glyph-name="OE" horiz-adv-x="950" unicode="&#338;" /><glyph d="M339 870H517L421 729H280ZM357 -12Q287 -12 226.5 7.5Q166 27 121 69Q76 111 50 176.5Q24 242 24 333V356Q24 449 52 515Q80 581 126.5 623Q173 665 234 685Q295 705 362 705Q432 705 492.5 685.5Q553 666 598 624Q643 582 669 516.5Q695 451 695 360V337Q695 244 667 178Q639 112 592.5 70Q546 28 485 8Q424 -12 357 -12ZM361 130Q425 130 457.5 177.5Q490 225 490 325V360Q490 469 458.5 516Q427 563 358 563Q228 563 228 369V334Q228 278 236.5 239Q245 200 261.5 176Q278 152 303 141Q328 130 361 130Z" glyph-name="Oacute" horiz-adv-x="719" unicode="&#211;" /><glyph d="M288 864H430L532 729H407L358 773L310 729H185ZM357 -12Q287 -12 226.5 7.5Q166 27 121 69Q76 111 50 176.5Q24 242 24 333V356Q24 449 52 515Q80 581 126.5 623Q173 665 234 685Q295 705 362 705Q432 705 492.5 685.5Q553 666 598 624Q643 582 669 516.5Q695 451 695 360V337Q695 244 667 178Q639 112 592.5 70Q546 28 485 8Q424 -12 357 -12ZM361 130Q425 130 457.5 177.5Q490 225 490 325V360Q490 469 458.5 516Q427 563 358 563Q228 563 228 369V334Q228 278 236.5 239Q245 200 261.5 176Q278 152 303 141Q328 130 361 130Z" glyph-name="Ocircumflex" horiz-adv-x="719" unicode="&#212;" /><glyph d="M391 860H537V732H391ZM181 860H326V732H181ZM357 -12Q287 -12 226.5 7.5Q166 27 121 69Q76 111 50 176.5Q24 242 24 333V356Q24 449 52 515Q80 581 126.5 623Q173 665 234 685Q295 705 362 705Q432 705 492.5 685.5Q553 666 598 624Q643 582 669 516.5Q695 451 695 360V337Q695 244 667 178Q639 112 592.5 70Q546 28 485 8Q424 -12 357 -12ZM361 130Q425 130 457.5 177.5Q490 225 490 325V360Q490 469 458.5 516Q427 563 358 563Q228 563 228 369V334Q228 278 236.5 239Q245 200 261.5 176Q278 152 303 141Q328 130 361 130Z" glyph-name="Odieresis" horiz-adv-x="719" unicode="&#214;" /><glyph d="M204 872H381L438 729H297ZM357 -12Q287 -12 226.5 7.5Q166 27 121 69Q76 111 50 176.5Q24 242 24 333V356Q24 449 52 515Q80 581 126.5 623Q173 665 234 685Q295 705 362 705Q432 705 492.5 685.5Q553 666 598 624Q643 582 669 516.5Q695 451 695 360V337Q695 244 667 178Q639 112 592.5 70Q546 28 485 8Q424 -12 357 -12ZM361 130Q425 130 457.5 177.5Q490 225 490 325V360Q490 469 458.5 516Q427 563 358 563Q228 563 228 369V334Q228 278 236.5 239Q245 200 261.5 176Q278 152 303 141Q328 130 361 130Z" glyph-name="Ograve" horiz-adv-x="719" unicode="&#210;" /><glyph d="M357 -12Q300 -12 249.5 1Q199 14 157 41L122 0H2L90 104Q58 146 41 202Q24 258 24 333V356Q24 449 52 515Q80 581 126.5 623Q173 665 234 685Q295 705 362 705Q417 705 466 692.5Q515 680 557 654L590 693H710L625 593Q658 551 676.5 493.5Q695 436 695 360V337Q695 244 667 178Q639 112 592.5 70Q546 28 485 8Q424 -12 357 -12ZM361 126Q428 126 463 174.5Q498 223 498 324V367Q498 387 496.5 404.5Q495 422 493 438L261 164Q278 144 303 135Q328 126 361 126ZM221 329Q221 292 224 262L454 533Q420 567 358 567Q291 567 256 518.5Q221 470 221 369Z" glyph-name="Oslash" horiz-adv-x="719" unicode="&#216;" /><glyph d="M175 731Q179 769 190.5 795Q202 821 218.5 837Q235 853 255 860Q275 867 296 867Q315 867 331 862.5Q347 858 361 853Q375 848 386.5 843.5Q398 839 407 839Q421 839 428 846Q435 853 439 866H542Q538 828 526.5 802Q515 776 498.5 760Q482 744 462 737Q442 730 421 730Q403 730 386.5 734.5Q370 739 356.5 744Q343 749 331 753.5Q319 758 310 758Q285 758 279 731ZM357 -12Q287 -12 226.5 7.5Q166 27 121 69Q76 111 50 176.5Q24 242 24 333V356Q24 449 52 515Q80 581 126.5 623Q173 665 234 685Q295 705 362 705Q432 705 492.5 685.5Q553 666 598 624Q643 582 669 516.5Q695 451 695 360V337Q695 244 667 178Q639 112 592.5 70Q546 28 485 8Q424 -12 357 -12ZM361 130Q425 130 457.5 177.5Q490 225 490 325V360Q490 469 458.5 516Q427 563 358 563Q228 563 228 369V334Q228 278 236.5 239Q245 200 261.5 176Q278 152 303 141Q328 130 361 130Z" glyph-name="Otilde" horiz-adv-x="719" unicode="&#213;" /><glyph d="M52 693H340Q480 693 547.5 635Q615 577 615 468Q615 350 546 290Q477 230 346 230H247V0H52ZM317 354Q371 354 392.5 379.5Q414 405 414 457Q414 516 391.5 538Q369 560 321 560H247V354Z" glyph-name="P" horiz-adv-x="630" unicode="P" /><glyph d="M695 347Q695 286 682 239Q669 192 646 157.5Q623 123 591 100.5Q559 78 520 66L709 29L676 -115L290 -13Q232 2 183.5 26Q135 50 99.5 89.5Q64 129 44 188Q24 247 24 333V356Q24 449 52 515Q80 581 126.5 623Q173 665 234 685Q295 705 362 705Q432 705 492.5 685.5Q553 666 598 624.5Q643 583 669 518.5Q695 454 695 364ZM361 126Q490 126 490 322V360Q490 469 458.5 516Q427 563 358 563Q228 563 228 369V331Q228 219 261.5 172.5Q295 126 361 126Z" glyph-name="Q" horiz-adv-x="719" unicode="Q" /><glyph d="M52 693H344Q476 693 541.5 641Q607 589 607 477Q607 406 576.5 365.5Q546 325 492 302V298L647 0H445L318 252H247V0H52ZM317 369Q369 369 391.5 393.5Q414 418 414 468Q414 516 391 538.5Q368 561 315 561H245V369Z" glyph-name="R" horiz-adv-x="649" unicode="R" /><glyph d="M251 -12Q178 -12 119.5 -1.5Q61 9 23 29V171Q69 154 118.5 143Q168 132 228 132Q287 132 311.5 148.5Q336 165 336 197Q336 227 318.5 240Q301 253 251 263L199 273Q158 281 125 295Q92 309 69 334Q46 359 33.5 396.5Q21 434 21 488Q21 537 36.5 577Q52 617 84 645.5Q116 674 164.5 689.5Q213 705 279 705Q320 705 351.5 702Q383 699 407.5 694Q432 689 450.5 682.5Q469 676 484 669V529Q448 542 402.5 552Q357 562 297 562Q203 562 203 503Q203 475 220.5 462Q238 449 284 440L336 430Q382 421 417.5 406.5Q453 392 477 367.5Q501 343 513.5 306.5Q526 270 526 217Q526 105 456.5 46.5Q387 -12 251 -12Z" glyph-name="S" horiz-adv-x="547" unicode="S" /><glyph d="M343 729H201L98 864H223L272 820L320 864H445ZM251 -12Q178 -12 119.5 -1.5Q61 9 23 29V171Q69 154 118.5 143Q168 132 228 132Q287 132 311.5 148.5Q336 165 336 197Q336 227 318.5 240Q301 253 251 263L199 273Q158 281 125 295Q92 309 69 334Q46 359 33.5 396.5Q21 434 21 488Q21 537 36.5 577Q52 617 84 645.5Q116 674 164.5 689.5Q213 705 279 705Q320 705 351.5 702Q383 699 407.5 694Q432 689 450.5 682.5Q469 676 484 669V529Q448 542 402.5 552Q357 562 297 562Q203 562 203 503Q203 475 220.5 462Q238 449 284 440L336 430Q382 421 417.5 406.5Q453 392 477 367.5Q501 343 513.5 306.5Q526 270 526 217Q526 105 456.5 46.5Q387 -12 251 -12Z" glyph-name="Scaron" horiz-adv-x="547" unicode="&#352;" /><glyph d="M195 554H13V693H572V554H390V0H195Z" glyph-name="T" horiz-adv-x="584" unicode="T" /><glyph d="M52 693H247V585H342Q483 585 547.5 529.5Q612 474 612 368Q612 140 347 140H247V0H52ZM320 263Q374 263 396.5 285.5Q419 308 419 358Q419 413 395.5 432Q372 451 324 451H247V263Z" glyph-name="Thorn" horiz-adv-x="627" unicode="&#222;" /><glyph d="M349 -12Q48 -12 48 248V693H243V255Q243 188 270.5 159Q298 130 355 130Q412 130 438 159Q464 188 464 256V693H637V249Q637 119 567.5 53.5Q498 -12 349 -12Z" glyph-name="U" horiz-adv-x="684" unicode="U" /><glyph d="M333 870H511L415 729H274ZM349 -12Q48 -12 48 248V693H243V255Q243 188 270.5 159Q298 130 355 130Q412 130 438 159Q464 188 464 256V693H637V249Q637 119 567.5 53.5Q498 -12 349 -12Z" glyph-name="Uacute" horiz-adv-x="684" unicode="&#218;" /><glyph d="M282 864H424L526 729H401L352 773L304 729H179ZM349 -12Q48 -12 48 248V693H243V255Q243 188 270.5 159Q298 130 355 130Q412 130 438 159Q464 188 464 256V693H637V249Q637 119 567.5 53.5Q498 -12 349 -12Z" glyph-name="Ucircumflex" horiz-adv-x="684" unicode="&#219;" /><glyph d="M349 -12Q48 -12 48 248V693H243V255Q243 188 270.5 159Q298 130 355 130Q412 130 438 159Q464 188 464 256V693H637V249Q637 119 567.5 53.5Q498 -12 349 -12ZM385 860H531V732H385ZM175 860H320V732H175Z" glyph-name="Udieresis" horiz-adv-x="684" unicode="&#220;" /><glyph d="M198 872H375L432 729H291ZM349 -12Q48 -12 48 248V693H243V255Q243 188 270.5 159Q298 130 355 130Q412 130 438 159Q464 188 464 256V693H637V249Q637 119 567.5 53.5Q498 -12 349 -12Z" glyph-name="Ugrave" horiz-adv-x="684" unicode="&#217;" /><glyph d="M3 693H201L349 225H353L499 693H677L440 0H240Z" glyph-name="V" horiz-adv-x="680" unicode="V" /><glyph d="M7 693H202L293 256H297L408 693H564L674 256H678L775 693H944L778 0H583L479 427H476L368 0H172Z" glyph-name="W" horiz-adv-x="951" unicode="W" /><glyph d="M214 357 23 693H237L357 474H361L473 693H664L476 362L679 0H465L334 236H330L199 0H8Z" glyph-name="X" horiz-adv-x="686" unicode="X" /><glyph d="M221 271 1 693H207L331 441H334L456 693H634L416 271V0H221Z" glyph-name="Y" horiz-adv-x="636" unicode="Y" /><glyph d="M221 271 1 693H207L331 441H334L456 693H634L416 271V0H221ZM312 870H490L394 729H253Z" glyph-name="Yacute" horiz-adv-x="636" unicode="&#221;" /><glyph d="M221 271 1 693H207L331 441H334L456 693H634L416 271V0H221ZM364 860H510V732H364ZM154 860H299V732H154Z" glyph-name="Ydieresis" horiz-adv-x="636" unicode="&#376;" /><glyph d="M27 133 327 551V554H45V693H550V561L249 142V139H549V0H27Z" glyph-name="Z" horiz-adv-x="580" unicode="Z" /><glyph d="M374 729H232L129 864H254L303 820L351 864H476ZM27 133 327 551V554H45V693H550V561L249 142V139H549V0H27Z" glyph-name="Zcaron" horiz-adv-x="580" unicode="&#381;" /><glyph d="M183 -10Q109 -10 63 27Q17 64 17 141Q17 183 31 212Q45 241 70 260Q95 279 130.5 290Q166 301 210 307L307 320V343Q307 385 284 398Q261 411 203 411Q163 411 126.5 406.5Q90 402 62 395V511Q143 542 270 542Q319 542 358.5 533.5Q398 525 425.5 505.5Q453 486 467.5 455Q482 424 482 379V0H336L324 41H318Q301 17 267 3.5Q233 -10 183 -10ZM243 101Q263 101 280.5 107Q298 113 307 122V225L245 219Q213 217 199 203Q185 189 185 159Q185 126 201.5 113.5Q218 101 243 101Z" glyph-name="a" horiz-adv-x="521" unicode="a" /><glyph d="M183 -10Q109 -10 63 27Q17 64 17 141Q17 183 31 212Q45 241 70 260Q95 279 130.5 290Q166 301 210 307L307 320V343Q307 385 284 398Q261 411 203 411Q163 411 126.5 406.5Q90 402 62 395V511Q143 542 270 542Q319 542 358.5 533.5Q398 525 425.5 505.5Q453 486 467.5 455Q482 424 482 379V0H336L324 41H318Q301 17 267 3.5Q233 -10 183 -10ZM243 101Q263 101 280.5 107Q298 113 307 122V225L245 219Q213 217 199 203Q185 189 185 159Q185 126 201.5 113.5Q218 101 243 101ZM253 736H431L327 581H186Z" glyph-name="aacute" horiz-adv-x="521" unicode="&#225;" /><glyph d="M183 -10Q109 -10 63 27Q17 64 17 141Q17 183 31 212Q45 241 70 260Q95 279 130.5 290Q166 301 210 307L307 320V343Q307 385 284 398Q261 411 203 411Q163 411 126.5 406.5Q90 402 62 395V511Q143 542 270 542Q319 542 358.5 533.5Q398 525 425.5 505.5Q453 486 467.5 455Q482 424 482 379V0H336L324 41H318Q301 17 267 3.5Q233 -10 183 -10ZM243 101Q263 101 280.5 107Q298 113 307 122V225L245 219Q213 217 199 203Q185 189 185 159Q185 126 201.5 113.5Q218 101 243 101ZM196 736H339L443 581H318L267 638L218 581H92Z" glyph-name="acircumflex" horiz-adv-x="521" unicode="&#226;" /><glyph d="M235 736H413L309 581H168Z" glyph-name="acute" horiz-adv-x="498" unicode="&#180;" /><glyph d="M226 736H400L323 581H186Z" glyph-name="acute.pl" horiz-adv-x="498" /><glyph d="M227 870H405L309 729H168Z" glyph-name="acute.uc" horiz-adv-x="498" /><glyph d="M218 872H393L320 729H183Z" glyph-name="acute.ucpl" horiz-adv-x="498" /><glyph d="M183 -10Q109 -10 63 27Q17 64 17 141Q17 183 31 212Q45 241 70 260Q95 279 130.5 290Q166 301 210 307L307 320V343Q307 385 284 398Q261 411 203 411Q163 411 126.5 406.5Q90 402 62 395V511Q143 542 270 542Q319 542 358.5 533.5Q398 525 425.5 505.5Q453 486 467.5 455Q482 424 482 379V0H336L324 41H318Q301 17 267 3.5Q233 -10 183 -10ZM243 101Q263 101 280.5 107Q298 113 307 122V225L245 219Q213 217 199 203Q185 189 185 159Q185 126 201.5 113.5Q218 101 243 101ZM296 725H441V592H296ZM90 725H236V592H90Z" glyph-name="adieresis" horiz-adv-x="521" unicode="&#228;" /><glyph d="M186 -10Q110 -10 63.5 27Q17 64 17 141Q17 183 31 211.5Q45 240 70 258.5Q95 277 130.5 287Q166 297 210 303L307 316V343Q307 385 284 398Q261 411 203 411Q163 411 126.5 406.5Q90 402 62 395V511Q104 527 155 534.5Q206 542 264 542Q319 542 355.5 528.5Q392 515 412 484Q438 512 476.5 527Q515 542 570 542Q634 542 679.5 523.5Q725 505 753.5 470Q782 435 795 384Q808 333 808 267V222H479Q487 159 523 137Q559 115 627 115Q675 115 715 124.5Q755 134 786 147V38Q756 20 706 5Q656 -10 582 -10Q508 -10 455.5 8.5Q403 27 368 63Q334 25 289.5 7.5Q245 -10 186 -10ZM323 137Q308 176 305 227L245 223Q213 221 199 206Q185 191 185 160Q185 126 201.5 113.5Q218 101 243 101Q268 101 287 110Q306 119 323 137ZM563 426Q548 426 534 421Q520 416 508.5 404Q497 392 489 371.5Q481 351 478 320H639Q639 378 620 402Q601 426 563 426Z" glyph-name="ae" horiz-adv-x="827" unicode="&#230;" /><glyph d="M183 -10Q109 -10 63 27Q17 64 17 141Q17 183 31 212Q45 241 70 260Q95 279 130.5 290Q166 301 210 307L307 320V343Q307 385 284 398Q261 411 203 411Q163 411 126.5 406.5Q90 402 62 395V511Q143 542 270 542Q319 542 358.5 533.5Q398 525 425.5 505.5Q453 486 467.5 455Q482 424 482 379V0H336L324 41H318Q301 17 267 3.5Q233 -10 183 -10ZM243 101Q263 101 280.5 107Q298 113 307 122V225L245 219Q213 217 199 203Q185 189 185 159Q185 126 201.5 113.5Q218 101 243 101ZM98 736H275L342 581H201Z" glyph-name="agrave" horiz-adv-x="521" unicode="&#224;" /><glyph d="M295 -12Q161 -12 92 41Q23 94 23 194Q23 270 65.5 319.5Q108 369 176 398Q152 431 141 461.5Q130 492 130 525Q130 566 146 599.5Q162 633 192 656.5Q222 680 263.5 692.5Q305 705 356 705Q457 705 511 661Q565 617 565 545Q565 481 523 439.5Q481 398 411 366L514 243Q536 291 547 351H685Q678 287 656.5 233.5Q635 180 602 137L716 0H504L477 32Q392 -12 295 -12ZM321 110Q364 110 400 125L249 308Q227 292 214 269.5Q201 247 201 215Q201 166 231 138Q261 110 321 110ZM302 535Q302 512 313.5 490.5Q325 469 348 443Q377 460 394.5 484Q412 508 412 536Q412 564 397.5 581Q383 598 359 598Q335 598 318.5 583.5Q302 569 302 535Z" glyph-name="ampersand" horiz-adv-x="721" unicode="&amp;" /><glyph d="M183 -10Q109 -10 63 27Q17 64 17 141Q17 183 31 212Q45 241 70 260Q95 279 130.5 290Q166 301 210 307L307 320V343Q307 385 284 398Q261 411 203 411Q163 411 126.5 406.5Q90 402 62 395V511Q143 542 270 542Q319 542 358.5 533.5Q398 525 425.5 505.5Q453 486 467.5 455Q482 424 482 379V0H336L324 41H318Q301 17 267 3.5Q233 -10 183 -10ZM243 101Q263 101 280.5 107Q298 113 307 122V225L245 219Q213 217 199 203Q185 189 185 159Q185 126 201.5 113.5Q218 101 243 101ZM265 575Q238 575 216 584Q194 593 178 608Q162 623 153.5 643Q145 663 145 686Q145 709 153.5 729Q162 749 178 764Q194 779 216 788Q238 797 265 797Q292 797 314 788Q336 779 352 764Q368 749 376.5 729Q385 709 385 686Q385 663 376.5 643Q368 623 352 608Q336 593 314 584Q292 575 265 575ZM265 641Q285 641 296 653.5Q307 666 307 686Q307 706 296 718.5Q285 731 265 731Q245 731 233.5 718.5Q222 706 222 686Q222 666 233.5 653.5Q245 641 265 641Z" glyph-name="aring" horiz-adv-x="521" unicode="&#229;" /><glyph d="M171 693H313L464 438H323L242 556L160 438H20Z" glyph-name="asciicircum" horiz-adv-x="484" unicode="^" /><glyph d="M25 223Q28 271 40.5 303Q53 335 71 354.5Q89 374 110.5 382Q132 390 155 390Q175 390 192.5 384.5Q210 379 225 372.5Q240 366 252.5 360.5Q265 355 275 355Q303 355 309 389H420Q416 341 404 308.5Q392 276 374 257Q356 238 334 230Q312 222 290 222Q270 222 252.5 227.5Q235 233 220 239Q205 245 192.5 250.5Q180 256 170 256Q156 256 147.5 247Q139 238 135 223Z" glyph-name="asciitilde" horiz-adv-x="445" unicode="~" /><glyph d="M158 434 74 373 20 473 117 511 20 550 74 650 158 588 151 693H260L254 588L338 650L392 550L294 511L392 473L338 373L254 434L260 330H151Z" glyph-name="asterisk" horiz-adv-x="412" unicode="*" /><glyph d="M444 -161Q351 -161 274.5 -137.5Q198 -114 143.5 -66.5Q89 -19 59 53Q29 125 29 221Q29 316 61 399.5Q93 483 154 545.5Q215 608 302 644Q389 680 499 680Q584 680 655 655.5Q726 631 777 585.5Q828 540 856 475.5Q884 411 884 330Q884 256 865 200Q846 144 812.5 107Q779 70 733 51.5Q687 33 633 33Q578 33 545.5 50Q513 67 505 94H500Q480 71 448.5 54Q417 37 375 37Q346 37 320 45.5Q294 54 274.5 72.5Q255 91 243 121Q231 151 231 195Q231 256 244.5 307Q258 358 283.5 395Q309 432 346 453Q383 474 430 474Q465 474 492.5 466Q520 458 537 444H542L547 465H692L639 189Q634 166 637 148.5Q640 131 664 131Q713 131 744 180Q775 229 775 323Q775 383 758.5 431.5Q742 480 707.5 514.5Q673 549 619.5 568Q566 587 491 587Q410 587 345 560.5Q280 534 234 486Q188 438 163.5 371Q139 304 139 224Q139 147 160 91.5Q181 36 220.5 0Q260 -36 317 -53Q374 -70 445 -70Q523 -70 587 -57Q651 -44 696 -30V-110Q649 -132 587 -146.5Q525 -161 444 -161ZM430 140Q446 140 457 147Q468 154 477 162L513 365Q498 380 468 380Q449 380 434 365Q419 350 409 325.5Q399 301 394 268Q389 235 389 199Q389 140 430 140Z" glyph-name="at" horiz-adv-x="910" unicode="@" /><glyph d="M183 -10Q109 -10 63 27Q17 64 17 141Q17 183 31 212Q45 241 70 260Q95 279 130.5 290Q166 301 210 307L307 320V343Q307 385 284 398Q261 411 203 411Q163 411 126.5 406.5Q90 402 62 395V511Q143 542 270 542Q319 542 358.5 533.5Q398 525 425.5 505.5Q453 486 467.5 455Q482 424 482 379V0H336L324 41H318Q301 17 267 3.5Q233 -10 183 -10ZM243 101Q263 101 280.5 107Q298 113 307 122V225L245 219Q213 217 199 203Q185 189 185 159Q185 126 201.5 113.5Q218 101 243 101ZM84 591Q88 629 99.5 656Q111 683 127.5 700Q144 717 164 725Q184 733 205 733Q224 733 240 728Q256 723 270 717.5Q284 712 295.5 707Q307 702 316 702Q330 702 337 710Q344 718 348 732H451Q447 694 435.5 667Q424 640 407.5 623Q391 606 371 598Q351 590 330 590Q312 590 295.5 595Q279 600 265.5 605.5Q252 611 240 616Q228 621 219 621Q194 621 188 591Z" glyph-name="atilde" horiz-adv-x="521" unicode="&#227;" /><glyph d="M274 -11Q205 -11 146 -1Q87 9 42 26V739H217V493H222Q250 516 286 529Q322 542 373 542Q410 542 445.5 529.5Q481 517 509 488Q537 459 553.5 410.5Q570 362 570 289V277Q570 200 551 145Q532 90 494.5 55.5Q457 21 402 5Q347 -11 274 -11ZM284 110Q306 110 325 116Q344 122 358.5 138.5Q373 155 381.5 183Q390 211 390 255V271Q390 312 383.5 338.5Q377 365 365 380.5Q353 396 334.5 402Q316 408 292 408Q269 408 249 402Q229 396 217 390V122Q228 117 244.5 113.5Q261 110 284 110Z" glyph-name="b" horiz-adv-x="591" unicode="b" /><glyph d="M8 739H160L406 -120H255Z" glyph-name="backslash" horiz-adv-x="397" unicode="\" /><glyph d="M76 739H211V-120H76Z" glyph-name="bar" horiz-adv-x="287" unicode="|" /><glyph d="M373 -122Q293 -121 240.5 -108.5Q188 -96 157 -73Q126 -50 113 -17.5Q100 15 100 57V166Q100 208 79.5 224.5Q59 241 14 244V373Q59 376 79.5 391Q100 406 100 448V557Q100 598 113 631.5Q126 665 157 689Q188 713 240.5 726.5Q293 740 373 741V611Q325 607 300 592Q275 577 275 533V438Q275 414 270 393Q265 372 252 355.5Q239 339 216.5 327Q194 315 160 309V306Q194 300 216.5 288Q239 276 252 259.5Q265 243 270 222Q275 201 275 177V82Q275 60 281.5 46.5Q288 33 300 25Q312 17 330.5 13.5Q349 10 373 8Z" glyph-name="braceleft" horiz-adv-x="397" unicode="{" /><glyph d="M24 8Q72 12 97 27Q122 42 122 86V181Q122 205 127 226Q132 247 145 263.5Q158 280 180 292Q202 304 237 310V313Q202 319 180 331Q158 343 145 359.5Q132 376 127 397Q122 418 122 442V537Q122 559 115.5 572.5Q109 586 97 594Q85 602 66.5 605.5Q48 609 24 611V741Q103 740 156 727.5Q209 715 240 692Q271 669 284 636.5Q297 604 297 562V453Q297 411 317.5 394.5Q338 378 383 375V246Q338 243 317.5 228Q297 213 297 171V62Q297 21 284 -12.5Q271 -46 240 -70Q209 -94 156 -107.5Q103 -121 24 -122Z" glyph-name="braceright" horiz-adv-x="397" unicode="}" /><glyph d="M55 739H352V610H230V9H352V-120H55Z" glyph-name="bracketleft" horiz-adv-x="376" unicode="[" /><glyph d="M24 9H145V610H24V739H320V-120H24Z" glyph-name="bracketright" horiz-adv-x="376" unicode="]" /><glyph d="M249 586Q176 586 134 626.5Q92 667 89 731H202Q204 711 215.5 699.5Q227 688 249 688Q270 688 281.5 699.5Q293 711 296 731H408Q406 667 364 626.5Q322 586 249 586Z" glyph-name="breve" horiz-adv-x="498" unicode="&#728;" /><glyph d="M249 726Q176 726 134 764.5Q92 803 89 865H202Q204 845 215.5 834Q227 823 249 823Q270 823 281.5 834Q293 845 296 865H408Q406 803 364 764.5Q322 726 249 726Z" glyph-name="breve.uc" horiz-adv-x="498" /><glyph d="M76 282H231V-120H76ZM76 737H231V363H76Z" glyph-name="brokenbar" horiz-adv-x="307" unicode="&#166;" /><glyph d="M185 165Q153 165 125 177Q97 189 76 210Q55 231 43 258.5Q31 286 31 318Q31 351 43 379Q55 407 76 427.5Q97 448 125 459.5Q153 471 185 471Q216 471 244.5 459.5Q273 448 294.5 427.5Q316 407 328.5 379Q341 351 341 318Q341 286 328.5 258.5Q316 231 294.5 210Q273 189 244.5 177Q216 165 185 165Z" glyph-name="bullet" horiz-adv-x="372" unicode="&#8226;" /><glyph d="M287 -10Q156 -10 87.5 57.5Q19 125 19 256V269Q19 337 38.5 388Q58 439 94 473.5Q130 508 181 525Q232 542 295 542Q350 542 384.5 535Q419 528 444 515V388Q418 398 392.5 404Q367 410 327 410Q270 410 236 380Q202 350 202 282V265Q202 190 232 156Q262 122 329 122Q368 122 397.5 130Q427 138 447 146V26Q424 12 385 1Q346 -10 287 -10Z" glyph-name="c" horiz-adv-x="468" unicode="c" /><glyph d="M320 581H177L73 736H199L249 679L299 736H424Z" glyph-name="caron" horiz-adv-x="498" unicode="&#711;" /><glyph d="M204 575 211 739H332L300 575Z" glyph-name="caron.alt" horiz-adv-x="488" /><glyph d="M320 729H178L75 864H200L249 820L297 864H422Z" glyph-name="caron.uc" horiz-adv-x="498" /><glyph d="M287 -10H270V-41Q327 -43 352.5 -63.5Q378 -84 378 -121Q378 -169 329 -194.5Q280 -220 167 -225V-157Q218 -153 239 -146Q260 -139 260 -122Q260 -108 244 -102.5Q228 -97 190 -95V1Q128 17 87 57Q19 125 19 256V269Q19 337 38.5 388Q58 439 94 473.5Q130 508 181 525Q232 542 295 542Q350 542 384.5 535Q419 528 444 515V388Q418 398 392.5 404Q367 410 327 410Q270 410 236 380Q202 350 202 282V265Q202 190 232 156Q262 122 329 122Q368 122 397.5 130Q427 138 447 146V26Q424 12 385 1Q346 -10 287 -10Z" glyph-name="ccedilla" horiz-adv-x="468" unicode="&#231;" /><glyph d="M193 -157Q244 -153 265.5 -146Q287 -139 287 -122Q287 -108 271 -102.5Q255 -97 217 -95V0H297V-41Q354 -43 379.5 -63.5Q405 -84 405 -121Q405 -169 355.5 -195Q306 -221 193 -225Z" glyph-name="cedilla" horiz-adv-x="498" unicode="&#184;" /><glyph d="M225 -5Q123 12 71 78Q19 144 19 256V269Q19 337 38.5 388Q58 439 95 473.5Q132 508 184.5 525Q237 542 302 542H316L327 603H411L399 534Q432 526 455 515V391Q435 399 418 404Q401 409 378 411L329 118H340Q379 118 408.5 126Q438 134 458 141V27Q436 13 399 2.5Q362 -8 308 -10L290 -118H206ZM195 264Q195 170 249 138L294 410Q246 402 220.5 371.5Q195 341 195 283Z" glyph-name="cent" horiz-adv-x="477" unicode="&#162;" /><glyph d="M177 736H320L424 581H299L248 638L199 581H73Z" glyph-name="circumflex" horiz-adv-x="498" unicode="&#710;" /><glyph d="M178 864H320L422 729H297L248 773L200 729H75Z" glyph-name="circumflex.uc" horiz-adv-x="498" /><glyph d="M49 446H218V290H49ZM49 156H218V0H49Z" glyph-name="colon" horiz-adv-x="267" unicode=":" /><glyph d="M49 156H222L173 -73H37Z" glyph-name="comma" horiz-adv-x="259" unicode="," /><glyph d="M388 -14Q311 -14 245 14Q179 42 131 91Q83 140 56 205Q29 270 29 344Q29 418 56 483Q83 548 131 596Q179 644 245 672Q311 700 388 700Q464 700 530 672Q596 644 644.5 596Q693 548 720.5 483Q748 418 748 344Q748 270 720.5 205Q693 140 644.5 91Q596 42 530 14Q464 -14 388 -14ZM388 41Q452 41 506 63.5Q560 86 599 126.5Q638 167 660 222.5Q682 278 682 344Q682 410 660 465.5Q638 521 599 560.5Q560 600 506 622.5Q452 645 388 645Q323 645 269.5 622.5Q216 600 177 560.5Q138 521 116.5 465.5Q95 410 95 344Q95 278 116.5 222.5Q138 167 177 126.5Q216 86 269.5 63.5Q323 41 388 41ZM403 141Q312 141 258.5 189Q205 237 205 337V346Q205 399 221 437Q237 475 264.5 499Q292 523 328.5 534.5Q365 546 406 546Q446 546 471 540Q496 534 514 526V429Q498 434 480.5 437.5Q463 441 439 441Q396 441 374 421.5Q352 402 352 355V339Q352 290 371.5 267Q391 244 439 244Q465 244 483.5 249Q502 254 516 259V163Q496 155 470.5 148Q445 141 403 141Z" glyph-name="copyright" horiz-adv-x="777" unicode="&#169;" /><glyph d="M232 -10Q190 -10 152 4.5Q114 19 84.5 50.5Q55 82 38 131.5Q21 181 21 252V264Q21 339 39 392Q57 445 89 478Q121 511 165.5 526.5Q210 542 263 542Q305 542 332.5 534.5Q360 527 374 519V739H549V0H398L386 41H381Q327 -10 232 -10ZM299 118Q324 118 343 125.5Q362 133 374 142V403Q363 411 344.5 416.5Q326 422 301 422Q278 422 259.5 415Q241 408 228 391.5Q215 375 208.5 346.5Q202 318 202 276V259Q202 217 209 189.5Q216 162 228.5 146.5Q241 131 259 124.5Q277 118 299 118Z" glyph-name="d" horiz-adv-x="591" unicode="d" /><glyph d="M167 385H23V522H167V693H334V522H478V385H334V-69H167Z" glyph-name="dagger" horiz-adv-x="501" unicode="&#8224;" /><glyph d="M24 239H169V385H24V522H169V693H335V522H479V385H335V239H479V102H335V-69H169V102H24Z" glyph-name="daggerdbl" horiz-adv-x="503" unicode="&#8225;" /><glyph d="M199 388Q161 388 131 400.5Q101 413 79.5 435Q58 457 46.5 485.5Q35 514 35 546Q35 578 46.5 606.5Q58 635 79.5 656.5Q101 678 131 690.5Q161 703 199 703Q237 703 267.5 690.5Q298 678 319.5 656.5Q341 635 352.5 606.5Q364 578 364 546Q364 514 352.5 485.5Q341 457 319.5 435Q298 413 267.5 400.5Q237 388 199 388ZM199 475Q231 475 246.5 496Q262 517 262 546Q262 575 246.5 595.5Q231 616 199 616Q167 616 152 595.5Q137 575 137 546Q137 517 152 496Q167 475 199 475Z" glyph-name="degree" horiz-adv-x="398" unicode="&#176;" /><glyph d="M279 725H424V592H279ZM73 725H219V592H73Z" glyph-name="dieresis" horiz-adv-x="498" unicode="&#168;" /><glyph d="M281 860H427V732H281ZM71 860H216V732H71Z" glyph-name="dieresis.uc" horiz-adv-x="498" /><glyph d="M31 409H492V273H31ZM179 227H345V75H179ZM179 607H345V455H179Z" glyph-name="divide" horiz-adv-x="523" unicode="&#247;" /><glyph d="M165 -6Q78 3 27 31V163Q65 149 105 138.5Q145 128 189 123L219 283L215 284Q170 293 135 307.5Q100 322 75.5 346.5Q51 371 38 407Q25 443 25 493Q25 539 40.5 577.5Q56 616 87.5 644.5Q119 673 167.5 689Q216 705 282 705H299L311 765H395L382 699Q419 694 444 685.5Q469 677 489 668V537Q463 547 429.5 554.5Q396 562 357 567L330 422H332Q382 412 419.5 397.5Q457 383 481.5 359Q506 335 518.5 300.5Q531 266 531 216Q531 104 461.5 46Q392 -12 256 -12H248L228 -118H144ZM365 194Q365 223 352 238Q339 253 300 264L273 122Q324 127 344.5 145.5Q365 164 365 194ZM185 508Q185 482 198 467Q211 452 249 441L274 572Q226 570 205.5 553.5Q185 537 185 508Z" glyph-name="dollar" horiz-adv-x="556" unicode="$" /><glyph d="M159 726H336V592H159Z" glyph-name="dotaccent" horiz-adv-x="498" unicode="&#729;" /><glyph d="M163 860H333V732H163Z" glyph-name="dotaccent.uc" horiz-adv-x="498" /><glyph d="M45 532H220V0H45Z" glyph-name="dotlessi" horiz-adv-x="265" unicode="&#305;" /><glyph d="M301 -10Q158 -10 88.5 59Q19 128 19 261V274Q19 336 37.5 385.5Q56 435 90.5 470Q125 505 173.5 523.5Q222 542 282 542Q349 542 395.5 523.5Q442 505 471 470Q500 435 513.5 384Q527 333 527 267V221H198Q206 159 242 137Q278 115 346 115Q394 115 434 124.5Q474 134 505 147V38Q475 20 425 5Q375 -10 301 -10ZM282 426Q267 426 253 421Q239 416 227.5 404Q216 392 208 371.5Q200 351 197 320H358Q358 379 339 402.5Q320 426 282 426Z" glyph-name="e" horiz-adv-x="546" unicode="e" /><glyph d="M272 736H450L346 581H205ZM301 -10Q158 -10 88.5 59Q19 128 19 261V274Q19 336 37.5 385.5Q56 435 90.5 470Q125 505 173.5 523.5Q222 542 282 542Q349 542 395.5 523.5Q442 505 471 470Q500 435 513.5 384Q527 333 527 267V221H198Q206 159 242 137Q278 115 346 115Q394 115 434 124.5Q474 134 505 147V38Q475 20 425 5Q375 -10 301 -10ZM282 426Q267 426 253 421Q239 416 227.5 404Q216 392 208 371.5Q200 351 197 320H358Q358 379 339 402.5Q320 426 282 426Z" glyph-name="eacute" horiz-adv-x="546" unicode="&#233;" /><glyph d="M212 736H355L459 581H334L283 638L234 581H108ZM301 -10Q158 -10 88.5 59Q19 128 19 261V274Q19 336 37.5 385.5Q56 435 90.5 470Q125 505 173.5 523.5Q222 542 282 542Q349 542 395.5 523.5Q442 505 471 470Q500 435 513.5 384Q527 333 527 267V221H198Q206 159 242 137Q278 115 346 115Q394 115 434 124.5Q474 134 505 147V38Q475 20 425 5Q375 -10 301 -10ZM282 426Q267 426 253 421Q239 416 227.5 404Q216 392 208 371.5Q200 351 197 320H358Q358 379 339 402.5Q320 426 282 426Z" glyph-name="ecircumflex" horiz-adv-x="546" unicode="&#234;" /><glyph d="M314 725H459V592H314ZM108 725H254V592H108ZM301 -10Q158 -10 88.5 59Q19 128 19 261V274Q19 336 37.5 385.5Q56 435 90.5 470Q125 505 173.5 523.5Q222 542 282 542Q349 542 395.5 523.5Q442 505 471 470Q500 435 513.5 384Q527 333 527 267V221H198Q206 159 242 137Q278 115 346 115Q394 115 434 124.5Q474 134 505 147V38Q475 20 425 5Q375 -10 301 -10ZM282 426Q267 426 253 421Q239 416 227.5 404Q216 392 208 371.5Q200 351 197 320H358Q358 379 339 402.5Q320 426 282 426Z" glyph-name="edieresis" horiz-adv-x="546" unicode="&#235;" /><glyph d="M301 -10Q158 -10 88.5 59Q19 128 19 261V274Q19 336 37.5 385.5Q56 435 90.5 470Q125 505 173.5 523.5Q222 542 282 542Q349 542 395.5 523.5Q442 505 471 470Q500 435 513.5 384Q527 333 527 267V221H198Q206 159 242 137Q278 115 346 115Q394 115 434 124.5Q474 134 505 147V38Q475 20 425 5Q375 -10 301 -10ZM282 426Q267 426 253 421Q239 416 227.5 404Q216 392 208 371.5Q200 351 197 320H358Q358 379 339 402.5Q320 426 282 426ZM117 736H294L361 581H220Z" glyph-name="egrave" horiz-adv-x="546" unicode="&#232;" /><glyph d="M307 -12Q234 -12 181 1.5Q128 15 93 39.5Q58 64 41 98Q24 132 24 172Q24 228 60 271.5Q96 315 155 339Q100 368 71.5 406Q43 444 43 507Q43 552 62 589Q81 626 116 651.5Q151 677 200.5 691Q250 705 312 705Q440 705 505 656Q570 607 570 522Q570 471 541 431.5Q512 392 455 366Q521 339 558 301Q595 263 595 195Q595 98 519.5 43Q444 -12 307 -12ZM301 110Q354 110 381.5 131.5Q409 153 409 189Q409 208 402 223.5Q395 239 378 252Q361 265 333 275.5Q305 286 264 297Q231 278 211.5 252.5Q192 227 192 193Q192 155 219.5 132.5Q247 110 301 110ZM338 418Q368 434 386.5 454.5Q405 475 405 510Q405 541 383 560.5Q361 580 314 580Q270 580 247 561.5Q224 543 224 512Q224 479 251 458.5Q278 438 338 418Z" glyph-name="eight" horiz-adv-x="620" unicode="8" /><glyph d="M552 156H722V0H552ZM45 156H214V0H45ZM298 156H468V0H298Z" glyph-name="ellipsis" horiz-adv-x="766" unicode="&#8230;" /><glyph d="M27 353H735V221H27Z" glyph-name="emdash" horiz-adv-x="762" unicode="&#8212;" /><glyph d="M27 353H403V221H27Z" glyph-name="endash" horiz-adv-x="430" unicode="&#8211;" /><glyph d="M39 477H481V344H39ZM39 262H481V129H39Z" glyph-name="equal" horiz-adv-x="520" unicode="=" /><glyph d="M205 651Q178 675 150.5 697Q123 719 95 739H299Q314 730 329 719.5Q344 709 359 698L464 730L483 662L423 644Q452 615 477.5 580Q503 545 521.5 503.5Q540 462 551 413.5Q562 365 562 309V283Q562 208 543 153Q524 98 488.5 62Q453 26 402.5 8Q352 -10 290 -10Q156 -10 87.5 58Q19 126 19 257V270Q19 337 37 386Q55 435 85.5 467Q116 499 156.5 514.5Q197 530 243 530Q268 530 286 525Q304 520 318 512H323Q309 535 293.5 555Q278 575 261 595L119 552L100 620ZM382 289Q382 348 368 402Q355 409 337 414Q319 419 296 419Q271 419 253 412.5Q235 406 223 389.5Q211 373 205 346Q199 319 199 279V259Q199 213 206 184Q213 155 225 139Q237 123 254 117Q271 111 291 111Q313 111 330 118Q347 125 358.5 142.5Q370 160 376 189.5Q382 219 382 263Z" glyph-name="eth" horiz-adv-x="582" unicode="&#240;" /><glyph d="M46 693H246L221 229H72ZM62 153H231V0H62Z" glyph-name="exclam" horiz-adv-x="293" unicode="!" /><glyph d="M72 344H221L246 -120H47ZM61 573H231V420H61Z" glyph-name="exclamdown" horiz-adv-x="293" unicode="&#161;" /><glyph d="M78 409H10V532H78V584Q78 626 92 657.5Q106 689 131 709Q156 729 190.5 739Q225 749 267 749Q308 749 338.5 743.5Q369 738 384 732V623Q374 625 358 627Q342 629 325 629Q253 629 253 564V532H359V409H253V0H78Z" glyph-name="f" horiz-adv-x="369" unicode="f" /><glyph d="M78 409H10V532H78V584Q78 626 91 657Q104 688 126.5 708.5Q149 729 180.5 739Q212 749 249 749Q291 749 313.5 744.5Q336 740 350 735V626Q335 629 312 629Q283 629 268 614Q253 599 253 565V532H553V0H378V409H253V0H78ZM389 726H554V592H389Z" glyph-name="f_i" horiz-adv-x="598" unicode="&#64257;" /><glyph d="M378 0V625Q359 629 330 629Q290 629 271.5 612Q253 595 253 553V532H332V409H253V0H78V409H10V532H78V564Q78 617 94.5 652.5Q111 688 142.5 709.5Q174 731 220.5 740Q267 749 328 749Q408 749 458.5 742.5Q509 736 553 725V0Z" glyph-name="f_l" horiz-adv-x="598" unicode="&#64258;" /><glyph d="M229 -12Q153 -12 102.5 1Q52 14 18 31V161Q50 150 88 142.5Q126 135 172 135Q239 135 273.5 155.5Q308 176 308 224Q308 274 275 293.5Q242 313 172 313Q133 313 104 309.5Q75 306 45 299L67 693H482V554H206L198 433Q214 436 231 438Q248 440 275 440Q393 440 452 387.5Q511 335 511 222Q511 113 437.5 50.5Q364 -12 229 -12Z" glyph-name="five" horiz-adv-x="540" unicode="5" /><glyph d="M34 430H116L133 531Q150 631 205.5 675Q261 719 352 719Q393 719 418.5 713.5Q444 708 460 700V583Q446 586 435 587.5Q424 589 409 589Q371 589 349.5 572.5Q328 556 321 512L307 430H409V306H289L240 4Q225 -96 173 -139.5Q121 -183 26 -183Q-11 -183 -37.5 -176Q-64 -169 -75 -163V-49Q-67 -51 -56 -53Q-45 -55 -31 -55Q-2 -55 19.5 -40Q41 -25 48 13L96 306H34Z" glyph-name="florin" horiz-adv-x="466" unicode="&#402;" /><glyph d="M330 165H15V288L341 694H520V297H627V165H520V0H330ZM333 297V498H329L176 300V297Z" glyph-name="four" horiz-adv-x="642" unicode="4" /><glyph d="M319 713H441L-70 -40H-192Z" glyph-name="fraction" horiz-adv-x="259" unicode="&#8260;" /><glyph d="M257 -200Q120 -200 58 -165Q-4 -130 -4 -73Q-4 -31 24.5 -6Q53 19 95 33V38Q70 49 53.5 68.5Q37 88 37 119Q37 152 55.5 179.5Q74 207 103 229Q69 249 50.5 281.5Q32 314 32 360V367Q32 454 94 498Q156 542 263 542Q316 542 360 533H539V432H471Q489 408 489 371V364Q489 279 427.5 237Q366 195 262 195Q219 195 185 202Q175 189 175 175Q175 159 184 152Q193 145 216 145H367Q452 145 499 110Q546 75 546 -5Q546 -49 528.5 -84.5Q511 -120 475.5 -146Q440 -172 385.5 -186Q331 -200 257 -200ZM256 -93Q323 -93 348 -77Q373 -61 373 -36Q373 -12 359.5 -4.5Q346 3 305 3H192Q176 -3 166 -13.5Q156 -24 156 -43Q156 -66 176.5 -79.5Q197 -93 256 -93ZM263 293Q294 293 310 308.5Q326 324 326 362V372Q326 414 309.5 428Q293 442 262 442Q230 442 214 426.5Q198 411 198 373V363Q198 324 214.5 308.5Q231 293 263 293Z" glyph-name="g" horiz-adv-x="548" unicode="g" /><glyph d="M267 -204Q201 -204 149 -193.5Q97 -183 59 -166V-47Q72 -51 91 -55.5Q110 -60 131.5 -63.5Q153 -67 176.5 -69.5Q200 -72 223 -72Q304 -72 339.5 -51Q375 -30 375 21V63H370Q320 13 226 13Q185 13 148 26Q111 39 83 68Q55 97 38 145Q21 193 21 262V274Q21 350 39 401Q57 452 88.5 483.5Q120 515 162.5 528.5Q205 542 254 542Q305 542 338.5 528.5Q372 515 392 501H397L407 532H549V6Q549 -52 529.5 -92Q510 -132 473.5 -157Q437 -182 385 -193Q333 -204 267 -204ZM297 136Q324 136 343 143.5Q362 151 374 159V396Q363 404 342.5 409.5Q322 415 302 415Q279 415 260.5 409.5Q242 404 229 389.5Q216 375 209 350.5Q202 326 202 287V270Q202 229 209 203Q216 177 228.5 162Q241 147 258.5 141.5Q276 136 297 136Z" glyph-name="g.alt" horiz-adv-x="591" /><glyph d="M426 -9Q372 -9 337.5 -3Q303 3 272 15V131Q300 123 327 117Q354 111 390 111Q456 111 456 151Q456 168 445.5 177Q435 186 409 197L376 210Q320 232 297 265.5Q274 299 274 352Q274 392 291.5 422.5Q309 453 330.5 478.5Q352 504 369.5 526Q387 548 387 572Q387 600 368.5 614Q350 628 316 628Q269 628 243 601Q217 574 217 515V0H42V528Q42 587 63 629Q84 671 121.5 697.5Q159 724 210 736.5Q261 749 322 749Q564 749 564 589Q564 550 543.5 519.5Q523 489 499 465.5Q475 442 454.5 423Q434 404 434 388Q434 371 444.5 363Q455 355 478 344L512 329Q572 303 599 264Q626 225 626 160Q626 80 574.5 35.5Q523 -9 426 -9Z" glyph-name="germandbls" horiz-adv-x="642" unicode="&#223;" /><glyph d="M85 736H262L329 581H188Z" glyph-name="grave" horiz-adv-x="498" unicode="`" /><glyph d="M95 872H272L329 729H188Z" glyph-name="grave.uc" horiz-adv-x="498" /><glyph d="M41 222 278 322 41 421V564L438 389V255L41 79Z" glyph-name="greater" horiz-adv-x="472" unicode="&gt;" /><glyph d="M251 231V274L343 453H488L397 253L488 52H343ZM30 231V274L122 453H267L176 253L267 52H122Z" glyph-name="guillemotleft" horiz-adv-x="520" unicode="&#171;" /><glyph d="M344 252 253 453H398L490 274V231L398 52H253ZM123 252 32 453H177L269 274V231L177 52H32Z" glyph-name="guillemotright" horiz-adv-x="520" unicode="&#187;" /><glyph d="M30 231V274L122 453H267L176 253L267 52H122Z" glyph-name="guilsinglleft" horiz-adv-x="299" unicode="&#8249;" /><glyph d="M123 252 32 453H177L269 274V231L177 52H32Z" glyph-name="guilsinglright" horiz-adv-x="299" unicode="&#8250;" /><glyph d="M42 739H217V489H222Q253 514 293.5 528Q334 542 385 542Q460 542 501 508.5Q542 475 542 396V0H367V348Q367 380 352 392.5Q337 405 300 405Q279 405 256.5 399.5Q234 394 217 387V0H42Z" glyph-name="h" horiz-adv-x="581" unicode="h" /><glyph d="M321 736H479L410 581H277ZM120 736H278L209 581H76Z" glyph-name="hungarumlaut" horiz-adv-x="498" unicode="&#733;" /><glyph d="M316 872H474L410 729H277ZM115 872H273L209 729H76Z" glyph-name="hungarumlaut.uc" horiz-adv-x="498" /><glyph d="M40 356H291V218H40Z" glyph-name="hyphen" horiz-adv-x="331" unicode="-" /><glyph d="M45 532H220V0H45ZM44 726H221V592H44Z" glyph-name="i" horiz-adv-x="265" unicode="i" /><glyph d="M121 736H299L195 581H54ZM45 532H220V0H45Z" glyph-name="iacute" horiz-adv-x="265" unicode="&#237;" /><glyph d="M45 532H220V0H45ZM61 736H204L296 581H172L132 638L92 581H-32Z" glyph-name="icircumflex" horiz-adv-x="265" unicode="&#238;" /><glyph d="M156 725H290V592H156ZM-26 725H107V592H-26ZM45 532H220V0H45Z" glyph-name="idieresis" horiz-adv-x="265" unicode="&#239;" /><glyph d="M45 532H220V0H45ZM-34 736H143L210 581H69Z" glyph-name="igrave" horiz-adv-x="265" unicode="&#236;" /><glyph d="M31 -198Q-2 -198 -27 -193Q-52 -188 -67 -180V-69Q-59 -71 -48.5 -72Q-38 -73 -27 -73Q8 -73 26.5 -58Q45 -43 45 -9V532H220V-26Q220 -64 210 -96Q200 -128 177.5 -150.5Q155 -173 119 -185.5Q83 -198 31 -198ZM44 726H221V592H44Z" glyph-name="j" horiz-adv-x="265" unicode="j" /><glyph d="M217 246V0H42V739H217V308L370 532H545L374 288L554 0H368Z" glyph-name="k" horiz-adv-x="558" unicode="k" /><glyph d="M45 739H220V0H45Z" glyph-name="l" horiz-adv-x="265" unicode="l" /><glyph d="M193 -10Q121 -10 83 22.5Q45 55 45 135V739H220V158Q220 134 229 126Q238 118 254 118Q264 118 273.5 119Q283 120 293 123V12Q280 5 255.5 -2.5Q231 -10 193 -10Z" glyph-name="l.alt" horiz-adv-x="305" /><glyph d="M34 255V389L431 564V421L194 322L431 223V79Z" glyph-name="less" horiz-adv-x="472" unicode="&lt;" /><glyph d="M4 379 59 407V739H234V495L296 529V395L234 361V0H59V273L4 245Z" glyph-name="lslash" horiz-adv-x="295" unicode="&#322;" /><glyph d="M42 532H211V485H216Q249 511 289 526.5Q329 542 381 542Q427 542 458.5 528Q490 514 508 482H513Q552 511 596.5 526.5Q641 542 689 542Q758 542 796 509.5Q834 477 834 398V0H659V349Q659 379 645.5 392Q632 405 600 405Q580 405 562.5 400Q545 395 525 387Q525 384 525.5 381Q526 378 526 375V0H351V349Q351 379 337.5 392Q324 405 292 405Q272 405 253 400Q234 395 217 387V0H42Z" glyph-name="m" horiz-adv-x="874" unicode="m" /><glyph d="M107 709H391V594H107Z" glyph-name="macron" horiz-adv-x="498" unicode="&#175;" /><glyph d="M101 847H397V732H101Z" glyph-name="macron.uc" horiz-adv-x="498" /><glyph d="M31 409H487V273H31Z" glyph-name="minus" horiz-adv-x="518" unicode="&#8722;" /><glyph d="M48 199 178 328 48 457 145 553 275 423 406 553 503 457 372 328 503 199 406 103 275 232 145 103Z" glyph-name="multiply" horiz-adv-x="553" unicode="&#215;" /><glyph d="M42 532H211V485H216Q287 542 385 542Q460 542 501 508.5Q542 475 542 396V0H367V348Q367 380 352 392.5Q337 405 300 405Q279 405 256.5 399.5Q234 394 217 387V0H42Z" glyph-name="n" horiz-adv-x="581" unicode="n" /><glyph d="M256 -12Q190 -12 141.5 -4.5Q93 3 66 17V152Q77 149 93.5 145.5Q110 142 129 139.5Q148 137 168.5 135Q189 133 208 133Q258 133 294 140Q330 147 353 165Q376 183 387.5 213Q399 243 401 289Q376 275 338 263.5Q300 252 249 252Q145 252 85 304Q25 356 25 464Q25 514 41 558Q57 602 91 634.5Q125 667 177 686Q229 705 300 705Q441 705 521.5 624.5Q602 544 602 388V349Q602 252 578 183.5Q554 115 509 71.5Q464 28 400 8Q336 -12 256 -12ZM312 371Q339 371 362.5 378Q386 385 401 393V418Q401 502 376.5 540Q352 578 304 578Q217 578 217 473Q217 440 224 419.5Q231 399 243.5 388.5Q256 378 273.5 374.5Q291 371 312 371Z" glyph-name="nine" horiz-adv-x="631" unicode="9" /><glyph glyph-name="nonmarkingreturn" horiz-adv-x="166" /><glyph d="M42 532H211V485H216Q287 542 385 542Q460 542 501 508.5Q542 475 542 396V0H367V348Q367 380 352 392.5Q337 405 300 405Q279 405 256.5 399.5Q234 394 217 387V0H42ZM113 591Q117 629 128.5 656Q140 683 156.5 700Q173 717 193 725Q213 733 234 733Q253 733 269 728Q285 723 299 717.5Q313 712 324.5 707Q336 702 345 702Q359 702 366 710Q373 718 377 732H480Q476 694 464.5 667Q453 640 436.5 623Q420 606 400 598Q380 590 359 590Q341 590 324.5 595Q308 600 294.5 605.5Q281 611 269 616Q257 621 248 621Q223 621 217 591Z" glyph-name="ntilde" horiz-adv-x="581" unicode="&#241;" /><glyph d="M60 529H151L175 693H289L265 529H350L374 693H488L464 529H531V399H445L430 300H500V169H411L386 0H272L297 169H212L187 0H73L98 169H29V300H116L132 399H60ZM231 300H316L331 399H246Z" glyph-name="numbersign" horiz-adv-x="560" unicode="#" /><glyph d="M291 -10Q157 -10 88 59.5Q19 129 19 257V270Q19 338 39.5 389Q60 440 96.5 474Q133 508 183 525Q233 542 291 542Q425 542 494 474.5Q563 407 563 276V263Q563 194 542.5 143Q522 92 485.5 58Q449 24 399 7Q349 -10 291 -10ZM292 111Q313 111 330 118Q347 125 359 141.5Q371 158 377 185.5Q383 213 383 254V273Q383 320 376 349.5Q369 379 356.5 395Q344 411 327 416.5Q310 422 290 422Q246 422 222.5 391Q199 360 199 279V259Q199 213 206 184Q213 155 225.5 139Q238 123 255 117Q272 111 292 111Z" glyph-name="o" horiz-adv-x="582" unicode="o" /><glyph d="M278 736H456L352 581H211ZM291 -10Q157 -10 88 59.5Q19 129 19 257V270Q19 338 39.5 389Q60 440 96.5 474Q133 508 183 525Q233 542 291 542Q425 542 494 474.5Q563 407 563 276V263Q563 194 542.5 143Q522 92 485.5 58Q449 24 399 7Q349 -10 291 -10ZM292 111Q313 111 330 118Q347 125 359 141.5Q371 158 377 185.5Q383 213 383 254V273Q383 320 376 349.5Q369 379 356.5 395Q344 411 327 416.5Q310 422 290 422Q246 422 222.5 391Q199 360 199 279V259Q199 213 206 184Q213 155 225.5 139Q238 123 255 117Q272 111 292 111Z" glyph-name="oacute" horiz-adv-x="582" unicode="&#243;" /><glyph d="M219 736H362L466 581H341L290 638L241 581H115ZM291 -10Q157 -10 88 59.5Q19 129 19 257V270Q19 338 39.5 389Q60 440 96.5 474Q133 508 183 525Q233 542 291 542Q425 542 494 474.5Q563 407 563 276V263Q563 194 542.5 143Q522 92 485.5 58Q449 24 399 7Q349 -10 291 -10ZM292 111Q313 111 330 118Q347 125 359 141.5Q371 158 377 185.5Q383 213 383 254V273Q383 320 376 349.5Q369 379 356.5 395Q344 411 327 416.5Q310 422 290 422Q246 422 222.5 391Q199 360 199 279V259Q199 213 206 184Q213 155 225.5 139Q238 123 255 117Q272 111 292 111Z" glyph-name="ocircumflex" horiz-adv-x="582" unicode="&#244;" /><glyph d="M321 725H466V592H321ZM115 725H261V592H115ZM291 -10Q157 -10 88 59.5Q19 129 19 257V270Q19 338 39.5 389Q60 440 96.5 474Q133 508 183 525Q233 542 291 542Q425 542 494 474.5Q563 407 563 276V263Q563 194 542.5 143Q522 92 485.5 58Q449 24 399 7Q349 -10 291 -10ZM292 111Q313 111 330 118Q347 125 359 141.5Q371 158 377 185.5Q383 213 383 254V273Q383 320 376 349.5Q369 379 356.5 395Q344 411 327 416.5Q310 422 290 422Q246 422 222.5 391Q199 360 199 279V259Q199 213 206 184Q213 155 225.5 139Q238 123 255 117Q272 111 292 111Z" glyph-name="odieresis" horiz-adv-x="582" unicode="&#246;" /><glyph d="M287 -10Q156 -10 87.5 59.5Q19 129 19 257V270Q19 338 39.5 389Q60 440 96.5 474Q133 508 182 525Q231 542 288 542Q356 542 402 523.5Q448 505 477 469Q506 504 548.5 523Q591 542 651 542Q717 542 762.5 523.5Q808 505 836.5 470Q865 435 877.5 384Q890 333 890 267V221H561Q569 159 605 137Q641 115 709 115Q757 115 797 124.5Q837 134 868 147V38Q839 20 791.5 5Q744 -10 675 -10Q600 -10 551 10Q502 30 472 68Q441 29 394 9.5Q347 -10 287 -10ZM292 111Q313 111 330 118Q347 125 359 141.5Q371 158 377 185.5Q383 213 383 254V273Q383 320 376 349.5Q369 379 356.5 395Q344 411 327 416.5Q310 422 290 422Q246 422 222.5 391Q199 360 199 279V259Q199 213 206 184Q213 155 225.5 139Q238 123 255 117Q272 111 292 111ZM646 426Q615 426 590.5 404Q566 382 560 320H721Q721 379 702.5 402.5Q684 426 646 426Z" glyph-name="oe" horiz-adv-x="909" unicode="&#339;" /><glyph d="M253 -199Q195 -199 164 -175Q133 -151 133 -112Q133 -91 140.5 -74Q148 -57 160.5 -43Q173 -29 188.5 -18.5Q204 -8 220 0H322Q299 -19 284.5 -37Q270 -55 270 -73Q270 -90 280 -96Q290 -102 306 -102Q314 -102 321 -101Q328 -100 333 -99V-186Q320 -191 299.5 -195Q279 -199 253 -199Z" glyph-name="ogonek" horiz-adv-x="498" unicode="&#731;" /><glyph d="M291 -10Q157 -10 88 59.5Q19 129 19 257V270Q19 338 39.5 389Q60 440 96.5 474Q133 508 183 525Q233 542 291 542Q425 542 494 474.5Q563 407 563 276V263Q563 194 542.5 143Q522 92 485.5 58Q449 24 399 7Q349 -10 291 -10ZM292 111Q313 111 330 118Q347 125 359 141.5Q371 158 377 185.5Q383 213 383 254V273Q383 320 376 349.5Q369 379 356.5 395Q344 411 327 416.5Q310 422 290 422Q246 422 222.5 391Q199 360 199 279V259Q199 213 206 184Q213 155 225.5 139Q238 123 255 117Q272 111 292 111ZM123 736H300L367 581H226Z" glyph-name="ograve" horiz-adv-x="582" unicode="&#242;" /><glyph d="M133 513 22 504V614L215 695H327V0H133Z" glyph-name="one" horiz-adv-x="389" unicode="1" /><glyph d="M592 713H714L203 -40H81ZM93 565 18 556V639L145 694H232V270H93ZM551 91 633 162Q671 195 691.5 220.5Q712 246 712 276Q712 303 695 315Q678 327 646 327Q620 327 597 321.5Q574 316 557 309V404Q578 413 613 422Q648 431 699 431Q778 431 819 396.5Q860 362 860 299Q860 246 831 209Q802 172 754 135L711 100V99H864V0H551Z" glyph-name="onehalf" horiz-adv-x="892" unicode="&#189;" /><glyph d="M93 565 18 556V639L145 694H232V270H93ZM601 713H723L212 -40H90ZM649 96H459V181L655 423H786V186H846V96H786V0H649ZM653 184V290H651L569 186V184Z" glyph-name="onequarter" horiz-adv-x="862" unicode="&#188;" /><glyph d="M165 214Q99 214 58 247Q17 280 17 348Q17 385 30 411Q43 437 66 453.5Q89 470 121 479.5Q153 489 192 494L277 505V526Q277 563 257 574.5Q237 586 185 586Q150 586 116 581.5Q82 577 57 572V676Q133 704 246 704Q289 704 324.5 696.5Q360 689 385 671.5Q410 654 423.5 626Q437 598 437 558V223H303L293 259H287Q273 238 241 226Q209 214 165 214ZM221 314Q239 314 254 319.5Q269 325 277 333V425L224 420Q196 418 183.5 405Q171 392 171 365Q171 336 185.5 325Q200 314 221 314Z" glyph-name="ordfeminine" horiz-adv-x="475" unicode="&#170;" /><glyph d="M262 214Q144 214 81.5 275.5Q19 337 19 451V462Q19 523 37.5 568.5Q56 614 89 644Q122 674 166.5 689Q211 704 262 704Q381 704 443 643.5Q505 583 505 467V456Q505 395 486.5 349.5Q468 304 435 274Q402 244 357.5 229Q313 214 262 214ZM263 322Q300 322 320.5 349.5Q341 377 341 448V465Q341 506 335 531Q329 556 318.5 570Q308 584 293.5 589Q279 594 261 594Q223 594 203 567Q183 540 183 470V452Q183 412 189 387Q195 362 205.5 347.5Q216 333 230.5 327.5Q245 322 263 322Z" glyph-name="ordmasculine" horiz-adv-x="524" unicode="&#186;" /><glyph d="M291 -10Q194 -10 130 28L105 0H0L70 80Q19 146 19 257V270Q19 338 39.5 389Q60 440 96.5 474Q133 508 183 525Q233 542 291 542Q384 542 448 507L470 532H576L509 456Q563 388 563 276V263Q563 194 542.5 143Q522 92 485.5 58Q449 24 399 7Q349 -10 291 -10ZM292 105Q338 105 364 137.5Q390 170 390 254V281Q390 292 389.5 301.5Q389 311 388 320L221 131Q234 116 251.5 110.5Q269 105 292 105ZM192 254Q192 244 192 235Q192 226 193 218L358 405Q345 418 328 422.5Q311 427 290 427Q244 427 218 394.5Q192 362 192 279Z" glyph-name="oslash" horiz-adv-x="582" unicode="&#248;" /><glyph d="M291 -10Q157 -10 88 59.5Q19 129 19 257V270Q19 338 39.5 389Q60 440 96.5 474Q133 508 183 525Q233 542 291 542Q425 542 494 474.5Q563 407 563 276V263Q563 194 542.5 143Q522 92 485.5 58Q449 24 399 7Q349 -10 291 -10ZM292 111Q313 111 330 118Q347 125 359 141.5Q371 158 377 185.5Q383 213 383 254V273Q383 320 376 349.5Q369 379 356.5 395Q344 411 327 416.5Q310 422 290 422Q246 422 222.5 391Q199 360 199 279V259Q199 213 206 184Q213 155 225.5 139Q238 123 255 117Q272 111 292 111ZM107 591Q111 629 122.5 656Q134 683 150.5 700Q167 717 187 725Q207 733 228 733Q247 733 263 728Q279 723 293 717.5Q307 712 318.5 707Q330 702 339 702Q353 702 360 710Q367 718 371 732H474Q470 694 458.5 667Q447 640 430.5 623Q414 606 394 598Q374 590 353 590Q335 590 318.5 595Q302 600 288.5 605.5Q275 611 263 616Q251 621 242 621Q217 621 211 591Z" glyph-name="otilde" horiz-adv-x="582" unicode="&#245;" /><glyph d="M42 532H211V487H216Q242 513 279 527.5Q316 542 370 542Q409 542 445 529.5Q481 517 508.5 487Q536 457 553 408Q570 359 570 286V274Q570 195 552 141Q534 87 501.5 53.5Q469 20 424 5Q379 -10 324 -10Q284 -10 258 -3.5Q232 3 217 10V-195H42ZM290 111Q314 111 332.5 117Q351 123 363.5 139Q376 155 383 182.5Q390 210 390 253V270Q390 312 383.5 338.5Q377 365 365 380Q353 395 335.5 401Q318 407 296 407Q269 407 249 400.5Q229 394 217 386V130Q228 122 247.5 116.5Q267 111 290 111Z" glyph-name="p" horiz-adv-x="591" unicode="p" /><glyph d="M269 324H243Q196 324 157 336.5Q118 349 90.5 372.5Q63 396 48 430Q33 464 33 508Q33 549 46.5 583Q60 617 87.5 641.5Q115 666 157 679.5Q199 693 256 693H540V-120H441V600H369V-120H269Z" glyph-name="paragraph" horiz-adv-x="592" unicode="&#182;" /><glyph d="M232 -120Q196 -90 161 -48Q126 -6 98.5 47Q71 100 54 163.5Q37 227 37 299V321Q37 393 54 456.5Q71 520 98.5 572.5Q126 625 161 667Q196 709 232 739H375Q342 701 313 656Q284 611 261.5 559Q239 507 226 449.5Q213 392 213 329V297Q213 233 226 174Q239 115 261.5 62.5Q284 10 313 -36Q342 -82 375 -120Z" glyph-name="parenleft" horiz-adv-x="381" unicode="(" /><glyph d="M6 -120Q39 -83 68 -37.5Q97 8 119.5 60Q142 112 155 169.5Q168 227 168 290V322Q168 386 155 445Q142 504 119.5 556.5Q97 609 68 655Q39 701 6 739H149Q185 709 220 667Q255 625 282.5 572Q310 519 327 455.5Q344 392 344 320V298Q344 226 327 162.5Q310 99 282.5 46.5Q255 -6 220 -48Q185 -90 149 -120Z" glyph-name="parenright" horiz-adv-x="381" unicode=")" /><glyph d="M212 304Q171 304 136.5 316Q102 328 77 352.5Q52 377 38 413Q24 449 24 497V507Q24 556 38 593Q52 630 77.5 655Q103 680 137 692.5Q171 705 212 705Q252 705 286.5 692.5Q321 680 346.5 656Q372 632 386.5 596Q401 560 401 512V501Q401 453 387 416Q373 379 347.5 354Q322 329 287.5 316.5Q253 304 212 304ZM718 -10Q677 -10 642.5 2.5Q608 15 583.5 39Q559 63 545 99Q531 135 531 183V193Q531 242 545 279Q559 316 584.5 341Q610 366 644 378.5Q678 391 719 391Q759 391 793.5 379Q828 367 853.5 342.5Q879 318 893.5 282Q908 246 908 198V187Q908 139 893.5 102Q879 65 853.5 40.5Q828 16 793.5 3Q759 -10 718 -10ZM630 713H753L291 -40H168ZM719 82Q749 82 761 103Q773 124 773 180V199Q773 254 760.5 277Q748 300 719 300Q690 300 677.5 277.5Q665 255 665 200V182Q665 126 677.5 104Q690 82 719 82ZM212 396Q242 396 254.5 417Q267 438 267 494V512Q267 568 254 590.5Q241 613 212 613Q183 613 170.5 591Q158 569 158 514V495Q158 439 170.5 417.5Q183 396 212 396Z" glyph-name="percent" horiz-adv-x="931" unicode="%" /><glyph d="M45 156H214V0H45Z" glyph-name="period" horiz-adv-x="259" unicode="." /><glyph d="M45 393H216V238H45Z" glyph-name="periodcentered" horiz-adv-x="260" unicode="&#183;" /><glyph d="M213 304Q172 304 137.5 316Q103 328 78 352.5Q53 377 39 413Q25 449 25 497V507Q25 556 39.5 593Q54 630 79 655Q104 680 138.5 692.5Q173 705 213 705Q253 705 287.5 692.5Q322 680 347.5 656Q373 632 387.5 596Q402 560 402 512V501Q402 453 388 416Q374 379 348.5 354Q323 329 288.5 316.5Q254 304 213 304ZM631 713H754L292 -40H169ZM1131 -10Q1090 -10 1055.5 2.5Q1021 15 996.5 39Q972 63 958 99Q944 135 944 183V193Q944 242 958 279Q972 316 997.5 341Q1023 366 1057 378.5Q1091 391 1132 391Q1172 391 1206.5 379Q1241 367 1266.5 342.5Q1292 318 1306.5 282Q1321 246 1321 198V187Q1321 139 1306.5 102Q1292 65 1266.5 40.5Q1241 16 1206.5 3Q1172 -10 1131 -10ZM720 -10Q679 -10 644.5 2.5Q610 15 585 39Q560 63 546 99Q532 135 532 183V193Q532 242 546 279Q560 316 585.5 341Q611 366 645 378.5Q679 391 720 391Q760 391 794.5 379Q829 367 854.5 342.5Q880 318 894.5 282Q909 246 909 198V187Q909 139 895 102Q881 65 855.5 40.5Q830 16 795.5 3Q761 -10 720 -10ZM213 396Q243 396 255.5 417Q268 438 268 494V512Q268 568 255 590.5Q242 613 213 613Q184 613 171.5 591Q159 569 159 514V495Q159 439 171.5 417.5Q184 396 213 396ZM1132 82Q1162 82 1174 103Q1186 124 1186 180V199Q1186 254 1173.5 277Q1161 300 1132 300Q1103 300 1090.5 277.5Q1078 255 1078 200V182Q1078 126 1090.5 104Q1103 82 1132 82ZM720 82Q750 82 762.5 103Q775 124 775 180V199Q775 254 762 277Q749 300 720 300Q691 300 678.5 277.5Q666 255 666 200V182Q666 126 678.5 104Q691 82 720 82Z" glyph-name="perthousand" horiz-adv-x="1346" unicode="&#8240;" /><glyph d="M187 273H31V409H187V571H337V409H493V273H337V111H187Z" glyph-name="plus" horiz-adv-x="524" unicode="+" /><glyph d="M374 29H369Q345 10 314 0Q283 -10 235 -10Q194 -10 155.5 4Q117 18 87 48.5Q57 79 39 128.5Q21 178 21 249V261Q21 341 42 395Q63 449 101.5 481.5Q140 514 194.5 528Q249 542 317 542Q397 542 453 531.5Q509 521 549 505V-195H374ZM298 122Q325 122 343.5 129Q362 136 374 144V411Q363 415 344.5 418.5Q326 422 304 422Q280 422 261 415Q242 408 229 391.5Q216 375 209 347Q202 319 202 277V260Q202 218 208.5 191Q215 164 227.5 148.5Q240 133 258 127.5Q276 122 298 122Z" glyph-name="q" horiz-adv-x="590" unicode="q" /><glyph d="M97 270Q97 296 102 315Q107 334 118 350Q129 366 146 381Q163 396 187 413Q217 435 230.5 453Q244 471 244 501Q244 538 219.5 553Q195 568 141 568Q99 568 71.5 563Q44 558 18 550V675Q53 689 97 697Q141 705 200 705Q250 705 292 695Q334 685 364 663Q394 641 411 607Q428 573 428 524Q428 490 422 465Q416 440 404 420.5Q392 401 373.5 384Q355 367 330 349Q306 333 290.5 321.5Q275 310 265 299.5Q255 289 251 278Q247 267 247 252V229H97ZM89 153H259V0H89Z" glyph-name="question" horiz-adv-x="449" unicode="?" /><glyph d="M249 -132Q199 -132 157 -122Q115 -112 85 -90.5Q55 -69 38 -34.5Q21 0 21 49Q21 83 27 108Q33 133 45 152.5Q57 172 75.5 189Q94 206 119 224Q143 240 158.5 251.5Q174 263 183.5 273.5Q193 284 197 295Q201 306 201 321V344H352V303Q352 277 347 258Q342 239 331 223Q320 207 303 192Q286 177 262 160Q232 138 218.5 120Q205 102 205 72Q205 35 229.5 20Q254 5 308 5Q349 5 377 10Q405 15 431 23V-102Q396 -116 351.5 -124Q307 -132 249 -132ZM190 573H360V420H190Z" glyph-name="questiondown" horiz-adv-x="449" unicode="&#191;" /><glyph d="M243 693H406L392 474H257ZM34 693H197L183 474H48Z" glyph-name="quotedbl" horiz-adv-x="440" unicode="&quot;" /><glyph d="M255 156H418L378 -63H244ZM46 156H209L169 -63H35Z" glyph-name="quotedblbase" horiz-adv-x="441" unicode="&#8222;" /><glyph d="M272 693H407L395 474H232ZM63 693H198L186 474H23Z" glyph-name="quotedblleft" horiz-adv-x="441" unicode="&#8220;" /><glyph d="M255 693H418L378 474H244ZM46 693H209L169 474H35Z" glyph-name="quotedblright" horiz-adv-x="441" unicode="&#8221;" /><glyph d="M63 693H198L186 474H23Z" glyph-name="quoteleft" horiz-adv-x="232" unicode="&#8216;" /><glyph d="M46 693H209L169 474H35Z" glyph-name="quoteright" horiz-adv-x="232" unicode="&#8217;" /><glyph d="M46 156H209L169 -63H35Z" glyph-name="quotesinglbase" horiz-adv-x="232" unicode="&#8218;" /><glyph d="M34 693H197L183 474H48Z" glyph-name="quotesingle" horiz-adv-x="231" unicode="&apos;" /><glyph d="M42 532H211V468H216Q237 499 271.5 518.5Q306 538 348 538Q369 538 379 533V379Q371 381 358 382.5Q345 384 334 384Q299 384 269.5 377.5Q240 371 217 360V0H42Z" glyph-name="r" horiz-adv-x="393" unicode="r" /><glyph d="M224 303Q181 303 144 319Q107 335 79.5 362.5Q52 390 36.5 427Q21 464 21 505Q21 547 36.5 583.5Q52 620 79.5 647Q107 674 144 690Q181 706 224 706Q267 706 304.5 690Q342 674 369.5 647Q397 620 413 583.5Q429 547 429 505Q429 464 413 427Q397 390 369.5 362.5Q342 335 304.5 319Q267 303 224 303ZM224 340Q260 340 289.5 352.5Q319 365 340.5 387.5Q362 410 373.5 440Q385 470 385 505Q385 539 373.5 569Q362 599 340.5 621.5Q319 644 289.5 657Q260 670 224 670Q188 670 159 657Q130 644 109 621.5Q88 599 77 569Q66 539 66 505Q66 470 77 440Q88 410 109 387.5Q130 365 159 352.5Q188 340 224 340ZM143 604H238Q275 604 296 588Q317 572 317 542Q317 524 308.5 511Q300 498 288 493V490L327 410H258L227 476H209V410H143ZM228 518Q250 518 250 538Q250 558 228 558H209V518Z" glyph-name="registered" horiz-adv-x="450" unicode="&#174;" /><glyph d="M249 575Q222 575 200 584Q178 593 162 608Q146 623 137.5 643Q129 663 129 686Q129 709 137.5 729Q146 749 162 764Q178 779 200 788Q222 797 249 797Q276 797 298 788Q320 779 336 764Q352 749 360.5 729Q369 709 369 686Q369 663 360.5 643Q352 623 336 608Q320 593 298 584Q276 575 249 575ZM249 641Q269 641 280 653.5Q291 666 291 686Q291 706 280 718.5Q269 731 249 731Q229 731 217.5 718.5Q206 706 206 686Q206 666 217.5 653.5Q229 641 249 641Z" glyph-name="ring" horiz-adv-x="498" unicode="&#730;" /><glyph d="M249 716Q222 716 200 725Q178 734 162 749Q146 764 137.5 784Q129 804 129 827Q129 850 137.5 870Q146 890 162 905Q178 920 200 929Q222 938 249 938Q276 938 298 929Q320 920 336 905Q352 890 360.5 870Q369 850 369 827Q369 804 360.5 784Q352 764 336 749Q320 734 298 725Q276 716 249 716ZM249 782Q269 782 280 794.5Q291 807 291 827Q291 847 280 859.5Q269 872 249 872Q229 872 217.5 859.5Q206 847 206 827Q206 807 217.5 794.5Q229 782 249 782Z" glyph-name="ring.uc" horiz-adv-x="498" /><glyph d="M207 -10Q153 -10 103.5 -0.5Q54 9 22 25V143Q54 131 90.5 121.5Q127 112 181 112Q229 112 250 123Q271 134 271 156Q271 176 257.5 184Q244 192 210 197L161 204Q92 214 55.5 253Q19 292 19 370Q19 451 72 496.5Q125 542 237 542Q295 542 335 534.5Q375 527 406 514V397Q380 405 344 413Q308 421 260 421Q183 421 183 380Q183 360 197.5 352Q212 344 244 339L293 332Q374 321 406.5 279Q439 237 439 168Q439 80 382.5 35Q326 -10 207 -10Z" glyph-name="s" horiz-adv-x="458" unicode="s" /><glyph d="M305 581H162L58 736H184L234 679L284 736H409ZM207 -10Q153 -10 103.5 -0.5Q54 9 22 25V143Q54 131 90.5 121.5Q127 112 181 112Q229 112 250 123Q271 134 271 156Q271 176 257.5 184Q244 192 210 197L161 204Q92 214 55.5 253Q19 292 19 370Q19 451 72 496.5Q125 542 237 542Q295 542 335 534.5Q375 527 406 514V397Q380 405 344 413Q308 421 260 421Q183 421 183 380Q183 360 197.5 352Q212 344 244 339L293 332Q374 321 406.5 279Q439 237 439 168Q439 80 382.5 35Q326 -10 207 -10Z" glyph-name="scaron" horiz-adv-x="458" unicode="&#353;" /><glyph d="M255 -132Q196 -132 145.5 -121Q95 -110 61 -92V29Q96 15 135 4.5Q174 -6 230 -6Q281 -6 303 6.5Q325 19 325 43Q325 66 312 76.5Q299 87 261 96L193 112Q155 120 123.5 132Q92 144 68.5 163.5Q45 183 32 211.5Q19 240 19 280Q19 331 41.5 361.5Q64 392 108 407Q86 427 73 456.5Q60 486 60 528Q60 611 117.5 658Q175 705 294 705Q359 705 400 695Q441 685 472 671V551Q443 561 405 570.5Q367 580 316 580Q274 580 253 570Q232 560 232 536Q232 513 245 503Q258 493 293 485L363 467Q406 458 439 445.5Q472 433 495 414Q518 395 530 368.5Q542 342 542 303Q542 248 520 217Q498 186 456 170Q503 131 503 55Q503 -132 255 -132ZM248 352 244 354Q183 345 183 301Q183 277 198.5 263Q214 249 259 238L301 226Q305 224 307 224Q342 229 357 242Q372 255 372 277Q372 289 369 298Q366 307 357 314Q348 321 332.5 327.5Q317 334 292 340Z" glyph-name="section" horiz-adv-x="558" unicode="&#167;" /><glyph d="M48 156H221L171 -73H36ZM49 446H218V290H49Z" glyph-name="semicolon" horiz-adv-x="267" unicode=";" /><glyph d="M328 545V549H19V693H525V565L277 0H62Z" glyph-name="seven" horiz-adv-x="543" unicode="7" /><glyph d="M332 -12Q185 -12 107.5 71.5Q30 155 30 305V344Q30 441 56.5 509.5Q83 578 129.5 621.5Q176 665 240 685Q304 705 379 705Q444 705 488.5 698Q533 691 560 678V544Q538 550 499.5 554.5Q461 559 423 559Q378 559 343.5 552.5Q309 546 285 528.5Q261 511 247 481Q233 451 230 403Q256 418 294.5 429.5Q333 441 387 441Q488 441 547 390Q606 339 606 234Q606 182 589.5 137Q573 92 539 59Q505 26 453.5 7Q402 -12 332 -12ZM328 115Q370 115 392.5 140.5Q415 166 415 220Q415 253 408 273Q401 293 388.5 304Q376 315 358 318.5Q340 322 319 322Q292 322 269 315Q246 308 230 299V275Q230 194 253 154.5Q276 115 328 115Z" glyph-name="six" horiz-adv-x="631" unicode="6" /><glyph d="M237 739H389L142 -120H-9Z" glyph-name="slash" horiz-adv-x="397" unicode="/" /><glyph glyph-name="space" horiz-adv-x="166" unicode=" " /><glyph d="M169 -35H326L278 -182H159Z" glyph-name="space_uni0326" horiz-adv-x="488" /><glyph d="M317 589H160L208 735H328Z" glyph-name="space_uni0326.alt" horiz-adv-x="488" /><glyph d="M33 401H98V467Q98 529 118 574Q138 619 172.5 648Q207 677 254.5 691Q302 705 358 705Q426 705 463.5 696Q501 687 521 676V543Q495 550 471.5 554Q448 558 412 558Q388 558 366 553Q344 548 328 535.5Q312 523 302.5 501.5Q293 480 293 448V401H448V281H293Q292 225 272.5 193.5Q253 162 221 141V139H531V0H28V129Q59 144 78.5 172Q98 200 98 248V281H33Z" glyph-name="sterling" horiz-adv-x="556" unicode="&#163;" /><glyph d="M246 -8Q206 -8 174.5 -0.5Q143 7 121 24.5Q99 42 87.5 71.5Q76 101 76 145V410H10V532H76V658H252V532H360V410H252V170Q252 142 265.5 131.5Q279 121 311 121Q325 121 338.5 123Q352 125 363 127V14Q347 6 317.5 -1Q288 -8 246 -8Z" glyph-name="t" horiz-adv-x="384" unicode="t" /><glyph d="M42 739H217V491H222Q248 514 284 528Q320 542 368 542Q408 542 444.5 529.5Q481 517 509 487Q537 457 553.5 408Q570 359 570 286V274Q570 195 552 141Q534 87 501.5 53.5Q469 20 424 5Q379 -10 324 -10Q284 -10 258 -3.5Q232 3 217 10V-195H42ZM290 111Q314 111 332.5 117.5Q351 124 363.5 140Q376 156 383 184Q390 212 390 255V271Q390 313 383.5 339.5Q377 366 365 381Q353 396 335 401.5Q317 407 295 407Q270 407 249 401Q228 395 217 387V130Q228 122 247.5 116.5Q267 111 290 111Z" glyph-name="thorn" horiz-adv-x="591" unicode="&#254;" /><glyph d="M237 -12Q160 -12 106.5 1Q53 14 20 31V159Q52 148 94.5 140Q137 132 181 132Q250 132 282 152Q314 172 314 214Q314 257 284 274Q254 291 202 291H126V418H195Q249 418 276.5 435Q304 452 304 490Q304 531 275.5 546Q247 561 193 561Q148 561 110 554.5Q72 548 42 540V669Q81 684 135.5 694.5Q190 705 255 705Q309 705 353 693.5Q397 682 428.5 660Q460 638 477 605Q494 572 494 529Q494 466 459.5 426Q425 386 368 369V365Q437 352 476 313Q515 274 515 196Q515 99 443 43.5Q371 -12 237 -12Z" glyph-name="three" horiz-adv-x="544" unicode="3" /><glyph d="M161 263Q111 263 78 270.5Q45 278 23 288V375Q43 370 66.5 365.5Q90 361 117 361Q158 361 176 371.5Q194 382 194 403Q194 444 134 444H83V527H130Q192 527 192 566Q192 586 175 594.5Q158 603 125 603Q99 603 76.5 600Q54 597 36 592V678Q61 687 95 694Q129 701 173 701Q242 701 285 673.5Q328 646 328 592Q328 554 306 529Q284 504 247 494V492Q292 484 316 461Q340 438 340 390Q340 330 294.5 296.5Q249 263 161 263ZM645 710H767L256 -43H134ZM679 96H489V181L685 423H816V186H876V96H816V0H679ZM683 184V290H681L599 186V184Z" glyph-name="threequarters" horiz-adv-x="892" unicode="&#190;" /><glyph d="M64 591Q68 629 79.5 656Q91 683 107.5 700Q124 717 144 725Q164 733 185 733Q204 733 220 728Q236 723 250 717.5Q264 712 275.5 707Q287 702 296 702Q310 702 317 710Q324 718 328 732H431Q427 694 415.5 667Q404 640 387.5 623Q371 606 351 598Q331 590 310 590Q292 590 275.5 595Q259 600 245.5 605.5Q232 611 220 616Q208 621 199 621Q174 621 168 591Z" glyph-name="tilde" horiz-adv-x="498" unicode="&#732;" /><glyph d="M64 731Q68 769 79.5 795Q91 821 107.5 837Q124 853 144 860Q164 867 185 867Q204 867 220 862.5Q236 858 250 853Q264 848 275.5 843.5Q287 839 296 839Q310 839 317 846Q324 853 328 866H431Q427 828 415.5 802Q404 776 387.5 760Q371 744 351 737Q331 730 310 730Q292 730 275.5 734.5Q259 739 245.5 744Q232 749 220 753.5Q208 758 199 758Q174 758 168 731Z" glyph-name="tilde.uc" horiz-adv-x="498" /><glyph d="M322 693H457L506 524H509L558 693H703V390H597V574H594L542 390H457L405 574H402V390H322ZM93 603H15V693H284V603H205V390H93Z" glyph-name="trademark" horiz-adv-x="726" unicode="&#8482;" /><glyph d="M21 127 161 256Q193 285 218 311Q243 337 260.5 361.5Q278 386 287.5 411Q297 436 297 463Q297 514 265 536Q233 558 175 558Q133 558 96.5 548.5Q60 539 31 527V662Q66 679 119 692Q172 705 245 705Q371 705 435.5 649.5Q500 594 500 494Q500 450 488 413.5Q476 377 453.5 343.5Q431 310 398.5 277.5Q366 245 325 211L245 142V139H509V0H21Z" glyph-name="two" horiz-adv-x="538" unicode="2" /><glyph d="M202 -10Q125 -10 82.5 26.5Q40 63 40 145V532H215V182Q215 150 229.5 136.5Q244 123 279 123Q302 123 322 129Q342 135 359 143V532H534V0H380L368 47H363Q328 20 290.5 5Q253 -10 202 -10Z" glyph-name="u" horiz-adv-x="576" unicode="u" /><glyph d="M281 736H459L355 581H214ZM202 -10Q125 -10 82.5 26.5Q40 63 40 145V532H215V182Q215 150 229.5 136.5Q244 123 279 123Q302 123 322 129Q342 135 359 143V532H534V0H380L368 47H363Q328 20 290.5 5Q253 -10 202 -10Z" glyph-name="uacute" horiz-adv-x="576" unicode="&#250;" /><glyph d="M218 736H361L465 581H340L289 638L240 581H114ZM202 -10Q125 -10 82.5 26.5Q40 63 40 145V532H215V182Q215 150 229.5 136.5Q244 123 279 123Q302 123 322 129Q342 135 359 143V532H534V0H380L368 47H363Q328 20 290.5 5Q253 -10 202 -10Z" glyph-name="ucircumflex" horiz-adv-x="576" unicode="&#251;" /><glyph d="M320 725H465V592H320ZM114 725H260V592H114ZM202 -10Q125 -10 82.5 26.5Q40 63 40 145V532H215V182Q215 150 229.5 136.5Q244 123 279 123Q302 123 322 129Q342 135 359 143V532H534V0H380L368 47H363Q328 20 290.5 5Q253 -10 202 -10Z" glyph-name="udieresis" horiz-adv-x="576" unicode="&#252;" /><glyph d="M202 -10Q125 -10 82.5 26.5Q40 63 40 145V532H215V182Q215 150 229.5 136.5Q244 123 279 123Q302 123 322 129Q342 135 359 143V532H534V0H380L368 47H363Q328 20 290.5 5Q253 -10 202 -10ZM122 736H299L366 581H225Z" glyph-name="ugrave" horiz-adv-x="576" unicode="&#249;" /><glyph d="M-4 -50H384V-158H-4Z" glyph-name="underscore" horiz-adv-x="380" unicode="_" /><glyph glyph-name="uni00A0" horiz-adv-x="166" unicode="&#160;" /><glyph glyph-name="uni2009" horiz-adv-x="70" unicode="&#8201;" /><glyph d="M3 532H186L289 199H293L396 532H561L374 0H190Z" glyph-name="v" horiz-adv-x="564" unicode="v" /><glyph d="M8 532H187L260 223H264L346 532H477L560 223H564L636 532H787L647 0H483L400 299H397L313 0H148Z" glyph-name="w" horiz-adv-x="795" unicode="w" /><glyph d="M171 276 15 532H211L297 376L377 532H545L394 280L559 0H364L269 169L173 0H4Z" glyph-name="x" horiz-adv-x="563" unicode="x" /><glyph d="M144 -198Q117 -198 87 -193.5Q57 -189 42 -182V-66Q56 -68 70.5 -70Q85 -72 98 -72Q135 -72 155.5 -59.5Q176 -47 186 -20L198 12L1 532H184L288 214H291L391 532H556L351 -51Q324 -130 276.5 -164Q229 -198 144 -198Z" glyph-name="y" horiz-adv-x="558" unicode="y" /><glyph d="M144 -198Q117 -198 87 -193.5Q57 -189 42 -182V-66Q56 -68 70.5 -70Q85 -72 98 -72Q135 -72 155.5 -59.5Q176 -47 186 -20L198 12L1 532H184L288 214H291L391 532H556L351 -51Q324 -130 276.5 -164Q229 -198 144 -198ZM276 736H454L350 581H209Z" glyph-name="yacute" horiz-adv-x="558" unicode="&#253;" /><glyph d="M144 -198Q117 -198 87 -193.5Q57 -189 42 -182V-66Q56 -68 70.5 -70Q85 -72 98 -72Q135 -72 155.5 -59.5Q176 -47 186 -20L198 12L1 532H184L288 214H291L391 532H556L351 -51Q324 -130 276.5 -164Q229 -198 144 -198ZM319 725H464V592H319ZM113 725H259V592H113Z" glyph-name="ydieresis" horiz-adv-x="558" unicode="&#255;" /><glyph d="M227 104H70V219H227V266H70V381H185L10 693H215L335 448H339L459 693H636L461 381H578V266H421V219H578V104H421V0H227Z" glyph-name="yen" horiz-adv-x="644" unicode="&#165;" /><glyph d="M22 123 252 406V409H30V532H464V419L227 126V123H461V0H22Z" glyph-name="z" horiz-adv-x="487" unicode="z" /><glyph d="M323 581H180L76 736H202L252 679L302 736H427ZM22 123 252 406V409H30V532H464V419L227 126V123H461V0H22Z" glyph-name="zcaron" horiz-adv-x="487" unicode="&#382;" /><glyph d="M341 -12Q276 -12 219.5 6Q163 24 121 64.5Q79 105 54.5 169Q30 233 30 325V361Q30 457 56.5 522.5Q83 588 127 628.5Q171 669 228 687Q285 705 345 705Q409 705 465.5 686.5Q522 668 564 627.5Q606 587 630.5 523Q655 459 655 367V331Q655 236 629 171Q603 106 559.5 65Q516 24 459 6Q402 -12 341 -12ZM342 126Q371 126 391.5 135Q412 144 425.5 166.5Q439 189 445.5 226Q452 263 452 319V365Q452 423 445.5 461.5Q439 500 425.5 523.5Q412 547 391.5 557Q371 567 343 567Q315 567 294.5 557.5Q274 548 260.5 525.5Q247 503 240 465.5Q233 428 233 372V327Q233 217 258.5 171.5Q284 126 342 126Z" glyph-name="zero" horiz-adv-x="684" unicode="0" /></font>
</defs>
</svg>
