<svg xmlns="http://www.w3.org/2000/svg" xmlns:xlink="http://www.w3.org/1999/xlink" version="1.1" x="0px" y="0px" width="100%" height="100%" viewBox="0 0 100 100" enable-background="new 0 0 100 100" xml:space="preserve">
  <g>
    <circle cx="48.594" cy="22.661" r="11.902"/>
    <path d="M91.053,89L80.472,74H50.411H23.585c-3.565-4-8.998-9.924-9.573-11c-1.066-2,17.149-15.573,17.149-15.573L29.143,
    69h39.496l-1.58-22.86c7.39-3.512,23.697-9.554,23.697-14.096s-5.925-18.699-9.479-22.648c-3.555-3.95-5.925-3.129-5.728,
    0.03c0.155,2.47,5.529,17.197,3.949,19.566c-1.579,2.37-22.145,6.58-22.145,6.58s-5.712,3.875-8.905,
    3.584c-3.194,0.291-9.284-3.74-9.284-3.74S23.207,38.292,20.9,39.97C19.208,41.201,2.714,62.417,3.004,64.158c0.188,1.124,
    8.117,8.102,14.738,13.273L9.77,89H21v6h5v-6h48v6h5v-6H91.053z"/>
  </g>
</svg>
